<?xml version="1.0" encoding="UTF-8"?>
<svg xmlns="http://www.w3.org/2000/svg" xmlns:xlink="http://www.w3.org/1999/xlink" width="854" height="480" viewBox="0 0 854 480">
<defs>
<g>
<g id="glyph-0-0">
<path d="M 3.453125 -1.839844 C 3.40625 -1.773438 3.359375 -1.710938 3.308594 -1.648438 C 3.257812 -1.585938 3.203125 -1.527344 3.144531 -1.480469 C 3.085938 -1.429688 3.015625 -1.390625 2.941406 -1.359375 C 2.867188 -1.328125 2.78125 -1.3125 2.6875 -1.3125 C 2.574219 -1.3125 2.46875 -1.332031 2.367188 -1.371094 C 2.269531 -1.410156 2.167969 -1.457031 2.066406 -1.515625 C 1.96875 -1.574219 1.863281 -1.621094 1.746094 -1.664062 C 1.632812 -1.707031 1.503906 -1.730469 1.363281 -1.730469 C 1.292969 -1.730469 1.230469 -1.714844 1.175781 -1.691406 C 1.121094 -1.664062 1.074219 -1.628906 1.03125 -1.589844 C 0.988281 -1.550781 0.949219 -1.507812 0.917969 -1.460938 C 0.886719 -1.410156 0.863281 -1.363281 0.835938 -1.3125 L 0.617188 -1.828125 C 0.648438 -1.890625 0.6875 -1.957031 0.734375 -2.019531 C 0.777344 -2.082031 0.832031 -2.136719 0.890625 -2.1875 C 0.953125 -2.238281 1.023438 -2.277344 1.101562 -2.308594 C 1.179688 -2.335938 1.265625 -2.351562 1.363281 -2.351562 C 1.480469 -2.351562 1.597656 -2.332031 1.71875 -2.292969 C 1.835938 -2.253906 1.953125 -2.210938 2.070312 -2.15625 C 2.183594 -2.109375 2.296875 -2.058594 2.40625 -2.011719 C 2.511719 -1.960938 2.605469 -1.9375 2.6875 -1.9375 C 2.75 -1.9375 2.808594 -1.949219 2.859375 -1.976562 C 2.914062 -2.003906 2.960938 -2.035156 3.003906 -2.074219 C 3.046875 -2.113281 3.085938 -2.15625 3.121094 -2.207031 C 3.160156 -2.253906 3.195312 -2.304688 3.230469 -2.351562 Z "/>
</g>
</g>
</defs>
<g fill="rgb(37.647059%, 64.705882%, 98.039216%)" fill-opacity="1">
<use xlink:href="#glyph-0-0" x="30" y="26.110352"/>
<use xlink:href="#glyph-0-0" x="34" y="26.110352"/>
</g>
</svg>
