<?xml version="1.0" encoding="UTF-8"?>
<svg xmlns="http://www.w3.org/2000/svg" xmlns:xlink="http://www.w3.org/1999/xlink" width="854" height="480" viewBox="0 0 854 480">
<defs>
<g>
<g id="glyph-0-0">
<path d="M 1.535156 -0.273438 L 1.519531 -0.273438 C 1.449219 -0.160156 1.355469 -0.078125 1.246094 -0.0273438 C 1.136719 0.0234375 1.011719 0.0507812 0.878906 0.0507812 C 0.789062 0.0507812 0.699219 0.0390625 0.609375 0.0117188 C 0.523438 -0.0117188 0.445312 -0.0507812 0.378906 -0.101562 C 0.308594 -0.152344 0.253906 -0.210938 0.210938 -0.289062 C 0.171875 -0.363281 0.148438 -0.449219 0.148438 -0.550781 C 0.148438 -0.660156 0.167969 -0.75 0.207031 -0.828125 C 0.246094 -0.902344 0.300781 -0.96875 0.363281 -1.019531 C 0.429688 -1.070312 0.503906 -1.109375 0.589844 -1.140625 C 0.675781 -1.171875 0.765625 -1.195312 0.859375 -1.210938 C 0.953125 -1.226562 1.046875 -1.234375 1.140625 -1.238281 C 1.234375 -1.242188 1.324219 -1.246094 1.410156 -1.246094 L 1.535156 -1.246094 L 1.535156 -1.300781 C 1.535156 -1.425781 1.492188 -1.519531 1.402344 -1.582031 C 1.316406 -1.644531 1.207031 -1.675781 1.074219 -1.675781 C 0.96875 -1.675781 0.871094 -1.65625 0.777344 -1.617188 C 0.6875 -1.582031 0.609375 -1.53125 0.542969 -1.464844 L 0.277344 -1.730469 C 0.390625 -1.84375 0.519531 -1.925781 0.667969 -1.976562 C 0.816406 -2.027344 0.972656 -2.050781 1.128906 -2.050781 C 1.269531 -2.050781 1.390625 -2.035156 1.488281 -2.003906 C 1.585938 -1.972656 1.664062 -1.929688 1.730469 -1.878906 C 1.792969 -1.828125 1.84375 -1.773438 1.878906 -1.707031 C 1.914062 -1.640625 1.9375 -1.574219 1.953125 -1.507812 C 1.96875 -1.441406 1.976562 -1.378906 1.980469 -1.316406 C 1.984375 -1.253906 1.984375 -1.199219 1.984375 -1.148438 L 1.984375 0 L 1.535156 0 Z M 1.503906 -0.894531 L 1.398438 -0.894531 C 1.332031 -0.894531 1.253906 -0.894531 1.167969 -0.886719 C 1.082031 -0.882812 1 -0.867188 0.921875 -0.847656 C 0.847656 -0.828125 0.78125 -0.796875 0.730469 -0.757812 C 0.675781 -0.714844 0.648438 -0.660156 0.648438 -0.585938 C 0.648438 -0.539062 0.660156 -0.5 0.679688 -0.46875 C 0.703125 -0.4375 0.730469 -0.410156 0.761719 -0.386719 C 0.796875 -0.363281 0.832031 -0.347656 0.875 -0.339844 C 0.917969 -0.328125 0.957031 -0.324219 1 -0.324219 C 1.171875 -0.324219 1.300781 -0.367188 1.382812 -0.449219 C 1.464844 -0.53125 1.503906 -0.640625 1.503906 -0.785156 Z "/>
</g>
<g id="glyph-0-1">
<path d="M 0.285156 -2 L 0.757812 -2 L 0.757812 -1.679688 L 0.765625 -1.679688 C 0.8125 -1.78125 0.886719 -1.867188 0.984375 -1.941406 C 1.082031 -2.015625 1.210938 -2.050781 1.378906 -2.050781 C 1.511719 -2.050781 1.625 -2.027344 1.71875 -1.984375 C 1.8125 -1.9375 1.886719 -1.878906 1.945312 -1.808594 C 2.003906 -1.734375 2.046875 -1.652344 2.070312 -1.558594 C 2.097656 -1.464844 2.109375 -1.367188 2.109375 -1.261719 L 2.109375 0 L 1.609375 0 L 1.609375 -1.011719 C 1.609375 -1.066406 1.605469 -1.128906 1.601562 -1.199219 C 1.59375 -1.265625 1.578125 -1.328125 1.554688 -1.390625 C 1.53125 -1.449219 1.496094 -1.5 1.445312 -1.539062 C 1.394531 -1.578125 1.328125 -1.601562 1.242188 -1.601562 C 1.160156 -1.601562 1.089844 -1.585938 1.03125 -1.558594 C 0.972656 -1.53125 0.925781 -1.492188 0.890625 -1.445312 C 0.851562 -1.398438 0.824219 -1.34375 0.808594 -1.285156 C 0.792969 -1.222656 0.785156 -1.160156 0.785156 -1.089844 L 0.785156 0 L 0.285156 0 Z "/>
</g>
<g id="glyph-0-2">
<path d="M 1.351562 -1.445312 C 1.253906 -1.582031 1.121094 -1.648438 0.957031 -1.648438 C 0.890625 -1.648438 0.828125 -1.632812 0.761719 -1.601562 C 0.699219 -1.566406 0.667969 -1.511719 0.667969 -1.4375 C 0.667969 -1.375 0.691406 -1.332031 0.746094 -1.304688 C 0.796875 -1.277344 0.867188 -1.253906 0.945312 -1.234375 C 1.027344 -1.214844 1.113281 -1.195312 1.207031 -1.171875 C 1.300781 -1.152344 1.386719 -1.121094 1.464844 -1.078125 C 1.546875 -1.035156 1.613281 -0.976562 1.667969 -0.898438 C 1.71875 -0.824219 1.746094 -0.722656 1.746094 -0.589844 C 1.746094 -0.472656 1.71875 -0.371094 1.667969 -0.289062 C 1.617188 -0.207031 1.550781 -0.140625 1.46875 -0.0898438 C 1.386719 -0.0429688 1.292969 -0.00390625 1.191406 0.015625 C 1.089844 0.0390625 0.984375 0.0507812 0.882812 0.0507812 C 0.726562 0.0507812 0.585938 0.0273438 0.453125 -0.015625 C 0.324219 -0.0625 0.207031 -0.140625 0.105469 -0.257812 L 0.4375 -0.570312 C 0.5 -0.5 0.570312 -0.441406 0.644531 -0.394531 C 0.71875 -0.347656 0.808594 -0.324219 0.914062 -0.324219 C 0.949219 -0.324219 0.984375 -0.328125 1.023438 -0.335938 C 1.0625 -0.34375 1.101562 -0.359375 1.132812 -0.378906 C 1.167969 -0.398438 1.195312 -0.421875 1.214844 -0.453125 C 1.234375 -0.480469 1.246094 -0.515625 1.246094 -0.554688 C 1.246094 -0.625 1.21875 -0.675781 1.167969 -0.707031 C 1.113281 -0.742188 1.046875 -0.769531 0.964844 -0.789062 C 0.886719 -0.808594 0.800781 -0.828125 0.707031 -0.847656 C 0.613281 -0.867188 0.527344 -0.894531 0.445312 -0.933594 C 0.363281 -0.976562 0.296875 -1.03125 0.246094 -1.105469 C 0.191406 -1.175781 0.167969 -1.277344 0.167969 -1.402344 C 0.167969 -1.515625 0.191406 -1.613281 0.234375 -1.695312 C 0.28125 -1.777344 0.339844 -1.84375 0.417969 -1.894531 C 0.492188 -1.949219 0.578125 -1.988281 0.675781 -2.011719 C 0.773438 -2.039062 0.871094 -2.050781 0.972656 -2.050781 C 1.105469 -2.050781 1.234375 -2.027344 1.367188 -1.980469 C 1.496094 -1.933594 1.601562 -1.855469 1.683594 -1.746094 Z "/>
</g>
<g id="glyph-0-3">
<path d="M 0.0117188 -2 L 0.554688 -2 L 0.988281 -0.601562 L 0.996094 -0.601562 L 1.398438 -2 L 1.941406 -2 L 2.375 -0.601562 L 2.382812 -0.601562 L 2.800781 -2 L 3.304688 -2 L 2.625 0 L 2.128906 0 L 1.652344 -1.367188 L 1.644531 -1.367188 L 1.226562 0 L 0.707031 0 Z "/>
</g>
<g id="glyph-0-4">
<path d="M 0.683594 -0.824219 C 0.699219 -0.675781 0.757812 -0.558594 0.859375 -0.476562 C 0.957031 -0.390625 1.078125 -0.351562 1.222656 -0.351562 C 1.347656 -0.351562 1.449219 -0.375 1.535156 -0.425781 C 1.621094 -0.476562 1.695312 -0.542969 1.757812 -0.621094 L 2.117188 -0.351562 C 2 -0.207031 1.871094 -0.101562 1.726562 -0.0429688 C 1.582031 0.0195312 1.429688 0.0507812 1.269531 0.0507812 C 1.121094 0.0507812 0.980469 0.0234375 0.847656 -0.0234375 C 0.714844 -0.0742188 0.597656 -0.144531 0.5 -0.238281 C 0.402344 -0.328125 0.324219 -0.441406 0.269531 -0.570312 C 0.210938 -0.699219 0.183594 -0.839844 0.183594 -1 C 0.183594 -1.160156 0.210938 -1.300781 0.269531 -1.429688 C 0.324219 -1.558594 0.402344 -1.671875 0.5 -1.761719 C 0.597656 -1.855469 0.710938 -1.925781 0.847656 -1.976562 C 0.980469 -2.027344 1.121094 -2.050781 1.269531 -2.050781 C 1.410156 -2.050781 1.535156 -2.027344 1.652344 -1.976562 C 1.765625 -1.929688 1.867188 -1.859375 1.949219 -1.765625 C 2.03125 -1.675781 2.09375 -1.5625 2.140625 -1.425781 C 2.1875 -1.292969 2.207031 -1.136719 2.207031 -0.960938 L 2.207031 -0.824219 Z M 1.707031 -1.199219 C 1.707031 -1.347656 1.660156 -1.464844 1.570312 -1.546875 C 1.480469 -1.632812 1.359375 -1.675781 1.199219 -1.675781 C 1.050781 -1.675781 0.929688 -1.632812 0.84375 -1.546875 C 0.757812 -1.460938 0.703125 -1.34375 0.683594 -1.199219 Z "/>
</g>
<g id="glyph-0-5">
<path d="M 0.285156 -2 L 0.785156 -2 L 0.785156 -1.683594 L 0.792969 -1.683594 C 0.847656 -1.800781 0.925781 -1.890625 1.027344 -1.953125 C 1.132812 -2.019531 1.25 -2.050781 1.382812 -2.050781 C 1.414062 -2.050781 1.445312 -2.046875 1.472656 -2.042969 C 1.503906 -2.035156 1.53125 -2.03125 1.5625 -2.019531 L 1.5625 -1.539062 C 1.519531 -1.550781 1.480469 -1.558594 1.441406 -1.566406 C 1.398438 -1.570312 1.359375 -1.574219 1.320312 -1.574219 C 1.203125 -1.574219 1.109375 -1.554688 1.039062 -1.511719 C 0.96875 -1.46875 0.914062 -1.417969 0.878906 -1.363281 C 0.839844 -1.308594 0.816406 -1.25 0.800781 -1.195312 C 0.789062 -1.140625 0.785156 -1.097656 0.785156 -1.070312 L 0.785156 0 L 0.285156 0 Z "/>
</g>
</g>
</defs>
<g fill="rgb(37.647059%, 64.705882%, 98.039216%)" fill-opacity="1">
<use xlink:href="#glyph-0-0" x="30" y="24.166992"/>
<use xlink:href="#glyph-0-1" x="32" y="24.166992"/>
<use xlink:href="#glyph-0-2" x="34" y="24.166992"/>
<use xlink:href="#glyph-0-3" x="36" y="24.166992"/>
<use xlink:href="#glyph-0-4" x="39" y="24.166992"/>
<use xlink:href="#glyph-0-5" x="41" y="24.166992"/>
</g>
</svg>
