<?xml version="1.0" encoding="UTF-8"?>
<svg xmlns="http://www.w3.org/2000/svg" xmlns:xlink="http://www.w3.org/1999/xlink" width="854" height="480" viewBox="0 0 854 480">
<defs>
<g>
<g id="glyph-0-0">
<path d="M 3.453125 -3.3125 C 3.292969 -3.484375 3.140625 -3.597656 2.992188 -3.652344 C 2.84375 -3.710938 2.691406 -3.738281 2.542969 -3.738281 C 2.316406 -3.738281 2.113281 -3.699219 1.933594 -3.621094 C 1.753906 -3.542969 1.597656 -3.429688 1.464844 -3.289062 C 1.335938 -3.148438 1.234375 -2.984375 1.164062 -2.796875 C 1.09375 -2.609375 1.058594 -2.410156 1.058594 -2.195312 C 1.058594 -1.960938 1.09375 -1.746094 1.164062 -1.550781 C 1.234375 -1.355469 1.335938 -1.1875 1.464844 -1.042969 C 1.597656 -0.902344 1.753906 -0.789062 1.933594 -0.707031 C 2.113281 -0.625 2.316406 -0.585938 2.542969 -0.585938 C 2.71875 -0.585938 2.886719 -0.628906 3.050781 -0.710938 C 3.214844 -0.796875 3.371094 -0.929688 3.511719 -1.113281 L 4.148438 -0.660156 C 3.953125 -0.390625 3.714844 -0.195312 3.433594 -0.0742188 C 3.152344 0.046875 2.855469 0.109375 2.535156 0.109375 C 2.203125 0.109375 1.894531 0.0546875 1.617188 -0.0507812 C 1.335938 -0.160156 1.097656 -0.3125 0.894531 -0.511719 C 0.691406 -0.707031 0.535156 -0.945312 0.421875 -1.222656 C 0.308594 -1.5 0.25 -1.804688 0.25 -2.144531 C 0.25 -2.492188 0.308594 -2.804688 0.421875 -3.089844 C 0.535156 -3.371094 0.695312 -3.613281 0.894531 -3.8125 C 1.097656 -4.011719 1.335938 -4.167969 1.617188 -4.273438 C 1.894531 -4.382812 2.203125 -4.4375 2.535156 -4.4375 C 2.828125 -4.4375 3.101562 -4.382812 3.351562 -4.28125 C 3.601562 -4.175781 3.835938 -4 4.050781 -3.75 Z "/>
</g>
<g id="glyph-0-1">
<path d="M 1.355469 -2.585938 L 1.546875 -2.585938 C 1.652344 -2.585938 1.753906 -2.589844 1.855469 -2.601562 C 1.953125 -2.613281 2.042969 -2.640625 2.125 -2.683594 C 2.203125 -2.722656 2.265625 -2.78125 2.316406 -2.859375 C 2.363281 -2.9375 2.390625 -3.039062 2.390625 -3.171875 C 2.390625 -3.339844 2.332031 -3.476562 2.21875 -3.582031 C 2.105469 -3.6875 1.957031 -3.738281 1.773438 -3.738281 C 1.625 -3.738281 1.492188 -3.699219 1.378906 -3.613281 C 1.261719 -3.53125 1.175781 -3.414062 1.125 -3.261719 L 0.347656 -3.46875 C 0.398438 -3.628906 0.464844 -3.769531 0.554688 -3.886719 C 0.644531 -4.003906 0.75 -4.101562 0.875 -4.175781 C 0.996094 -4.25 1.128906 -4.308594 1.277344 -4.34375 C 1.421875 -4.382812 1.578125 -4.398438 1.734375 -4.398438 C 1.921875 -4.398438 2.101562 -4.375 2.265625 -4.324219 C 2.433594 -4.277344 2.582031 -4.203125 2.707031 -4.109375 C 2.832031 -4.011719 2.933594 -3.894531 3.007812 -3.75 C 3.085938 -3.605469 3.121094 -3.4375 3.121094 -3.246094 C 3.121094 -3.011719 3.058594 -2.804688 2.925781 -2.625 C 2.796875 -2.441406 2.613281 -2.324219 2.382812 -2.265625 L 2.382812 -2.253906 C 2.660156 -2.214844 2.871094 -2.097656 3.011719 -1.898438 C 3.15625 -1.703125 3.226562 -1.472656 3.226562 -1.203125 C 3.226562 -0.996094 3.1875 -0.8125 3.105469 -0.652344 C 3.027344 -0.496094 2.921875 -0.363281 2.785156 -0.253906 C 2.652344 -0.144531 2.496094 -0.0625 2.320312 -0.0078125 C 2.140625 0.046875 1.957031 0.0742188 1.765625 0.0742188 C 1.585938 0.0742188 1.417969 0.0546875 1.257812 0.015625 C 1.097656 -0.0234375 0.957031 -0.0820312 0.828125 -0.164062 C 0.699219 -0.246094 0.589844 -0.351562 0.496094 -0.480469 C 0.402344 -0.609375 0.328125 -0.761719 0.28125 -0.941406 L 1.0625 -1.148438 C 1.109375 -0.96875 1.1875 -0.832031 1.300781 -0.734375 C 1.414062 -0.636719 1.570312 -0.585938 1.765625 -0.585938 C 1.863281 -0.585938 1.957031 -0.601562 2.042969 -0.636719 C 2.132812 -0.667969 2.207031 -0.714844 2.277344 -0.773438 C 2.34375 -0.832031 2.394531 -0.902344 2.433594 -0.988281 C 2.472656 -1.070312 2.492188 -1.164062 2.492188 -1.265625 C 2.492188 -1.402344 2.464844 -1.515625 2.40625 -1.605469 C 2.347656 -1.691406 2.269531 -1.757812 2.179688 -1.804688 C 2.085938 -1.851562 1.984375 -1.882812 1.871094 -1.898438 C 1.757812 -1.914062 1.644531 -1.925781 1.535156 -1.925781 L 1.355469 -1.925781 Z "/>
</g>
</g>
</defs>
<g fill="rgb(96.078431%, 96.862745%, 98.039216%)" fill-opacity="1">
<use xlink:href="#glyph-0-0" x="30" y="26.110352"/>
<use xlink:href="#glyph-0-1" x="34" y="26.110352"/>
</g>
</svg>
