<?xml version="1.0" encoding="UTF-8"?>
<svg xmlns="http://www.w3.org/2000/svg" xmlns:xlink="http://www.w3.org/1999/xlink" width="854" height="480" viewBox="0 0 854 480">
<defs>
<g>
<g id="glyph-0-0">
<path d="M 1.410156 -1.769531 L 1.410156 -2.871094 L 1.921875 -2.871094 L 1.921875 -1.769531 L 3.019531 -1.769531 L 3.019531 -1.261719 L 1.921875 -1.261719 L 1.921875 -0.160156 L 1.410156 -0.160156 L 1.410156 -1.261719 L 0.308594 -1.261719 L 0.308594 -1.769531 Z "/>
</g>
<g id="glyph-0-1">
<path d="M 0.199219 -1.769531 C 0.199219 -2.050781 0.222656 -2.289062 0.265625 -2.488281 C 0.3125 -2.6875 0.371094 -2.851562 0.445312 -2.988281 C 0.519531 -3.121094 0.601562 -3.230469 0.691406 -3.3125 C 0.785156 -3.394531 0.878906 -3.457031 0.972656 -3.496094 C 1.066406 -3.539062 1.160156 -3.566406 1.246094 -3.578125 C 1.335938 -3.59375 1.414062 -3.601562 1.480469 -3.601562 C 1.546875 -3.601562 1.625 -3.59375 1.710938 -3.578125 C 1.800781 -3.566406 1.890625 -3.539062 1.988281 -3.496094 C 2.082031 -3.457031 2.175781 -3.394531 2.265625 -3.3125 C 2.359375 -3.230469 2.441406 -3.121094 2.515625 -2.988281 C 2.589844 -2.851562 2.648438 -2.6875 2.691406 -2.488281 C 2.738281 -2.289062 2.761719 -2.050781 2.761719 -1.769531 C 2.761719 -1.488281 2.738281 -1.25 2.691406 -1.050781 C 2.648438 -0.855469 2.589844 -0.6875 2.515625 -0.550781 C 2.441406 -0.417969 2.359375 -0.308594 2.265625 -0.226562 C 2.175781 -0.144531 2.082031 -0.0859375 1.988281 -0.0429688 C 1.894531 0 1.800781 0.0273438 1.710938 0.0390625 C 1.625 0.0546875 1.546875 0.0585938 1.480469 0.0585938 C 1.414062 0.0585938 1.335938 0.0546875 1.246094 0.0390625 C 1.160156 0.0273438 1.066406 0 0.972656 -0.0429688 C 0.878906 -0.0859375 0.785156 -0.144531 0.691406 -0.226562 C 0.601562 -0.308594 0.519531 -0.417969 0.445312 -0.550781 C 0.371094 -0.6875 0.3125 -0.855469 0.265625 -1.050781 C 0.222656 -1.25 0.199219 -1.488281 0.199219 -1.769531 Z M 0.800781 -1.769531 C 0.800781 -1.660156 0.808594 -1.53125 0.824219 -1.386719 C 0.839844 -1.242188 0.867188 -1.105469 0.914062 -0.976562 C 0.960938 -0.84375 1.03125 -0.734375 1.121094 -0.644531 C 1.210938 -0.554688 1.328125 -0.511719 1.480469 -0.511719 C 1.628906 -0.511719 1.75 -0.554688 1.839844 -0.644531 C 1.929688 -0.734375 2 -0.84375 2.046875 -0.976562 C 2.09375 -1.105469 2.121094 -1.242188 2.136719 -1.386719 C 2.152344 -1.53125 2.160156 -1.660156 2.160156 -1.769531 C 2.160156 -1.878906 2.152344 -2.007812 2.136719 -2.152344 C 2.121094 -2.296875 2.089844 -2.433594 2.046875 -2.566406 C 2 -2.695312 1.929688 -2.804688 1.839844 -2.894531 C 1.75 -2.984375 1.628906 -3.03125 1.480469 -3.03125 C 1.332031 -3.03125 1.210938 -2.984375 1.121094 -2.894531 C 1.03125 -2.804688 0.960938 -2.695312 0.914062 -2.566406 C 0.867188 -2.433594 0.835938 -2.296875 0.824219 -2.152344 C 0.808594 -2.007812 0.800781 -1.878906 0.800781 -1.769531 Z "/>
</g>
<g id="glyph-0-2">
<path d="M 0.339844 -0.351562 C 0.339844 -0.457031 0.378906 -0.546875 0.457031 -0.625 C 0.535156 -0.703125 0.628906 -0.738281 0.738281 -0.738281 C 0.847656 -0.738281 0.941406 -0.703125 1.019531 -0.628906 C 1.101562 -0.554688 1.140625 -0.464844 1.140625 -0.359375 C 1.140625 -0.253906 1.101562 -0.160156 1.023438 -0.0859375 C 0.945312 -0.0078125 0.851562 0.03125 0.738281 0.03125 C 0.6875 0.03125 0.636719 0.0195312 0.585938 0 C 0.539062 -0.0195312 0.496094 -0.046875 0.460938 -0.078125 C 0.421875 -0.113281 0.394531 -0.152344 0.371094 -0.199219 C 0.351562 -0.246094 0.339844 -0.296875 0.339844 -0.351562 Z "/>
</g>
<g id="glyph-0-3">
<path d="M 2.523438 -3 L 1.101562 -3 L 1.085938 -2.296875 C 1.132812 -2.3125 1.191406 -2.324219 1.261719 -2.328125 C 1.332031 -2.335938 1.402344 -2.339844 1.464844 -2.339844 C 1.636719 -2.339844 1.796875 -2.3125 1.941406 -2.257812 C 2.085938 -2.203125 2.210938 -2.125 2.316406 -2.019531 C 2.417969 -1.917969 2.5 -1.792969 2.558594 -1.648438 C 2.617188 -1.507812 2.644531 -1.34375 2.644531 -1.164062 C 2.644531 -0.976562 2.613281 -0.804688 2.546875 -0.652344 C 2.480469 -0.5 2.390625 -0.371094 2.277344 -0.265625 C 2.164062 -0.160156 2.027344 -0.0820312 1.871094 -0.0234375 C 1.714844 0.03125 1.546875 0.0585938 1.363281 0.0585938 C 1.082031 0.0585938 0.839844 -0.0078125 0.640625 -0.140625 C 0.445312 -0.273438 0.304688 -0.476562 0.21875 -0.75 L 0.851562 -0.921875 C 0.890625 -0.792969 0.957031 -0.691406 1.054688 -0.621094 C 1.152344 -0.546875 1.277344 -0.511719 1.429688 -0.511719 C 1.519531 -0.511719 1.601562 -0.523438 1.675781 -0.554688 C 1.75 -0.585938 1.816406 -0.628906 1.871094 -0.683594 C 1.925781 -0.738281 1.96875 -0.800781 2 -0.875 C 2.03125 -0.949219 2.046875 -1.027344 2.046875 -1.113281 C 2.046875 -1.238281 2.023438 -1.34375 1.976562 -1.429688 C 1.933594 -1.515625 1.871094 -1.585938 1.796875 -1.640625 C 1.71875 -1.695312 1.628906 -1.738281 1.53125 -1.761719 C 1.429688 -1.789062 1.324219 -1.800781 1.214844 -1.800781 C 1.085938 -1.800781 0.957031 -1.785156 0.828125 -1.753906 C 0.699219 -1.726562 0.582031 -1.683594 0.476562 -1.628906 L 0.511719 -3.539062 L 2.523438 -3.539062 Z "/>
</g>
<g id="glyph-0-4">
<rect x="0" y="0" width="0" height="0" mask="url(#mask-0)"/>
</g>
<g id="glyph-0-5">
<path d="M 0.339844 -2.398438 L 0.910156 -2.398438 L 0.910156 -2.039062 L 0.921875 -2.039062 C 1.007812 -2.1875 1.125 -2.292969 1.269531 -2.359375 C 1.417969 -2.425781 1.574219 -2.460938 1.746094 -2.460938 C 1.929688 -2.460938 2.09375 -2.425781 2.238281 -2.363281 C 2.386719 -2.296875 2.511719 -2.207031 2.613281 -2.09375 C 2.71875 -1.980469 2.796875 -1.847656 2.851562 -1.695312 C 2.902344 -1.542969 2.929688 -1.375 2.929688 -1.199219 C 2.929688 -1.023438 2.902344 -0.859375 2.84375 -0.703125 C 2.789062 -0.550781 2.710938 -0.417969 2.609375 -0.304688 C 2.507812 -0.191406 2.382812 -0.101562 2.238281 -0.0390625 C 2.097656 0.0273438 1.941406 0.0585938 1.769531 0.0585938 C 1.65625 0.0585938 1.558594 0.046875 1.46875 0.0234375 C 1.382812 0 1.308594 -0.0273438 1.238281 -0.0664062 C 1.171875 -0.101562 1.117188 -0.140625 1.070312 -0.183594 C 1.023438 -0.222656 0.984375 -0.265625 0.953125 -0.304688 L 0.941406 -0.304688 L 0.941406 1.140625 L 0.339844 1.140625 Z M 2.328125 -1.199219 C 2.328125 -1.292969 2.3125 -1.382812 2.28125 -1.46875 C 2.25 -1.554688 2.203125 -1.632812 2.140625 -1.699219 C 2.082031 -1.765625 2.007812 -1.820312 1.921875 -1.859375 C 1.832031 -1.898438 1.734375 -1.921875 1.625 -1.921875 C 1.515625 -1.921875 1.417969 -1.898438 1.328125 -1.859375 C 1.242188 -1.820312 1.167969 -1.765625 1.109375 -1.699219 C 1.046875 -1.632812 1 -1.558594 0.96875 -1.46875 C 0.9375 -1.382812 0.921875 -1.292969 0.921875 -1.199219 C 0.921875 -1.105469 0.9375 -1.015625 0.96875 -0.929688 C 1 -0.84375 1.046875 -0.765625 1.109375 -0.699219 C 1.167969 -0.632812 1.242188 -0.578125 1.328125 -0.539062 C 1.417969 -0.5 1.515625 -0.480469 1.625 -0.480469 C 1.734375 -0.480469 1.832031 -0.5 1.921875 -0.539062 C 2.007812 -0.578125 2.082031 -0.632812 2.140625 -0.699219 C 2.203125 -0.765625 2.25 -0.84375 2.28125 -0.929688 C 2.3125 -1.015625 2.328125 -1.105469 2.328125 -1.199219 Z "/>
</g>
</g>
<image id="source-199" x="0" y="0" width="0" height="0"/>
<mask id="mask-0">
<use xlink:href="#source-199"/>
</mask>
</defs>
<g fill="rgb(58.039216%, 63.921569%, 72.156863%)" fill-opacity="1">
<use xlink:href="#glyph-0-0" x="30" y="25"/>
<use xlink:href="#glyph-0-1" x="33" y="25"/>
<use xlink:href="#glyph-0-2" x="36" y="25"/>
<use xlink:href="#glyph-0-3" x="37" y="25"/>
<use xlink:href="#glyph-0-4" x="40" y="25"/>
<use xlink:href="#glyph-0-5" x="41" y="25"/>
<use xlink:href="#glyph-0-5" x="44" y="25"/>
</g>
</svg>
