<?xml version="1.0" encoding="UTF-8"?>
<svg xmlns="http://www.w3.org/2000/svg" xmlns:xlink="http://www.w3.org/1999/xlink" width="854" height="480" viewBox="0 0 854 480">
<defs>
<g>
<g id="glyph-0-0">
<path d="M 0.4375 -3.933594 L 1.140625 -3.933594 L 1.140625 -0.632812 L 2.8125 -0.632812 L 2.8125 0 L 0.4375 0 Z "/>
</g>
<g id="glyph-0-1">
<path d="M 2.042969 -0.367188 L 2.027344 -0.367188 C 1.929688 -0.214844 1.808594 -0.105469 1.660156 -0.0351562 C 1.511719 0.03125 1.351562 0.0664062 1.171875 0.0664062 C 1.050781 0.0664062 0.929688 0.0507812 0.8125 0.015625 C 0.695312 -0.015625 0.59375 -0.0664062 0.503906 -0.132812 C 0.414062 -0.199219 0.339844 -0.285156 0.285156 -0.382812 C 0.226562 -0.484375 0.199219 -0.601562 0.199219 -0.734375 C 0.199219 -0.878906 0.226562 -1 0.277344 -1.101562 C 0.328125 -1.203125 0.398438 -1.289062 0.484375 -1.359375 C 0.574219 -1.425781 0.675781 -1.480469 0.789062 -1.523438 C 0.902344 -1.5625 1.023438 -1.59375 1.148438 -1.613281 C 1.273438 -1.632812 1.394531 -1.648438 1.523438 -1.652344 C 1.648438 -1.660156 1.765625 -1.660156 1.878906 -1.660156 L 2.042969 -1.660156 L 2.042969 -1.734375 C 2.042969 -1.898438 1.988281 -2.023438 1.871094 -2.109375 C 1.757812 -2.191406 1.609375 -2.234375 1.433594 -2.234375 C 1.292969 -2.234375 1.160156 -2.207031 1.039062 -2.160156 C 0.917969 -2.109375 0.8125 -2.039062 0.722656 -1.957031 L 0.371094 -2.304688 C 0.519531 -2.457031 0.695312 -2.566406 0.890625 -2.632812 C 1.089844 -2.699219 1.292969 -2.734375 1.503906 -2.734375 C 1.695312 -2.734375 1.855469 -2.710938 1.984375 -2.667969 C 2.113281 -2.625 2.21875 -2.574219 2.304688 -2.503906 C 2.390625 -2.4375 2.457031 -2.363281 2.503906 -2.273438 C 2.550781 -2.1875 2.582031 -2.101562 2.601562 -2.011719 C 2.621094 -1.921875 2.636719 -1.835938 2.640625 -1.753906 C 2.644531 -1.667969 2.644531 -1.597656 2.644531 -1.535156 L 2.644531 0 L 2.042969 0 Z M 2.003906 -1.195312 L 1.867188 -1.195312 C 1.773438 -1.195312 1.671875 -1.191406 1.554688 -1.183594 C 1.441406 -1.175781 1.332031 -1.160156 1.230469 -1.128906 C 1.128906 -1.101562 1.042969 -1.0625 0.972656 -1.007812 C 0.902344 -0.953125 0.867188 -0.878906 0.867188 -0.785156 C 0.867188 -0.722656 0.878906 -0.667969 0.910156 -0.625 C 0.9375 -0.582031 0.972656 -0.546875 1.015625 -0.515625 C 1.0625 -0.488281 1.109375 -0.464844 1.167969 -0.453125 C 1.222656 -0.441406 1.277344 -0.433594 1.332031 -0.433594 C 1.5625 -0.433594 1.734375 -0.488281 1.839844 -0.597656 C 1.949219 -0.707031 2.003906 -0.855469 2.003906 -1.042969 Z "/>
</g>
<g id="glyph-0-2">
<path d="M 0.4375 -3.933594 L 1.988281 -3.933594 C 2.246094 -3.933594 2.5 -3.894531 2.738281 -3.8125 C 2.980469 -3.734375 3.191406 -3.613281 3.378906 -3.449219 C 3.5625 -3.285156 3.710938 -3.082031 3.824219 -2.835938 C 3.933594 -2.589844 3.988281 -2.300781 3.988281 -1.964844 C 3.988281 -1.628906 3.925781 -1.339844 3.796875 -1.089844 C 3.667969 -0.84375 3.503906 -0.640625 3.304688 -0.480469 C 3.101562 -0.320312 2.875 -0.199219 2.628906 -0.121094 C 2.382812 -0.0390625 2.144531 0 1.90625 0 L 0.4375 0 Z M 1.660156 -0.632812 C 1.878906 -0.632812 2.085938 -0.660156 2.28125 -0.707031 C 2.476562 -0.757812 2.644531 -0.835938 2.789062 -0.941406 C 2.933594 -1.046875 3.046875 -1.183594 3.128906 -1.351562 C 3.214844 -1.519531 3.253906 -1.726562 3.253906 -1.964844 C 3.253906 -2.203125 3.21875 -2.40625 3.144531 -2.578125 C 3.070312 -2.75 2.96875 -2.886719 2.835938 -2.992188 C 2.703125 -3.097656 2.550781 -3.175781 2.371094 -3.226562 C 2.191406 -3.277344 1.992188 -3.300781 1.777344 -3.300781 L 1.140625 -3.300781 L 1.140625 -0.632812 Z "/>
</g>
<g id="glyph-0-3">
<path d="M 1.710938 -3.933594 L 2.316406 -3.933594 L 4.011719 0 L 3.210938 0 L 2.84375 -0.898438 L 1.140625 -0.898438 L 0.785156 0 L 0 0 Z M 2.601562 -1.5 L 1.996094 -3.101562 L 1.378906 -1.5 Z "/>
</g>
<g id="glyph-0-4">
<rect x="0" y="0" width="0" height="0" mask="url(#mask-0)"/>
</g>
<g id="glyph-0-5">
<path d="M 2.199219 -1.867188 C 2.121094 -1.949219 2.039062 -2.011719 1.957031 -2.0625 C 1.871094 -2.109375 1.785156 -2.132812 1.695312 -2.132812 C 1.574219 -2.132812 1.464844 -2.109375 1.367188 -2.066406 C 1.269531 -2.023438 1.1875 -1.964844 1.121094 -1.890625 C 1.050781 -1.816406 1 -1.730469 0.964844 -1.632812 C 0.929688 -1.535156 0.910156 -1.4375 0.910156 -1.332031 C 0.910156 -1.230469 0.929688 -1.128906 0.964844 -1.035156 C 1 -0.9375 1.050781 -0.851562 1.121094 -0.777344 C 1.1875 -0.703125 1.269531 -0.644531 1.367188 -0.601562 C 1.464844 -0.554688 1.570312 -0.535156 1.695312 -0.535156 C 1.796875 -0.535156 1.894531 -0.554688 1.984375 -0.597656 C 2.074219 -0.640625 2.148438 -0.703125 2.210938 -0.785156 L 2.65625 -0.304688 C 2.589844 -0.238281 2.511719 -0.179688 2.425781 -0.132812 C 2.339844 -0.0859375 2.25 -0.046875 2.160156 -0.015625 C 2.070312 0.0117188 1.988281 0.0351562 1.90625 0.046875 C 1.824219 0.0585938 1.753906 0.0664062 1.695312 0.0664062 C 1.496094 0.0664062 1.304688 0.0351562 1.128906 -0.0351562 C 0.949219 -0.101562 0.796875 -0.195312 0.667969 -0.316406 C 0.539062 -0.4375 0.433594 -0.585938 0.359375 -0.757812 C 0.28125 -0.929688 0.246094 -1.121094 0.246094 -1.332031 C 0.246094 -1.542969 0.28125 -1.734375 0.359375 -1.910156 C 0.433594 -2.082031 0.535156 -2.226562 0.667969 -2.351562 C 0.796875 -2.472656 0.949219 -2.566406 1.128906 -2.632812 C 1.304688 -2.699219 1.496094 -2.734375 1.695312 -2.734375 C 1.863281 -2.734375 2.035156 -2.699219 2.207031 -2.636719 C 2.378906 -2.570312 2.53125 -2.46875 2.660156 -2.328125 Z "/>
</g>
<g id="glyph-0-6">
<path d="M 0.351562 -2.667969 L 0.984375 -2.667969 L 0.984375 -2.25 L 0.996094 -2.25 C 1.054688 -2.375 1.148438 -2.488281 1.28125 -2.585938 C 1.414062 -2.683594 1.589844 -2.734375 1.8125 -2.734375 C 2.230469 -2.734375 2.507812 -2.570312 2.644531 -2.238281 C 2.742188 -2.410156 2.859375 -2.535156 3.003906 -2.613281 C 3.148438 -2.691406 3.324219 -2.734375 3.523438 -2.734375 C 3.699219 -2.734375 3.851562 -2.703125 3.972656 -2.644531 C 4.09375 -2.585938 4.195312 -2.503906 4.269531 -2.398438 C 4.34375 -2.296875 4.398438 -2.175781 4.433594 -2.035156 C 4.46875 -1.898438 4.484375 -1.75 4.484375 -1.589844 L 4.484375 0 L 3.816406 0 L 3.816406 -1.511719 C 3.816406 -1.59375 3.808594 -1.671875 3.792969 -1.746094 C 3.777344 -1.824219 3.753906 -1.890625 3.714844 -1.945312 C 3.679688 -2.003906 3.628906 -2.050781 3.566406 -2.082031 C 3.503906 -2.117188 3.421875 -2.132812 3.324219 -2.132812 C 3.21875 -2.132812 3.128906 -2.113281 3.058594 -2.074219 C 2.984375 -2.035156 2.925781 -1.984375 2.878906 -1.917969 C 2.832031 -1.855469 2.800781 -1.78125 2.78125 -1.695312 C 2.761719 -1.613281 2.75 -1.53125 2.75 -1.445312 L 2.75 0 L 2.082031 0 L 2.082031 -1.589844 C 2.082031 -1.757812 2.046875 -1.886719 1.976562 -1.984375 C 1.90625 -2.082031 1.789062 -2.132812 1.628906 -2.132812 C 1.515625 -2.132812 1.421875 -2.113281 1.347656 -2.078125 C 1.269531 -2.039062 1.207031 -1.992188 1.160156 -1.929688 C 1.109375 -1.867188 1.070312 -1.792969 1.050781 -1.710938 C 1.027344 -1.628906 1.015625 -1.542969 1.015625 -1.457031 L 1.015625 0 L 0.351562 0 Z "/>
</g>
<g id="glyph-0-7">
<path d="M 1.054688 -2.667969 L 1.054688 0.160156 C 1.054688 0.328125 1.042969 0.480469 1.023438 0.625 C 1 0.769531 0.957031 0.890625 0.890625 0.996094 C 0.828125 1.101562 0.734375 1.183594 0.617188 1.246094 C 0.5 1.304688 0.34375 1.332031 0.15625 1.332031 C 0.09375 1.332031 0.03125 1.328125 -0.0273438 1.320312 C -0.0859375 1.3125 -0.144531 1.300781 -0.207031 1.285156 L -0.15625 0.707031 C -0.117188 0.714844 -0.0820312 0.71875 -0.0507812 0.726562 C -0.015625 0.730469 0.0195312 0.734375 0.0546875 0.734375 C 0.136719 0.734375 0.199219 0.714844 0.246094 0.679688 C 0.292969 0.644531 0.328125 0.601562 0.347656 0.542969 C 0.367188 0.488281 0.378906 0.429688 0.382812 0.359375 C 0.386719 0.292969 0.390625 0.230469 0.390625 0.167969 L 0.390625 -2.667969 Z M 0.292969 -3.574219 C 0.292969 -3.679688 0.335938 -3.773438 0.414062 -3.851562 C 0.492188 -3.933594 0.59375 -3.972656 0.714844 -3.972656 C 0.839844 -3.972656 0.941406 -3.933594 1.023438 -3.859375 C 1.109375 -3.78125 1.148438 -3.6875 1.148438 -3.574219 C 1.148438 -3.457031 1.109375 -3.363281 1.023438 -3.285156 C 0.941406 -3.210938 0.839844 -3.171875 0.714844 -3.171875 C 0.59375 -3.171875 0.492188 -3.210938 0.414062 -3.292969 C 0.335938 -3.371094 0.292969 -3.464844 0.292969 -3.574219 Z "/>
</g>
</g>
<image id="source-73" x="0" y="0" width="0" height="0"/>
<mask id="mask-0">
<use xlink:href="#source-73"/>
</mask>
</defs>
<g fill="rgb(20.392157%, 82.745098%, 60%)" fill-opacity="1">
<use xlink:href="#glyph-0-0" x="30" y="25.555664"/>
<use xlink:href="#glyph-0-0" x="33" y="25.555664"/>
<use xlink:href="#glyph-0-1" x="36" y="25.555664"/>
<use xlink:href="#glyph-0-2" x="39" y="25.555664"/>
<use xlink:href="#glyph-0-3" x="43" y="25.555664"/>
<use xlink:href="#glyph-0-4" x="47" y="25.555664"/>
<use xlink:href="#glyph-0-5" x="49" y="25.555664"/>
<use xlink:href="#glyph-0-6" x="52" y="25.555664"/>
<use xlink:href="#glyph-0-1" x="57" y="25.555664"/>
<use xlink:href="#glyph-0-7" x="60" y="25.555664"/>
</g>
</svg>
