<?xml version="1.0" encoding="UTF-8"?>
<svg xmlns="http://www.w3.org/2000/svg" xmlns:xlink="http://www.w3.org/1999/xlink" width="854" height="480" viewBox="0 0 854 480">
<defs>
<g>
<g id="glyph-0-0">
<path d="M 0.78125 0.605469 C 0.59375 0.351562 0.453125 0.0742188 0.359375 -0.226562 C 0.261719 -0.523438 0.214844 -0.820312 0.214844 -1.121094 C 0.214844 -1.441406 0.265625 -1.75 0.363281 -2.042969 C 0.464844 -2.335938 0.601562 -2.601562 0.78125 -2.847656 L 0.992188 -2.691406 C 0.824219 -2.464844 0.703125 -2.214844 0.617188 -1.949219 C 0.535156 -1.683594 0.492188 -1.40625 0.492188 -1.121094 C 0.492188 -0.964844 0.503906 -0.820312 0.523438 -0.683594 C 0.546875 -0.550781 0.578125 -0.417969 0.617188 -0.292969 C 0.660156 -0.167969 0.710938 -0.0429688 0.773438 0.078125 C 0.835938 0.199219 0.910156 0.328125 0.992188 0.457031 Z "/>
</g>
<g id="glyph-0-1">
<path d="M 2.242188 0 L 1.941406 0 L 1.421875 -1.398438 L 1.414062 -1.398438 L 0.957031 0 L 0.644531 0 L 0.0546875 -1.820312 L 0.390625 -1.820312 L 0.804688 -0.421875 L 0.8125 -0.421875 L 1.285156 -1.820312 L 1.601562 -1.820312 L 2.082031 -0.421875 L 2.089844 -0.421875 L 2.5 -1.820312 L 2.828125 -1.820312 Z "/>
</g>
<g id="glyph-0-2">
<path d="M 0.316406 -1.820312 L 0.617188 -1.820312 L 0.617188 0 L 0.316406 0 Z M 0.246094 -2.53125 C 0.246094 -2.589844 0.265625 -2.644531 0.308594 -2.6875 C 0.351562 -2.730469 0.40625 -2.753906 0.464844 -2.753906 C 0.527344 -2.753906 0.582031 -2.730469 0.625 -2.6875 C 0.667969 -2.644531 0.6875 -2.59375 0.6875 -2.53125 C 0.6875 -2.46875 0.667969 -2.414062 0.625 -2.371094 C 0.585938 -2.332031 0.53125 -2.308594 0.464844 -2.308594 C 0.402344 -2.308594 0.347656 -2.332031 0.308594 -2.371094 C 0.265625 -2.414062 0.246094 -2.46875 0.246094 -2.53125 Z "/>
</g>
<g id="glyph-0-3">
<path d="M 1.285156 -1.5625 L 0.746094 -1.5625 L 0.746094 -0.652344 C 0.746094 -0.59375 0.75 -0.539062 0.75 -0.488281 C 0.753906 -0.4375 0.761719 -0.394531 0.78125 -0.355469 C 0.800781 -0.316406 0.828125 -0.289062 0.863281 -0.265625 C 0.898438 -0.242188 0.953125 -0.234375 1.019531 -0.234375 C 1.0625 -0.234375 1.109375 -0.238281 1.15625 -0.25 C 1.203125 -0.257812 1.246094 -0.273438 1.289062 -0.296875 L 1.300781 -0.0195312 C 1.246094 0.00390625 1.191406 0.0195312 1.125 0.03125 C 1.0625 0.0429688 1.003906 0.046875 0.945312 0.046875 C 0.835938 0.046875 0.75 0.03125 0.683594 0.00390625 C 0.621094 -0.0234375 0.570312 -0.0664062 0.53125 -0.117188 C 0.496094 -0.167969 0.472656 -0.234375 0.460938 -0.308594 C 0.449219 -0.386719 0.445312 -0.46875 0.445312 -0.5625 L 0.445312 -1.5625 L 0.046875 -1.5625 L 0.046875 -1.820312 L 0.445312 -1.820312 L 0.445312 -2.335938 L 0.746094 -2.335938 L 0.746094 -1.820312 L 1.285156 -1.820312 Z "/>
</g>
<g id="glyph-0-4">
<path d="M 0.289062 -2.941406 L 0.589844 -2.941406 L 0.589844 -1.566406 L 0.597656 -1.566406 C 0.621094 -1.601562 0.648438 -1.640625 0.683594 -1.675781 C 0.71875 -1.710938 0.765625 -1.742188 0.816406 -1.769531 C 0.867188 -1.796875 0.921875 -1.820312 0.984375 -1.839844 C 1.046875 -1.859375 1.113281 -1.867188 1.183594 -1.867188 C 1.300781 -1.867188 1.40625 -1.847656 1.492188 -1.8125 C 1.578125 -1.777344 1.652344 -1.726562 1.707031 -1.660156 C 1.765625 -1.597656 1.808594 -1.519531 1.832031 -1.425781 C 1.859375 -1.332031 1.875 -1.234375 1.875 -1.125 L 1.875 0 L 1.570312 0 L 1.570312 -1.09375 C 1.570312 -1.246094 1.539062 -1.367188 1.46875 -1.453125 C 1.402344 -1.542969 1.296875 -1.585938 1.15625 -1.585938 C 1.058594 -1.585938 0.972656 -1.570312 0.902344 -1.535156 C 0.828125 -1.503906 0.769531 -1.453125 0.726562 -1.390625 C 0.679688 -1.328125 0.644531 -1.257812 0.625 -1.171875 C 0.601562 -1.085938 0.589844 -0.992188 0.589844 -0.886719 L 0.589844 0 L 0.289062 0 Z "/>
</g>
<g id="glyph-0-5">
<path d="M 0.289062 -1.386719 C 0.289062 -1.472656 0.285156 -1.550781 0.28125 -1.621094 C 0.273438 -1.695312 0.273438 -1.761719 0.273438 -1.820312 L 0.558594 -1.820312 C 0.558594 -1.769531 0.5625 -1.722656 0.5625 -1.671875 C 0.566406 -1.625 0.566406 -1.574219 0.566406 -1.519531 L 0.574219 -1.519531 C 0.597656 -1.566406 0.625 -1.609375 0.664062 -1.648438 C 0.699219 -1.691406 0.746094 -1.726562 0.796875 -1.761719 C 0.847656 -1.792969 0.90625 -1.820312 0.972656 -1.835938 C 1.039062 -1.855469 1.105469 -1.867188 1.183594 -1.867188 C 1.300781 -1.867188 1.40625 -1.847656 1.492188 -1.8125 C 1.578125 -1.777344 1.652344 -1.726562 1.707031 -1.660156 C 1.765625 -1.597656 1.808594 -1.519531 1.832031 -1.425781 C 1.859375 -1.332031 1.875 -1.234375 1.875 -1.125 L 1.875 0 L 1.570312 0 L 1.570312 -1.09375 C 1.570312 -1.246094 1.539062 -1.367188 1.46875 -1.453125 C 1.402344 -1.542969 1.296875 -1.585938 1.15625 -1.585938 C 1.058594 -1.585938 0.972656 -1.570312 0.902344 -1.535156 C 0.828125 -1.503906 0.769531 -1.453125 0.726562 -1.390625 C 0.679688 -1.328125 0.644531 -1.257812 0.625 -1.171875 C 0.601562 -1.085938 0.589844 -0.992188 0.589844 -0.886719 L 0.589844 0 L 0.289062 0 Z "/>
</g>
<g id="glyph-0-6">
<rect x="0" y="0" width="0" height="0" mask="url(#mask-0)"/>
</g>
<g id="glyph-0-7">
<path d="M 2.273438 -2.1875 C 2.1875 -2.296875 2.085938 -2.382812 1.964844 -2.4375 C 1.84375 -2.492188 1.714844 -2.519531 1.582031 -2.519531 C 1.429688 -2.519531 1.289062 -2.488281 1.160156 -2.425781 C 1.03125 -2.363281 0.921875 -2.28125 0.828125 -2.175781 C 0.734375 -2.070312 0.664062 -1.949219 0.609375 -1.8125 C 0.558594 -1.671875 0.53125 -1.527344 0.53125 -1.375 C 0.53125 -1.214844 0.558594 -1.066406 0.609375 -0.925781 C 0.660156 -0.789062 0.734375 -0.667969 0.828125 -0.566406 C 0.917969 -0.464844 1.027344 -0.382812 1.15625 -0.324219 C 1.285156 -0.261719 1.425781 -0.234375 1.582031 -0.234375 C 1.75 -0.234375 1.902344 -0.265625 2.035156 -0.332031 C 2.167969 -0.398438 2.28125 -0.492188 2.378906 -0.617188 L 2.625 -0.414062 C 2.5 -0.246094 2.351562 -0.125 2.175781 -0.046875 C 2 0.03125 1.804688 0.0703125 1.582031 0.0703125 C 1.386719 0.0703125 1.203125 0.0351562 1.03125 -0.0390625 C 0.859375 -0.113281 0.710938 -0.210938 0.585938 -0.339844 C 0.460938 -0.46875 0.359375 -0.621094 0.289062 -0.796875 C 0.21875 -0.972656 0.183594 -1.167969 0.183594 -1.375 C 0.183594 -1.578125 0.21875 -1.769531 0.285156 -1.945312 C 0.355469 -2.121094 0.453125 -2.273438 0.574219 -2.402344 C 0.699219 -2.53125 0.847656 -2.636719 1.019531 -2.710938 C 1.191406 -2.785156 1.378906 -2.824219 1.582031 -2.824219 C 1.769531 -2.824219 1.949219 -2.789062 2.121094 -2.722656 C 2.292969 -2.65625 2.4375 -2.546875 2.554688 -2.390625 Z "/>
</g>
<g id="glyph-0-8">
<path d="M 0.34375 -2.753906 L 0.667969 -2.753906 L 0.667969 0 L 0.34375 0 Z "/>
</g>
<g id="glyph-0-9">
<path d="M 0.300781 -2.847656 C 0.488281 -2.589844 0.628906 -2.3125 0.722656 -2.015625 C 0.820312 -1.71875 0.867188 -1.417969 0.867188 -1.121094 C 0.867188 -0.800781 0.816406 -0.492188 0.71875 -0.199219 C 0.617188 0.09375 0.476562 0.363281 0.300781 0.605469 L 0.0898438 0.453125 C 0.253906 0.222656 0.378906 -0.0234375 0.460938 -0.292969 C 0.546875 -0.558594 0.585938 -0.835938 0.585938 -1.121094 C 0.585938 -1.277344 0.578125 -1.421875 0.554688 -1.554688 C 0.535156 -1.691406 0.503906 -1.820312 0.460938 -1.945312 C 0.421875 -2.070312 0.371094 -2.195312 0.308594 -2.316406 C 0.246094 -2.441406 0.171875 -2.566406 0.0898438 -2.699219 Z "/>
</g>
</g>
<image id="source-86" x="0" y="0" width="0" height="0"/>
<mask id="mask-0">
<use xlink:href="#source-86"/>
</mask>
</defs>
<g fill="rgb(58.039216%, 63.921569%, 72.156863%)" fill-opacity="1">
<use xlink:href="#glyph-0-0" x="30" y="23.889648"/>
<use xlink:href="#glyph-0-1" x="31" y="23.889648"/>
<use xlink:href="#glyph-0-2" x="34" y="23.889648"/>
<use xlink:href="#glyph-0-3" x="35" y="23.889648"/>
<use xlink:href="#glyph-0-4" x="36" y="23.889648"/>
<use xlink:href="#glyph-0-2" x="38" y="23.889648"/>
<use xlink:href="#glyph-0-5" x="39" y="23.889648"/>
<use xlink:href="#glyph-0-6" x="41" y="23.889648"/>
<use xlink:href="#glyph-0-7" x="42" y="23.889648"/>
<use xlink:href="#glyph-0-8" x="45" y="23.889648"/>
<use xlink:href="#glyph-0-9" x="46" y="23.889648"/>
</g>
</svg>
