<?xml version="1.0" encoding="UTF-8"?>
<svg xmlns="http://www.w3.org/2000/svg" xmlns:xlink="http://www.w3.org/1999/xlink" width="854" height="480" viewBox="0 0 854 480">
<defs>
<g>
<g id="glyph-0-0">
<path d="M 2.105469 -2.800781 L 0.820312 -2.800781 L 0.808594 -1.949219 C 0.867188 -1.980469 0.933594 -2 1.007812 -2.011719 C 1.078125 -2.023438 1.148438 -2.027344 1.214844 -2.027344 C 1.363281 -2.027344 1.5 -2 1.625 -1.949219 C 1.746094 -1.898438 1.851562 -1.824219 1.941406 -1.730469 C 2.03125 -1.636719 2.097656 -1.527344 2.148438 -1.402344 C 2.195312 -1.277344 2.21875 -1.140625 2.21875 -0.992188 C 2.21875 -0.835938 2.191406 -0.691406 2.136719 -0.5625 C 2.082031 -0.433594 2.003906 -0.324219 1.910156 -0.234375 C 1.8125 -0.144531 1.699219 -0.0742188 1.566406 -0.0234375 C 1.433594 0.0273438 1.292969 0.0546875 1.136719 0.0546875 C 0.898438 0.0546875 0.703125 0 0.558594 -0.101562 C 0.410156 -0.207031 0.292969 -0.34375 0.207031 -0.519531 L 0.582031 -0.664062 C 0.636719 -0.542969 0.714844 -0.449219 0.816406 -0.375 C 0.917969 -0.304688 1.035156 -0.265625 1.167969 -0.265625 C 1.261719 -0.265625 1.351562 -0.285156 1.433594 -0.316406 C 1.515625 -0.351562 1.585938 -0.402344 1.648438 -0.464844 C 1.707031 -0.527344 1.753906 -0.605469 1.792969 -0.691406 C 1.828125 -0.78125 1.84375 -0.882812 1.84375 -0.992188 C 1.84375 -1.105469 1.824219 -1.207031 1.785156 -1.296875 C 1.746094 -1.386719 1.691406 -1.460938 1.621094 -1.523438 C 1.550781 -1.582031 1.46875 -1.628906 1.375 -1.660156 C 1.277344 -1.691406 1.175781 -1.707031 1.066406 -1.707031 C 0.960938 -1.707031 0.851562 -1.6875 0.738281 -1.652344 C 0.625 -1.613281 0.519531 -1.566406 0.425781 -1.511719 L 0.457031 -3.148438 L 2.105469 -3.148438 Z "/>
</g>
<g id="glyph-0-1">
<path d="M 0.292969 0.191406 L 0.0117188 0.078125 L 1.351562 -3.332031 L 1.632812 -3.226562 Z "/>
</g>
<g id="glyph-0-2">
<rect x="0" y="0" width="0" height="0" mask="url(#mask-0)"/>
</g>
<g id="glyph-0-3">
<path d="M 2.140625 -0.492188 C 2.140625 -0.398438 2.144531 -0.308594 2.152344 -0.226562 C 2.15625 -0.144531 2.160156 -0.0664062 2.160156 0 L 1.832031 0 C 1.832031 -0.0546875 1.828125 -0.113281 1.828125 -0.167969 C 1.824219 -0.226562 1.820312 -0.28125 1.820312 -0.34375 L 1.8125 -0.34375 C 1.789062 -0.292969 1.757812 -0.242188 1.714844 -0.195312 C 1.671875 -0.148438 1.621094 -0.105469 1.558594 -0.0703125 C 1.5 -0.03125 1.433594 -0.00390625 1.359375 0.0195312 C 1.285156 0.0429688 1.207031 0.0546875 1.121094 0.0546875 C 0.984375 0.0546875 0.867188 0.03125 0.765625 -0.0078125 C 0.667969 -0.0507812 0.585938 -0.109375 0.519531 -0.183594 C 0.453125 -0.257812 0.40625 -0.347656 0.375 -0.449219 C 0.34375 -0.554688 0.328125 -0.671875 0.328125 -0.796875 L 0.328125 -2.078125 L 0.675781 -2.078125 L 0.675781 -0.832031 C 0.675781 -0.65625 0.714844 -0.519531 0.792969 -0.417969 C 0.867188 -0.316406 0.988281 -0.265625 1.152344 -0.265625 C 1.265625 -0.265625 1.359375 -0.285156 1.441406 -0.324219 C 1.523438 -0.363281 1.589844 -0.417969 1.640625 -0.488281 C 1.695312 -0.558594 1.734375 -0.644531 1.757812 -0.742188 C 1.78125 -0.839844 1.796875 -0.949219 1.796875 -1.066406 L 1.796875 -2.078125 L 2.140625 -2.078125 Z "/>
</g>
<g id="glyph-0-4">
<path d="M 0.328125 -1.585938 C 0.328125 -1.679688 0.324219 -1.769531 0.320312 -1.851562 C 0.3125 -1.9375 0.3125 -2.011719 0.3125 -2.078125 L 0.640625 -2.078125 C 0.640625 -2.023438 0.640625 -1.96875 0.644531 -1.910156 C 0.648438 -1.855469 0.648438 -1.796875 0.648438 -1.738281 L 0.65625 -1.738281 C 0.679688 -1.789062 0.714844 -1.835938 0.757812 -1.882812 C 0.800781 -1.929688 0.851562 -1.972656 0.910156 -2.011719 C 0.96875 -2.046875 1.035156 -2.078125 1.109375 -2.101562 C 1.183594 -2.121094 1.265625 -2.132812 1.351562 -2.132812 C 1.488281 -2.132812 1.605469 -2.113281 1.703125 -2.070312 C 1.804688 -2.03125 1.886719 -1.972656 1.949219 -1.898438 C 2.015625 -1.824219 2.0625 -1.734375 2.09375 -1.628906 C 2.125 -1.523438 2.140625 -1.410156 2.140625 -1.285156 L 2.140625 0 L 1.796875 0 L 1.796875 -1.25 C 1.796875 -1.425781 1.757812 -1.5625 1.679688 -1.664062 C 1.601562 -1.761719 1.484375 -1.8125 1.320312 -1.8125 C 1.207031 -1.8125 1.109375 -1.792969 1.027344 -1.753906 C 0.945312 -1.714844 0.878906 -1.664062 0.828125 -1.589844 C 0.777344 -1.519531 0.738281 -1.433594 0.714844 -1.335938 C 0.6875 -1.238281 0.675781 -1.132812 0.675781 -1.011719 L 0.675781 0 L 0.328125 0 Z "/>
</g>
<g id="glyph-0-5">
<path d="M 0.359375 -2.078125 L 0.707031 -2.078125 L 0.707031 0 L 0.359375 0 Z M 0.28125 -2.894531 C 0.28125 -2.960938 0.304688 -3.019531 0.351562 -3.070312 C 0.402344 -3.121094 0.460938 -3.148438 0.535156 -3.148438 C 0.605469 -3.148438 0.664062 -3.121094 0.714844 -3.070312 C 0.761719 -3.019531 0.785156 -2.960938 0.785156 -2.894531 C 0.785156 -2.820312 0.761719 -2.757812 0.714844 -2.710938 C 0.667969 -2.664062 0.605469 -2.640625 0.535156 -2.640625 C 0.460938 -2.640625 0.398438 -2.664062 0.351562 -2.710938 C 0.304688 -2.757812 0.28125 -2.820312 0.28125 -2.894531 Z "/>
</g>
<g id="glyph-0-6">
<path d="M 2.40625 1.011719 L 2.058594 1.011719 L 2.058594 -0.300781 L 2.050781 -0.300781 C 1.953125 -0.1875 1.84375 -0.101562 1.71875 -0.0390625 C 1.59375 0.0234375 1.453125 0.0546875 1.300781 0.0546875 C 1.140625 0.0546875 0.992188 0.0273438 0.855469 -0.0273438 C 0.71875 -0.0820312 0.605469 -0.160156 0.511719 -0.257812 C 0.417969 -0.355469 0.34375 -0.472656 0.289062 -0.605469 C 0.234375 -0.738281 0.207031 -0.882812 0.207031 -1.039062 C 0.207031 -1.195312 0.234375 -1.335938 0.289062 -1.472656 C 0.34375 -1.605469 0.414062 -1.71875 0.507812 -1.816406 C 0.601562 -1.914062 0.710938 -1.992188 0.839844 -2.050781 C 0.96875 -2.105469 1.105469 -2.132812 1.25 -2.132812 C 1.4375 -2.132812 1.597656 -2.09375 1.738281 -2.011719 C 1.878906 -1.929688 1.984375 -1.828125 2.050781 -1.710938 L 2.058594 -1.710938 L 2.058594 -2.078125 L 2.40625 -2.078125 Z M 2.058594 -1.039062 C 2.058594 -1.148438 2.039062 -1.25 2.007812 -1.34375 C 1.972656 -1.4375 1.921875 -1.519531 1.859375 -1.589844 C 1.792969 -1.660156 1.714844 -1.714844 1.625 -1.753906 C 1.535156 -1.792969 1.433594 -1.8125 1.320312 -1.8125 C 1.207031 -1.8125 1.105469 -1.792969 1.015625 -1.753906 C 0.925781 -1.714844 0.847656 -1.660156 0.78125 -1.589844 C 0.714844 -1.519531 0.667969 -1.4375 0.632812 -1.34375 C 0.597656 -1.25 0.582031 -1.148438 0.582031 -1.039062 C 0.582031 -0.929688 0.597656 -0.828125 0.632812 -0.734375 C 0.667969 -0.640625 0.71875 -0.5625 0.78125 -0.492188 C 0.847656 -0.421875 0.925781 -0.367188 1.015625 -0.328125 C 1.105469 -0.289062 1.207031 -0.265625 1.320312 -0.265625 C 1.433594 -0.265625 1.535156 -0.285156 1.625 -0.328125 C 1.714844 -0.367188 1.792969 -0.421875 1.859375 -0.492188 C 1.921875 -0.5625 1.972656 -0.640625 2.007812 -0.734375 C 2.042969 -0.828125 2.058594 -0.929688 2.058594 -1.039062 Z "/>
</g>
<g id="glyph-0-7">
<path d="M 2.1875 -0.378906 C 2.0625 -0.21875 1.925781 -0.105469 1.777344 -0.0429688 C 1.628906 0.0195312 1.457031 0.0546875 1.261719 0.0546875 C 1.097656 0.0546875 0.953125 0.0234375 0.820312 -0.0351562 C 0.691406 -0.0898438 0.582031 -0.167969 0.492188 -0.265625 C 0.402344 -0.363281 0.332031 -0.480469 0.28125 -0.613281 C 0.234375 -0.746094 0.207031 -0.890625 0.207031 -1.039062 C 0.207031 -1.199219 0.234375 -1.347656 0.289062 -1.480469 C 0.34375 -1.617188 0.417969 -1.734375 0.511719 -1.828125 C 0.605469 -1.925781 0.71875 -2 0.847656 -2.054688 C 0.980469 -2.105469 1.121094 -2.132812 1.277344 -2.132812 C 1.421875 -2.132812 1.554688 -2.109375 1.675781 -2.058594 C 1.796875 -2.011719 1.902344 -1.941406 1.988281 -1.847656 C 2.074219 -1.753906 2.144531 -1.640625 2.191406 -1.503906 C 2.238281 -1.371094 2.261719 -1.214844 2.261719 -1.042969 L 2.261719 -0.933594 L 0.582031 -0.933594 C 0.589844 -0.84375 0.609375 -0.757812 0.648438 -0.679688 C 0.683594 -0.597656 0.730469 -0.523438 0.792969 -0.464844 C 0.851562 -0.402344 0.921875 -0.355469 1 -0.320312 C 1.078125 -0.285156 1.167969 -0.265625 1.261719 -0.265625 C 1.414062 -0.265625 1.539062 -0.292969 1.644531 -0.347656 C 1.75 -0.398438 1.839844 -0.476562 1.925781 -0.582031 Z M 1.890625 -1.226562 C 1.882812 -1.40625 1.824219 -1.546875 1.714844 -1.652344 C 1.605469 -1.757812 1.453125 -1.8125 1.261719 -1.8125 C 1.070312 -1.8125 0.914062 -1.761719 0.796875 -1.652344 C 0.675781 -1.546875 0.605469 -1.40625 0.582031 -1.226562 Z "/>
</g>
</g>
<image id="source-127" x="0" y="0" width="0" height="0"/>
<mask id="mask-0">
<use xlink:href="#source-127"/>
</mask>
</defs>
<g fill="rgb(58.039216%, 63.921569%, 72.156863%)" fill-opacity="1">
<use xlink:href="#glyph-0-0" x="30" y="24.444336"/>
<use xlink:href="#glyph-0-1" x="32" y="24.444336"/>
<use xlink:href="#glyph-0-0" x="34" y="24.444336"/>
<use xlink:href="#glyph-0-2" x="36" y="24.444336"/>
<use xlink:href="#glyph-0-3" x="37" y="24.444336"/>
<use xlink:href="#glyph-0-4" x="39" y="24.444336"/>
<use xlink:href="#glyph-0-5" x="41" y="24.444336"/>
<use xlink:href="#glyph-0-6" x="42" y="24.444336"/>
<use xlink:href="#glyph-0-3" x="45" y="24.444336"/>
<use xlink:href="#glyph-0-7" x="47" y="24.444336"/>
</g>
</svg>
