<?xml version="1.0" encoding="UTF-8"?>
<svg xmlns="http://www.w3.org/2000/svg" xmlns:xlink="http://www.w3.org/1999/xlink" width="854" height="480" viewBox="0 0 854 480">
<defs>
<g>
<g id="glyph-0-0">
<path d="M 0.164062 -2.753906 L 2.035156 -2.753906 L 2.035156 -2.324219 L 0.933594 0 L 0.386719 0 L 1.507812 -2.308594 L 0.164062 -2.308594 Z "/>
</g>
<g id="glyph-0-1">
<path d="M 0.863281 -1.644531 L 0.984375 -1.644531 C 1.050781 -1.644531 1.117188 -1.648438 1.179688 -1.65625 C 1.242188 -1.664062 1.300781 -1.679688 1.351562 -1.707031 C 1.402344 -1.734375 1.441406 -1.769531 1.472656 -1.820312 C 1.503906 -1.871094 1.519531 -1.9375 1.519531 -2.019531 C 1.519531 -2.125 1.484375 -2.210938 1.410156 -2.28125 C 1.339844 -2.347656 1.246094 -2.378906 1.128906 -2.378906 C 1.035156 -2.378906 0.949219 -2.355469 0.878906 -2.300781 C 0.804688 -2.246094 0.75 -2.171875 0.714844 -2.078125 L 0.222656 -2.210938 C 0.253906 -2.3125 0.296875 -2.398438 0.355469 -2.472656 C 0.410156 -2.546875 0.476562 -2.609375 0.554688 -2.660156 C 0.632812 -2.707031 0.71875 -2.742188 0.8125 -2.765625 C 0.90625 -2.789062 1.003906 -2.800781 1.105469 -2.800781 C 1.222656 -2.800781 1.335938 -2.785156 1.441406 -2.753906 C 1.546875 -2.722656 1.644531 -2.675781 1.722656 -2.617188 C 1.804688 -2.554688 1.867188 -2.476562 1.914062 -2.386719 C 1.964844 -2.292969 1.988281 -2.1875 1.988281 -2.066406 C 1.988281 -1.917969 1.945312 -1.785156 1.863281 -1.671875 C 1.78125 -1.554688 1.664062 -1.480469 1.515625 -1.441406 L 1.515625 -1.433594 C 1.691406 -1.410156 1.828125 -1.335938 1.917969 -1.210938 C 2.007812 -1.085938 2.054688 -0.9375 2.054688 -0.765625 C 2.054688 -0.632812 2.027344 -0.515625 1.976562 -0.417969 C 1.925781 -0.316406 1.859375 -0.230469 1.773438 -0.160156 C 1.6875 -0.09375 1.589844 -0.0390625 1.476562 -0.00390625 C 1.363281 0.03125 1.246094 0.046875 1.125 0.046875 C 1.011719 0.046875 0.902344 0.0351562 0.800781 0.0078125 C 0.699219 -0.015625 0.609375 -0.0546875 0.527344 -0.105469 C 0.445312 -0.15625 0.375 -0.222656 0.316406 -0.304688 C 0.257812 -0.386719 0.210938 -0.484375 0.179688 -0.597656 L 0.675781 -0.730469 C 0.703125 -0.617188 0.757812 -0.527344 0.828125 -0.464844 C 0.902344 -0.402344 1 -0.375 1.125 -0.375 C 1.1875 -0.375 1.246094 -0.382812 1.300781 -0.40625 C 1.355469 -0.425781 1.40625 -0.453125 1.449219 -0.492188 C 1.492188 -0.53125 1.523438 -0.574219 1.550781 -0.628906 C 1.574219 -0.679688 1.585938 -0.742188 1.585938 -0.804688 C 1.585938 -0.894531 1.566406 -0.964844 1.53125 -1.019531 C 1.492188 -1.078125 1.445312 -1.121094 1.386719 -1.148438 C 1.328125 -1.179688 1.261719 -1.199219 1.191406 -1.210938 C 1.117188 -1.21875 1.046875 -1.226562 0.976562 -1.226562 L 0.863281 -1.226562 Z "/>
</g>
</g>
</defs>
<g fill="rgb(20.392157%, 82.745098%, 60%)" fill-opacity="1">
<use xlink:href="#glyph-0-0" x="30" y="23.889648"/>
<use xlink:href="#glyph-0-1" x="32" y="23.889648"/>
</g>
</svg>
