<?xml version="1.0" encoding="UTF-8"?>
<svg xmlns="http://www.w3.org/2000/svg" xmlns:xlink="http://www.w3.org/1999/xlink" width="854" height="480" viewBox="0 0 854 480">
<defs>
<g>
<g id="glyph-0-0">
<path d="M 1.304688 -0.558594 L 0.132812 -0.558594 L 0.132812 -1.023438 L 1.242188 -2.753906 L 1.769531 -2.753906 L 1.769531 -0.980469 L 2.171875 -0.980469 L 2.171875 -0.558594 L 1.769531 -0.558594 L 1.769531 0 L 1.304688 0 Z M 1.304688 -2.09375 L 1.296875 -2.09375 L 0.605469 -0.980469 L 1.304688 -0.980469 Z "/>
</g>
<g id="glyph-0-1">
<path d="M 0.164062 -2.753906 L 2.035156 -2.753906 L 2.035156 -2.324219 L 0.933594 0 L 0.386719 0 L 1.507812 -2.308594 L 0.164062 -2.308594 Z "/>
</g>
<g id="glyph-0-2">
<path d="M 0.265625 -0.273438 C 0.265625 -0.355469 0.296875 -0.425781 0.355469 -0.484375 C 0.417969 -0.546875 0.488281 -0.574219 0.574219 -0.574219 C 0.65625 -0.574219 0.730469 -0.546875 0.792969 -0.488281 C 0.855469 -0.433594 0.886719 -0.363281 0.886719 -0.28125 C 0.886719 -0.199219 0.855469 -0.125 0.796875 -0.0664062 C 0.734375 -0.0078125 0.660156 0.0234375 0.574219 0.0234375 C 0.535156 0.0234375 0.496094 0.015625 0.457031 0 C 0.417969 -0.015625 0.386719 -0.0351562 0.359375 -0.0625 C 0.328125 -0.0898438 0.304688 -0.121094 0.289062 -0.15625 C 0.273438 -0.191406 0.265625 -0.230469 0.265625 -0.273438 Z "/>
</g>
<g id="glyph-0-3">
<path d="M 1.964844 -2.332031 L 0.855469 -2.332031 L 0.84375 -1.785156 C 0.878906 -1.796875 0.925781 -1.808594 0.980469 -1.8125 C 1.039062 -1.816406 1.089844 -1.820312 1.140625 -1.820312 C 1.273438 -1.820312 1.398438 -1.800781 1.511719 -1.757812 C 1.625 -1.714844 1.71875 -1.652344 1.800781 -1.570312 C 1.882812 -1.492188 1.945312 -1.394531 1.988281 -1.285156 C 2.035156 -1.171875 2.058594 -1.046875 2.058594 -0.90625 C 2.058594 -0.757812 2.03125 -0.625 1.980469 -0.507812 C 1.929688 -0.390625 1.859375 -0.289062 1.773438 -0.207031 C 1.683594 -0.125 1.578125 -0.0625 1.453125 -0.0195312 C 1.332031 0.0234375 1.203125 0.046875 1.0625 0.046875 C 0.839844 0.046875 0.652344 -0.00390625 0.5 -0.109375 C 0.34375 -0.210938 0.234375 -0.371094 0.171875 -0.582031 L 0.660156 -0.714844 C 0.691406 -0.617188 0.746094 -0.539062 0.820312 -0.480469 C 0.894531 -0.425781 0.992188 -0.398438 1.113281 -0.398438 C 1.183594 -0.398438 1.246094 -0.410156 1.304688 -0.433594 C 1.363281 -0.457031 1.414062 -0.488281 1.457031 -0.53125 C 1.5 -0.574219 1.53125 -0.625 1.554688 -0.679688 C 1.578125 -0.738281 1.589844 -0.800781 1.589844 -0.867188 C 1.589844 -0.964844 1.574219 -1.046875 1.539062 -1.113281 C 1.503906 -1.179688 1.457031 -1.234375 1.394531 -1.277344 C 1.335938 -1.320312 1.269531 -1.351562 1.191406 -1.371094 C 1.113281 -1.390625 1.03125 -1.398438 0.945312 -1.398438 C 0.84375 -1.398438 0.742188 -1.386719 0.644531 -1.367188 C 0.542969 -1.34375 0.453125 -1.308594 0.371094 -1.269531 L 0.398438 -2.753906 L 1.964844 -2.753906 Z "/>
</g>
</g>
</defs>
<g fill="rgb(20.392157%, 82.745098%, 60%)" fill-opacity="1">
<use xlink:href="#glyph-0-0" x="30" y="23.889648"/>
<use xlink:href="#glyph-0-1" x="32" y="23.889648"/>
<use xlink:href="#glyph-0-2" x="34" y="23.889648"/>
<use xlink:href="#glyph-0-3" x="35" y="23.889648"/>
</g>
</svg>
