<?xml version="1.0" encoding="UTF-8"?>
<svg xmlns="http://www.w3.org/2000/svg" xmlns:xlink="http://www.w3.org/1999/xlink" width="854" height="480" viewBox="0 0 854 480">
<defs>
<g>
<g id="glyph-0-0">
<path d="M 5.898438 -0.433594 C 5.171875 -0.0429688 4.359375 0.148438 3.457031 0.148438 C 3.003906 0.148438 2.585938 0.078125 2.203125 -0.0703125 C 1.824219 -0.21875 1.496094 -0.425781 1.222656 -0.695312 C 0.945312 -0.964844 0.730469 -1.289062 0.574219 -1.667969 C 0.417969 -2.042969 0.339844 -2.464844 0.339844 -2.925781 C 0.339844 -3.398438 0.417969 -3.828125 0.574219 -4.210938 C 0.730469 -4.597656 0.945312 -4.925781 1.222656 -5.199219 C 1.496094 -5.472656 1.824219 -5.683594 2.203125 -5.828125 C 2.585938 -5.976562 3.003906 -6.050781 3.457031 -6.050781 C 3.90625 -6.050781 4.332031 -5.996094 4.726562 -5.886719 C 5.121094 -5.777344 5.472656 -5.585938 5.78125 -5.308594 L 5.007812 -4.523438 C 4.820312 -4.707031 4.589844 -4.851562 4.320312 -4.949219 C 4.050781 -5.050781 3.765625 -5.101562 3.464844 -5.101562 C 3.160156 -5.101562 2.882812 -5.046875 2.636719 -4.9375 C 2.390625 -4.828125 2.175781 -4.679688 2 -4.488281 C 1.820312 -4.296875 1.683594 -4.070312 1.585938 -3.816406 C 1.488281 -3.5625 1.441406 -3.285156 1.441406 -2.992188 C 1.441406 -2.675781 1.488281 -2.382812 1.585938 -2.117188 C 1.683594 -1.851562 1.820312 -1.621094 2 -1.425781 C 2.175781 -1.230469 2.390625 -1.078125 2.636719 -0.964844 C 2.882812 -0.855469 3.160156 -0.800781 3.464844 -0.800781 C 3.734375 -0.800781 3.984375 -0.824219 4.21875 -0.875 C 4.457031 -0.925781 4.667969 -1.003906 4.851562 -1.109375 L 4.851562 -2.5 L 3.640625 -2.5 L 3.640625 -3.449219 L 5.898438 -3.449219 Z "/>
</g>
<g id="glyph-0-1">
<path d="M 3.550781 -4.632812 C 3.4375 -4.792969 3.289062 -4.914062 3.105469 -4.988281 C 2.917969 -5.0625 2.722656 -5.101562 2.515625 -5.101562 C 2.394531 -5.101562 2.277344 -5.085938 2.164062 -5.058594 C 2.050781 -5.03125 1.945312 -4.984375 1.855469 -4.925781 C 1.761719 -4.863281 1.6875 -4.785156 1.632812 -4.6875 C 1.578125 -4.589844 1.550781 -4.476562 1.550781 -4.339844 C 1.550781 -4.140625 1.621094 -3.988281 1.757812 -3.882812 C 1.898438 -3.777344 2.070312 -3.6875 2.273438 -3.609375 C 2.480469 -3.53125 2.707031 -3.457031 2.949219 -3.382812 C 3.195312 -3.3125 3.417969 -3.210938 3.625 -3.082031 C 3.832031 -2.953125 4.003906 -2.785156 4.140625 -2.574219 C 4.28125 -2.363281 4.351562 -2.082031 4.351562 -1.734375 C 4.351562 -1.417969 4.292969 -1.140625 4.175781 -0.902344 C 4.058594 -0.667969 3.902344 -0.472656 3.703125 -0.316406 C 3.507812 -0.160156 3.277344 -0.0429688 3.015625 0.0351562 C 2.753906 0.113281 2.480469 0.148438 2.191406 0.148438 C 1.824219 0.148438 1.472656 0.0898438 1.132812 -0.0351562 C 0.792969 -0.15625 0.503906 -0.359375 0.257812 -0.648438 L 1.050781 -1.417969 C 1.179688 -1.222656 1.347656 -1.070312 1.554688 -0.960938 C 1.761719 -0.855469 1.984375 -0.800781 2.214844 -0.800781 C 2.339844 -0.800781 2.460938 -0.816406 2.582031 -0.851562 C 2.703125 -0.882812 2.816406 -0.933594 2.917969 -1 C 3.015625 -1.066406 3.097656 -1.152344 3.160156 -1.253906 C 3.21875 -1.355469 3.25 -1.476562 3.25 -1.609375 C 3.25 -1.824219 3.179688 -1.992188 3.042969 -2.109375 C 2.902344 -2.226562 2.730469 -2.324219 2.523438 -2.402344 C 2.320312 -2.484375 2.09375 -2.5625 1.851562 -2.632812 C 1.605469 -2.707031 1.378906 -2.804688 1.175781 -2.929688 C 0.96875 -3.054688 0.796875 -3.222656 0.660156 -3.429688 C 0.519531 -3.636719 0.449219 -3.917969 0.449219 -4.265625 C 0.449219 -4.570312 0.511719 -4.835938 0.636719 -5.058594 C 0.761719 -5.28125 0.925781 -5.464844 1.128906 -5.613281 C 1.332031 -5.761719 1.5625 -5.871094 1.824219 -5.941406 C 2.085938 -6.011719 2.351562 -6.050781 2.625 -6.050781 C 2.9375 -6.050781 3.238281 -6.003906 3.527344 -5.90625 C 3.820312 -5.8125 4.082031 -5.65625 4.316406 -5.441406 Z "/>
</g>
<g id="glyph-0-2">
<path d="M 0.683594 -5.898438 L 2.285156 -5.898438 L 3.859375 -1.765625 L 5.449219 -5.898438 L 7.03125 -5.898438 L 7.03125 0 L 6.03125 0 L 6.03125 -4.898438 L 6.015625 -4.898438 L 4.226562 0 L 3.492188 0 L 1.699219 -4.898438 L 1.683594 -4.898438 L 1.683594 0 L 0.683594 0 Z "/>
</g>
<g id="glyph-0-3">
<path d="M 2.464844 -6 C 2.714844 -6 2.953125 -5.964844 3.171875 -5.894531 C 3.390625 -5.824219 3.582031 -5.726562 3.746094 -5.59375 C 3.910156 -5.464844 4.039062 -5.304688 4.132812 -5.113281 C 4.226562 -4.921875 4.273438 -4.699219 4.273438 -4.449219 C 4.273438 -4.132812 4.203125 -3.855469 4.054688 -3.617188 C 3.90625 -3.378906 3.683594 -3.214844 3.382812 -3.125 L 3.382812 -3.109375 C 3.523438 -3.082031 3.65625 -3.023438 3.789062 -2.9375 C 3.917969 -2.851562 4.03125 -2.746094 4.132812 -2.621094 C 4.234375 -2.496094 4.3125 -2.351562 4.371094 -2.191406 C 4.429688 -2.03125 4.457031 -1.859375 4.457031 -1.675781 C 4.457031 -1.378906 4.40625 -1.125 4.300781 -0.902344 C 4.195312 -0.683594 4.050781 -0.5 3.875 -0.351562 C 3.695312 -0.199219 3.484375 -0.0859375 3.242188 -0.0117188 C 2.996094 0.0625 2.738281 0.101562 2.464844 0.101562 C 2.1875 0.101562 1.929688 0.0625 1.6875 -0.0117188 C 1.445312 -0.0859375 1.234375 -0.199219 1.058594 -0.351562 C 0.878906 -0.5 0.738281 -0.683594 0.632812 -0.902344 C 0.527344 -1.121094 0.476562 -1.378906 0.476562 -1.675781 C 0.476562 -1.859375 0.503906 -2.03125 0.5625 -2.191406 C 0.621094 -2.351562 0.699219 -2.496094 0.800781 -2.621094 C 0.898438 -2.746094 1.015625 -2.851562 1.144531 -2.9375 C 1.277344 -3.023438 1.410156 -3.082031 1.550781 -3.109375 L 1.550781 -3.125 C 1.25 -3.214844 1.027344 -3.378906 0.878906 -3.617188 C 0.730469 -3.855469 0.660156 -4.132812 0.660156 -4.449219 C 0.660156 -4.699219 0.707031 -4.921875 0.800781 -5.113281 C 0.894531 -5.304688 1.023438 -5.464844 1.1875 -5.59375 C 1.351562 -5.726562 1.542969 -5.824219 1.761719 -5.894531 C 1.980469 -5.964844 2.214844 -6 2.464844 -6 Z M 2.464844 -5.148438 C 2.210938 -5.148438 2.011719 -5.070312 1.871094 -4.917969 C 1.730469 -4.761719 1.660156 -4.570312 1.660156 -4.351562 C 1.660156 -4.117188 1.730469 -3.921875 1.875 -3.761719 C 2.019531 -3.605469 2.214844 -3.523438 2.464844 -3.523438 C 2.578125 -3.523438 2.683594 -3.546875 2.777344 -3.585938 C 2.875 -3.628906 2.960938 -3.6875 3.039062 -3.761719 C 3.113281 -3.835938 3.171875 -3.925781 3.210938 -4.023438 C 3.253906 -4.125 3.273438 -4.234375 3.273438 -4.351562 C 3.273438 -4.574219 3.199219 -4.761719 3.046875 -4.917969 C 2.894531 -5.074219 2.699219 -5.148438 2.464844 -5.148438 Z M 2.464844 -2.726562 C 2.332031 -2.726562 2.207031 -2.703125 2.082031 -2.660156 C 1.960938 -2.613281 1.855469 -2.550781 1.765625 -2.464844 C 1.675781 -2.382812 1.605469 -2.285156 1.554688 -2.171875 C 1.5 -2.058594 1.476562 -1.933594 1.476562 -1.800781 C 1.476562 -1.515625 1.566406 -1.289062 1.753906 -1.113281 C 1.941406 -0.9375 2.175781 -0.851562 2.464844 -0.851562 C 2.753906 -0.851562 2.992188 -0.9375 3.179688 -1.113281 C 3.367188 -1.289062 3.457031 -1.515625 3.457031 -1.800781 C 3.457031 -1.933594 3.433594 -2.058594 3.378906 -2.171875 C 3.328125 -2.285156 3.253906 -2.382812 3.167969 -2.464844 C 3.078125 -2.550781 2.972656 -2.613281 2.851562 -2.660156 C 2.726562 -2.703125 2.601562 -2.726562 2.464844 -2.726562 Z "/>
</g>
<g id="glyph-0-4">
<path d="M 0.660156 -5.898438 L 1.707031 -5.898438 L 1.707031 -3.398438 L 1.757812 -3.398438 L 4.199219 -5.898438 L 5.617188 -5.898438 L 2.859375 -3.175781 L 5.800781 0 L 4.324219 0 L 1.765625 -2.898438 L 1.707031 -2.898438 L 1.707031 0 L 0.660156 0 Z "/>
</g>
<g id="glyph-0-5">
<path d="M 0.898438 -1.148438 L 1.917969 -1.148438 L 1.207031 1.050781 L 0.316406 1.050781 Z "/>
</g>
<g id="glyph-0-6">
<rect x="0" y="0" width="0" height="0" mask="url(#mask-0)"/>
</g>
<g id="glyph-0-7">
<path d="M 0.660156 -5.898438 L 2.050781 -5.898438 L 4.90625 -1.515625 L 4.925781 -1.515625 L 4.925781 -5.898438 L 5.976562 -5.898438 L 5.976562 0 L 4.640625 0 L 1.726562 -4.523438 L 1.707031 -4.523438 L 1.707031 0 L 0.660156 0 Z "/>
</g>
<g id="glyph-0-8">
<path d="M 5.03125 -3.699219 L 5.03125 -2.851562 L 0.515625 -2.851562 L 0.515625 -3.699219 Z M 5.03125 -2.199219 L 5.03125 -1.351562 L 0.515625 -1.351562 L 0.515625 -2.199219 Z "/>
</g>
<g id="glyph-0-9">
<path d="M 0.492188 -1.058594 L 2.785156 -3.273438 C 2.851562 -3.339844 2.917969 -3.414062 2.992188 -3.488281 C 3.0625 -3.5625 3.128906 -3.640625 3.1875 -3.726562 C 3.246094 -3.808594 3.292969 -3.894531 3.332031 -3.988281 C 3.371094 -4.078125 3.390625 -4.175781 3.390625 -4.273438 C 3.390625 -4.398438 3.367188 -4.503906 3.320312 -4.601562 C 3.273438 -4.695312 3.210938 -4.773438 3.132812 -4.839844 C 3.054688 -4.90625 2.964844 -4.960938 2.863281 -4.996094 C 2.761719 -5.03125 2.648438 -5.050781 2.535156 -5.050781 C 2.285156 -5.050781 2.078125 -4.976562 1.917969 -4.832031 C 1.757812 -4.6875 1.660156 -4.496094 1.625 -4.25 L 0.574219 -4.332031 C 0.597656 -4.605469 0.664062 -4.84375 0.769531 -5.054688 C 0.878906 -5.261719 1.019531 -5.4375 1.191406 -5.574219 C 1.363281 -5.714844 1.5625 -5.820312 1.792969 -5.890625 C 2.019531 -5.964844 2.265625 -6 2.535156 -6 C 2.800781 -6 3.046875 -5.964844 3.277344 -5.894531 C 3.507812 -5.824219 3.710938 -5.722656 3.882812 -5.585938 C 4.054688 -5.449219 4.191406 -5.277344 4.292969 -5.066406 C 4.390625 -4.855469 4.441406 -4.609375 4.441406 -4.324219 C 4.441406 -3.953125 4.355469 -3.632812 4.1875 -3.363281 C 4.019531 -3.09375 3.800781 -2.835938 3.53125 -2.589844 L 1.707031 -0.898438 L 4.441406 -0.898438 L 4.441406 0 L 0.492188 0 Z "/>
</g>
<g id="glyph-0-10">
<path d="M 0.332031 -2.949219 C 0.332031 -3.417969 0.371094 -3.816406 0.445312 -4.144531 C 0.519531 -4.476562 0.621094 -4.753906 0.742188 -4.980469 C 0.863281 -5.203125 1 -5.382812 1.152344 -5.519531 C 1.304688 -5.65625 1.460938 -5.757812 1.621094 -5.828125 C 1.777344 -5.898438 1.933594 -5.945312 2.078125 -5.964844 C 2.226562 -5.988281 2.355469 -6 2.464844 -6 C 2.578125 -6 2.707031 -5.988281 2.855469 -5.964844 C 3 -5.945312 3.152344 -5.898438 3.3125 -5.828125 C 3.472656 -5.757812 3.625 -5.65625 3.777344 -5.519531 C 3.929688 -5.382812 4.070312 -5.203125 4.191406 -4.980469 C 4.3125 -4.753906 4.414062 -4.476562 4.488281 -4.144531 C 4.5625 -3.816406 4.601562 -3.417969 4.601562 -2.949219 C 4.601562 -2.484375 4.5625 -2.085938 4.488281 -1.753906 C 4.414062 -1.421875 4.3125 -1.144531 4.191406 -0.921875 C 4.070312 -0.695312 3.933594 -0.515625 3.777344 -0.378906 C 3.625 -0.242188 3.46875 -0.140625 3.3125 -0.0703125 C 3.152344 0 3 0.0429688 2.855469 0.0664062 C 2.707031 0.0898438 2.578125 0.101562 2.464844 0.101562 C 2.355469 0.101562 2.226562 0.0898438 2.078125 0.0664062 C 1.929688 0.0429688 1.777344 0 1.621094 -0.0703125 C 1.460938 -0.140625 1.308594 -0.242188 1.152344 -0.378906 C 1 -0.515625 0.863281 -0.695312 0.742188 -0.921875 C 0.621094 -1.144531 0.519531 -1.421875 0.445312 -1.753906 C 0.371094 -2.085938 0.332031 -2.484375 0.332031 -2.949219 Z M 1.332031 -2.949219 C 1.332031 -2.765625 1.347656 -2.554688 1.371094 -2.3125 C 1.394531 -2.070312 1.445312 -1.839844 1.523438 -1.625 C 1.601562 -1.410156 1.714844 -1.226562 1.867188 -1.074219 C 2.015625 -0.925781 2.214844 -0.851562 2.464844 -0.851562 C 2.714844 -0.851562 2.917969 -0.925781 3.066406 -1.074219 C 3.214844 -1.226562 3.332031 -1.410156 3.40625 -1.625 C 3.484375 -1.839844 3.539062 -2.070312 3.5625 -2.3125 C 3.585938 -2.554688 3.601562 -2.765625 3.601562 -2.949219 C 3.601562 -3.132812 3.585938 -3.34375 3.5625 -3.585938 C 3.539062 -3.828125 3.484375 -4.058594 3.40625 -4.273438 C 3.328125 -4.492188 3.214844 -4.675781 3.066406 -4.824219 C 2.917969 -4.972656 2.714844 -5.050781 2.464844 -5.050781 C 2.214844 -5.050781 2.015625 -4.976562 1.867188 -4.824219 C 1.71875 -4.675781 1.601562 -4.492188 1.523438 -4.273438 C 1.445312 -4.058594 1.394531 -3.828125 1.371094 -3.585938 C 1.347656 -3.34375 1.332031 -3.132812 1.332031 -2.949219 Z "/>
</g>
<g id="glyph-0-11">
<path d="M 0.566406 -0.582031 C 0.566406 -0.761719 0.632812 -0.914062 0.761719 -1.042969 C 0.894531 -1.167969 1.050781 -1.234375 1.234375 -1.234375 C 1.410156 -1.234375 1.566406 -1.171875 1.699219 -1.050781 C 1.832031 -0.929688 1.898438 -0.777344 1.898438 -0.601562 C 1.898438 -0.421875 1.835938 -0.269531 1.703125 -0.140625 C 1.574219 -0.0117188 1.417969 0.0507812 1.234375 0.0507812 C 1.144531 0.0507812 1.058594 0.0351562 0.980469 0 C 0.898438 -0.0351562 0.828125 -0.078125 0.765625 -0.132812 C 0.707031 -0.1875 0.65625 -0.253906 0.621094 -0.332031 C 0.585938 -0.410156 0.566406 -0.496094 0.566406 -0.582031 Z M 0.566406 -3.40625 C 0.566406 -3.585938 0.632812 -3.738281 0.761719 -3.867188 C 0.894531 -3.996094 1.050781 -4.058594 1.234375 -4.058594 C 1.410156 -4.058594 1.566406 -3.996094 1.699219 -3.875 C 1.832031 -3.753906 1.898438 -3.601562 1.898438 -3.425781 C 1.898438 -3.246094 1.835938 -3.09375 1.703125 -2.964844 C 1.574219 -2.839844 1.417969 -2.773438 1.234375 -2.773438 C 1.144531 -2.773438 1.058594 -2.792969 0.980469 -2.824219 C 0.898438 -2.859375 0.828125 -2.902344 0.765625 -2.957031 C 0.707031 -3.011719 0.65625 -3.082031 0.621094 -3.160156 C 0.585938 -3.238281 0.566406 -3.320312 0.566406 -3.40625 Z "/>
</g>
<g id="glyph-0-12">
<path d="M 3.066406 -0.550781 L 3.042969 -0.550781 C 2.898438 -0.324219 2.714844 -0.15625 2.492188 -0.0546875 C 2.269531 0.046875 2.023438 0.101562 1.757812 0.101562 C 1.574219 0.101562 1.394531 0.0742188 1.222656 0.0234375 C 1.046875 -0.0273438 0.890625 -0.101562 0.753906 -0.199219 C 0.617188 -0.300781 0.507812 -0.425781 0.425781 -0.574219 C 0.34375 -0.726562 0.300781 -0.898438 0.300781 -1.101562 C 0.300781 -1.316406 0.339844 -1.5 0.417969 -1.652344 C 0.496094 -1.804688 0.597656 -1.933594 0.730469 -2.039062 C 0.859375 -2.140625 1.011719 -2.222656 1.183594 -2.285156 C 1.355469 -2.34375 1.535156 -2.390625 1.722656 -2.421875 C 1.90625 -2.453125 2.09375 -2.472656 2.285156 -2.480469 C 2.472656 -2.488281 2.648438 -2.492188 2.816406 -2.492188 L 3.066406 -2.492188 L 3.066406 -2.601562 C 3.066406 -2.851562 2.980469 -3.039062 2.808594 -3.164062 C 2.636719 -3.289062 2.417969 -3.351562 2.148438 -3.351562 C 1.9375 -3.351562 1.742188 -3.3125 1.558594 -3.238281 C 1.375 -3.164062 1.214844 -3.0625 1.082031 -2.933594 L 0.558594 -3.457031 C 0.78125 -3.6875 1.039062 -3.851562 1.335938 -3.949219 C 1.632812 -4.050781 1.941406 -4.101562 2.257812 -4.101562 C 2.542969 -4.101562 2.78125 -4.066406 2.976562 -4.003906 C 3.167969 -3.941406 3.332031 -3.859375 3.457031 -3.757812 C 3.585938 -3.65625 3.683594 -3.542969 3.753906 -3.414062 C 3.824219 -3.28125 3.875 -3.148438 3.902344 -3.015625 C 3.933594 -2.882812 3.953125 -2.753906 3.957031 -2.628906 C 3.964844 -2.503906 3.964844 -2.394531 3.964844 -2.300781 L 3.964844 0 L 3.066406 0 Z M 3.007812 -1.792969 L 2.800781 -1.792969 C 2.660156 -1.792969 2.503906 -1.785156 2.332031 -1.773438 C 2.160156 -1.761719 2 -1.738281 1.847656 -1.695312 C 1.695312 -1.652344 1.5625 -1.59375 1.457031 -1.511719 C 1.351562 -1.433594 1.300781 -1.320312 1.300781 -1.175781 C 1.300781 -1.082031 1.320312 -1 1.363281 -0.9375 C 1.40625 -0.875 1.457031 -0.820312 1.523438 -0.773438 C 1.589844 -0.730469 1.667969 -0.699219 1.75 -0.679688 C 1.832031 -0.660156 1.917969 -0.648438 2 -0.648438 C 2.34375 -0.648438 2.597656 -0.730469 2.761719 -0.894531 C 2.925781 -1.058594 3.007812 -1.285156 3.007812 -1.566406 Z "/>
</g>
<g id="glyph-0-13">
<path d="M 3.300781 -2.800781 C 3.183594 -2.921875 3.0625 -3.019531 2.933594 -3.089844 C 2.804688 -3.164062 2.675781 -3.199219 2.542969 -3.199219 C 2.359375 -3.199219 2.195312 -3.167969 2.050781 -3.101562 C 1.90625 -3.035156 1.78125 -2.945312 1.679688 -2.832031 C 1.578125 -2.722656 1.5 -2.59375 1.445312 -2.449219 C 1.394531 -2.304688 1.367188 -2.15625 1.367188 -2 C 1.367188 -1.84375 1.394531 -1.695312 1.445312 -1.550781 C 1.5 -1.40625 1.578125 -1.277344 1.679688 -1.167969 C 1.78125 -1.054688 1.90625 -0.964844 2.050781 -0.898438 C 2.195312 -0.832031 2.359375 -0.800781 2.542969 -0.800781 C 2.699219 -0.800781 2.839844 -0.832031 2.976562 -0.894531 C 3.109375 -0.960938 3.222656 -1.054688 3.316406 -1.175781 L 3.984375 -0.457031 C 3.882812 -0.359375 3.769531 -0.273438 3.636719 -0.199219 C 3.507812 -0.128906 3.375 -0.0703125 3.242188 -0.0234375 C 3.109375 0.0195312 2.980469 0.0507812 2.859375 0.0703125 C 2.738281 0.0898438 2.628906 0.101562 2.542969 0.101562 C 2.242188 0.101562 1.957031 0.0507812 1.691406 -0.0507812 C 1.425781 -0.148438 1.195312 -0.292969 1 -0.476562 C 0.804688 -0.660156 0.652344 -0.878906 0.539062 -1.136719 C 0.425781 -1.394531 0.367188 -1.683594 0.367188 -2 C 0.367188 -2.316406 0.421875 -2.605469 0.539062 -2.863281 C 0.652344 -3.121094 0.804688 -3.339844 1 -3.523438 C 1.195312 -3.707031 1.425781 -3.851562 1.691406 -3.949219 C 1.957031 -4.050781 2.242188 -4.101562 2.542969 -4.101562 C 2.796875 -4.101562 3.054688 -4.050781 3.3125 -3.953125 C 3.570312 -3.855469 3.796875 -3.703125 3.992188 -3.492188 Z "/>
</g>
<g id="glyph-0-14">
<path d="M 4.214844 0 L 3.265625 0 L 3.265625 -0.640625 L 3.25 -0.640625 C 3.15625 -0.441406 3.011719 -0.269531 2.816406 -0.121094 C 2.621094 0.0273438 2.359375 0.101562 2.023438 0.101562 C 1.757812 0.101562 1.53125 0.0585938 1.347656 -0.0273438 C 1.160156 -0.113281 1.007812 -0.230469 0.890625 -0.378906 C 0.773438 -0.527344 0.691406 -0.695312 0.640625 -0.882812 C 0.589844 -1.070312 0.566406 -1.269531 0.566406 -1.476562 L 0.566406 -4 L 1.566406 -4 L 1.566406 -1.976562 C 1.566406 -1.863281 1.570312 -1.738281 1.582031 -1.605469 C 1.59375 -1.46875 1.625 -1.339844 1.671875 -1.222656 C 1.71875 -1.101562 1.789062 -1 1.886719 -0.921875 C 1.984375 -0.839844 2.121094 -0.800781 2.300781 -0.800781 C 2.46875 -0.800781 2.605469 -0.828125 2.722656 -0.882812 C 2.835938 -0.9375 2.929688 -1.015625 3.003906 -1.109375 C 3.078125 -1.203125 3.132812 -1.3125 3.167969 -1.433594 C 3.199219 -1.554688 3.214844 -1.683594 3.214844 -1.816406 L 3.214844 -4 L 4.214844 -4 Z "/>
</g>
<g id="glyph-0-15">
<path d="M 0.566406 -4 L 1.566406 -4 L 1.566406 -3.367188 L 1.582031 -3.367188 C 1.695312 -3.601562 1.851562 -3.78125 2.058594 -3.90625 C 2.265625 -4.035156 2.5 -4.101562 2.765625 -4.101562 C 2.828125 -4.101562 2.886719 -4.09375 2.945312 -4.082031 C 3.003906 -4.070312 3.0625 -4.058594 3.125 -4.042969 L 3.125 -3.074219 C 3.042969 -3.097656 2.960938 -3.113281 2.878906 -3.128906 C 2.796875 -3.144531 2.71875 -3.148438 2.640625 -3.148438 C 2.40625 -3.148438 2.222656 -3.105469 2.078125 -3.019531 C 1.9375 -2.933594 1.828125 -2.835938 1.753906 -2.726562 C 1.679688 -2.613281 1.628906 -2.503906 1.605469 -2.390625 C 1.578125 -2.28125 1.566406 -2.195312 1.566406 -2.140625 L 1.566406 0 L 0.566406 0 Z "/>
</g>
<g id="glyph-0-16">
<path d="M 0.0234375 -4 L 1.125 -4 L 2.242188 -1.226562 L 2.257812 -1.226562 L 3.257812 -4 L 4.300781 -4 L 2.410156 0.859375 C 2.335938 1.046875 2.257812 1.210938 2.171875 1.355469 C 2.085938 1.496094 1.984375 1.613281 1.867188 1.710938 C 1.75 1.808594 1.613281 1.882812 1.453125 1.929688 C 1.296875 1.976562 1.105469 2 0.882812 2 C 0.621094 2 0.367188 1.964844 0.117188 1.898438 L 0.242188 1 C 0.320312 1.027344 0.402344 1.050781 0.488281 1.070312 C 0.574219 1.089844 0.660156 1.101562 0.75 1.101562 C 0.871094 1.101562 0.976562 1.089844 1.058594 1.066406 C 1.140625 1.042969 1.210938 1.007812 1.269531 0.960938 C 1.328125 0.914062 1.378906 0.855469 1.417969 0.777344 C 1.457031 0.703125 1.496094 0.613281 1.542969 0.507812 L 1.734375 0.0351562 Z "/>
</g>
<g id="glyph-0-17">
<path d="M 0.0234375 -4 L 1.117188 -4 L 2.183594 -1.199219 L 2.199219 -1.199219 L 3.273438 -4 L 4.300781 -4 L 2.726562 0 L 1.660156 0 Z "/>
</g>
<g id="glyph-0-18">
<path d="M 2.699219 -2.890625 C 2.503906 -3.164062 2.246094 -3.300781 1.917969 -3.300781 C 1.785156 -3.300781 1.652344 -3.265625 1.523438 -3.199219 C 1.398438 -3.132812 1.332031 -3.023438 1.332031 -2.875 C 1.332031 -2.753906 1.386719 -2.664062 1.492188 -2.609375 C 1.597656 -2.554688 1.730469 -2.503906 1.890625 -2.464844 C 2.050781 -2.425781 2.226562 -2.386719 2.414062 -2.347656 C 2.597656 -2.304688 2.773438 -2.238281 2.933594 -2.152344 C 3.09375 -2.066406 3.226562 -1.949219 3.332031 -1.800781 C 3.4375 -1.648438 3.492188 -1.445312 3.492188 -1.183594 C 3.492188 -0.945312 3.441406 -0.742188 3.335938 -0.578125 C 3.234375 -0.414062 3.101562 -0.285156 2.9375 -0.183594 C 2.773438 -0.0820312 2.589844 -0.0117188 2.382812 0.0351562 C 2.175781 0.078125 1.972656 0.101562 1.765625 0.101562 C 1.457031 0.101562 1.167969 0.0546875 0.910156 -0.0351562 C 0.648438 -0.121094 0.414062 -0.285156 0.207031 -0.515625 L 0.875 -1.140625 C 1.003906 -0.996094 1.140625 -0.878906 1.289062 -0.789062 C 1.433594 -0.695312 1.613281 -0.648438 1.824219 -0.648438 C 1.898438 -0.648438 1.972656 -0.660156 2.050781 -0.675781 C 2.128906 -0.691406 2.199219 -0.71875 2.265625 -0.757812 C 2.332031 -0.796875 2.386719 -0.847656 2.429688 -0.902344 C 2.472656 -0.960938 2.492188 -1.03125 2.492188 -1.109375 C 2.492188 -1.246094 2.4375 -1.351562 2.332031 -1.417969 C 2.226562 -1.484375 2.09375 -1.539062 1.933594 -1.578125 C 1.773438 -1.621094 1.597656 -1.660156 1.414062 -1.695312 C 1.226562 -1.730469 1.054688 -1.789062 0.890625 -1.871094 C 0.730469 -1.953125 0.597656 -2.0625 0.492188 -2.207031 C 0.386719 -2.351562 0.332031 -2.550781 0.332031 -2.808594 C 0.332031 -3.03125 0.378906 -3.222656 0.472656 -3.386719 C 0.5625 -3.550781 0.683594 -3.6875 0.832031 -3.792969 C 0.984375 -3.898438 1.15625 -3.976562 1.351562 -4.023438 C 1.546875 -4.074219 1.742188 -4.101562 1.941406 -4.101562 C 2.207031 -4.101562 2.472656 -4.054688 2.734375 -3.960938 C 2.996094 -3.871094 3.207031 -3.714844 3.367188 -3.492188 Z "/>
</g>
<g id="glyph-0-19">
<path d="M 0.367188 -2 C 0.367188 -2.316406 0.421875 -2.605469 0.539062 -2.863281 C 0.652344 -3.121094 0.804688 -3.339844 1 -3.523438 C 1.195312 -3.707031 1.425781 -3.851562 1.691406 -3.949219 C 1.957031 -4.050781 2.242188 -4.101562 2.542969 -4.101562 C 2.84375 -4.101562 3.125 -4.050781 3.390625 -3.949219 C 3.65625 -3.851562 3.890625 -3.707031 4.082031 -3.523438 C 4.277344 -3.339844 4.433594 -3.121094 4.546875 -2.863281 C 4.660156 -2.605469 4.714844 -2.316406 4.714844 -2 C 4.714844 -1.683594 4.660156 -1.394531 4.546875 -1.136719 C 4.433594 -0.878906 4.277344 -0.660156 4.082031 -0.476562 C 3.886719 -0.292969 3.65625 -0.148438 3.390625 -0.0507812 C 3.125 0.0507812 2.839844 0.101562 2.542969 0.101562 C 2.242188 0.101562 1.957031 0.0507812 1.691406 -0.0507812 C 1.425781 -0.148438 1.195312 -0.292969 1 -0.476562 C 0.804688 -0.660156 0.652344 -0.878906 0.539062 -1.136719 C 0.425781 -1.394531 0.367188 -1.683594 0.367188 -2 Z M 1.367188 -2 C 1.367188 -1.84375 1.394531 -1.695312 1.445312 -1.550781 C 1.5 -1.40625 1.578125 -1.277344 1.679688 -1.167969 C 1.78125 -1.054688 1.90625 -0.964844 2.050781 -0.898438 C 2.195312 -0.832031 2.359375 -0.800781 2.542969 -0.800781 C 2.726562 -0.800781 2.890625 -0.832031 3.035156 -0.898438 C 3.179688 -0.964844 3.300781 -1.054688 3.402344 -1.167969 C 3.507812 -1.277344 3.585938 -1.40625 3.636719 -1.550781 C 3.691406 -1.695312 3.714844 -1.84375 3.714844 -2 C 3.714844 -2.15625 3.691406 -2.304688 3.636719 -2.449219 C 3.585938 -2.59375 3.507812 -2.722656 3.402344 -2.832031 C 3.300781 -2.945312 3.175781 -3.035156 3.035156 -3.101562 C 2.890625 -3.167969 2.726562 -3.199219 2.542969 -3.199219 C 2.359375 -3.199219 2.195312 -3.167969 2.050781 -3.101562 C 1.90625 -3.035156 1.78125 -2.945312 1.679688 -2.832031 C 1.578125 -2.722656 1.5 -2.59375 1.445312 -2.449219 C 1.394531 -2.304688 1.367188 -2.15625 1.367188 -2 Z "/>
</g>
<g id="glyph-0-20">
<path d="M 0.523438 -4 L 1.476562 -4 L 1.476562 -3.375 L 1.492188 -3.375 C 1.582031 -3.5625 1.722656 -3.730469 1.921875 -3.878906 C 2.117188 -4.027344 2.382812 -4.101562 2.714844 -4.101562 C 3.34375 -4.101562 3.761719 -3.851562 3.964844 -3.359375 C 4.109375 -3.613281 4.292969 -3.800781 4.507812 -3.921875 C 4.726562 -4.039062 4.984375 -4.101562 5.28125 -4.101562 C 5.550781 -4.101562 5.773438 -4.054688 5.957031 -3.964844 C 6.140625 -3.878906 6.289062 -3.753906 6.402344 -3.601562 C 6.515625 -3.445312 6.601562 -3.261719 6.648438 -3.054688 C 6.699219 -2.847656 6.726562 -2.621094 6.726562 -2.382812 L 6.726562 0 L 5.726562 0 L 5.726562 -2.265625 C 5.726562 -2.386719 5.714844 -2.507812 5.691406 -2.621094 C 5.667969 -2.734375 5.628906 -2.835938 5.574219 -2.921875 C 5.519531 -3.007812 5.445312 -3.074219 5.351562 -3.125 C 5.257812 -3.175781 5.132812 -3.199219 4.984375 -3.199219 C 4.828125 -3.199219 4.695312 -3.171875 4.585938 -3.113281 C 4.480469 -3.054688 4.390625 -2.976562 4.320312 -2.878906 C 4.25 -2.78125 4.203125 -2.671875 4.171875 -2.546875 C 4.140625 -2.421875 4.125 -2.292969 4.125 -2.167969 L 4.125 0 L 3.125 0 L 3.125 -2.382812 C 3.125 -2.632812 3.070312 -2.832031 2.964844 -2.980469 C 2.859375 -3.125 2.6875 -3.199219 2.441406 -3.199219 C 2.273438 -3.199219 2.132812 -3.171875 2.019531 -3.117188 C 1.90625 -3.0625 1.8125 -2.984375 1.738281 -2.890625 C 1.664062 -2.796875 1.609375 -2.6875 1.574219 -2.566406 C 1.542969 -2.445312 1.523438 -2.316406 1.523438 -2.183594 L 1.523438 0 L 0.523438 0 Z "/>
</g>
<g id="glyph-0-21">
<path d="M 0.566406 -4 L 1.515625 -4 L 1.515625 -3.398438 L 1.535156 -3.398438 C 1.679688 -3.644531 1.871094 -3.820312 2.117188 -3.933594 C 2.359375 -4.042969 2.625 -4.101562 2.910156 -4.101562 C 3.214844 -4.101562 3.488281 -4.046875 3.734375 -3.9375 C 3.976562 -3.828125 4.1875 -3.679688 4.359375 -3.492188 C 4.53125 -3.304688 4.660156 -3.082031 4.75 -2.824219 C 4.839844 -2.570312 4.882812 -2.292969 4.882812 -2 C 4.882812 -1.707031 4.835938 -1.429688 4.742188 -1.175781 C 4.648438 -0.917969 4.515625 -0.695312 4.34375 -0.507812 C 4.175781 -0.320312 3.972656 -0.171875 3.734375 -0.0625 C 3.496094 0.046875 3.234375 0.101562 2.949219 0.101562 C 2.761719 0.101562 2.59375 0.0820312 2.449219 0.0429688 C 2.304688 0.00390625 2.175781 -0.046875 2.066406 -0.109375 C 1.957031 -0.167969 1.859375 -0.234375 1.785156 -0.304688 C 1.707031 -0.375 1.640625 -0.441406 1.589844 -0.507812 L 1.566406 -0.507812 L 1.566406 1.898438 L 0.566406 1.898438 Z M 3.882812 -2 C 3.882812 -2.15625 3.855469 -2.304688 3.804688 -2.449219 C 3.75 -2.59375 3.671875 -2.722656 3.570312 -2.832031 C 3.46875 -2.945312 3.34375 -3.035156 3.199219 -3.101562 C 3.054688 -3.167969 2.890625 -3.199219 2.707031 -3.199219 C 2.523438 -3.199219 2.359375 -3.167969 2.214844 -3.101562 C 2.070312 -3.035156 1.949219 -2.945312 1.847656 -2.832031 C 1.742188 -2.722656 1.664062 -2.59375 1.613281 -2.449219 C 1.558594 -2.304688 1.535156 -2.15625 1.535156 -2 C 1.535156 -1.84375 1.558594 -1.695312 1.613281 -1.550781 C 1.664062 -1.40625 1.742188 -1.277344 1.847656 -1.167969 C 1.949219 -1.054688 2.070312 -0.964844 2.214844 -0.898438 C 2.359375 -0.832031 2.523438 -0.800781 2.707031 -0.800781 C 2.890625 -0.800781 3.054688 -0.832031 3.199219 -0.898438 C 3.34375 -0.964844 3.46875 -1.054688 3.570312 -1.167969 C 3.671875 -1.277344 3.75 -1.40625 3.804688 -1.550781 C 3.855469 -1.695312 3.882812 -1.84375 3.882812 -2 Z "/>
</g>
<g id="glyph-0-22">
<path d="M 0.101562 -3.148438 L 0.101562 -4 L 0.925781 -4 L 0.925781 -5.15625 L 1.925781 -5.15625 L 1.925781 -4 L 3.023438 -4 L 3.023438 -3.148438 L 1.925781 -3.148438 L 1.925781 -1.398438 C 1.925781 -1.199219 1.960938 -1.042969 2.039062 -0.925781 C 2.113281 -0.808594 2.261719 -0.75 2.484375 -0.75 C 2.574219 -0.75 2.667969 -0.757812 2.773438 -0.777344 C 2.878906 -0.796875 2.964844 -0.832031 3.023438 -0.875 L 3.023438 -0.0351562 C 2.917969 0.015625 2.789062 0.0507812 2.636719 0.0703125 C 2.484375 0.0898438 2.351562 0.101562 2.234375 0.101562 C 1.96875 0.101562 1.75 0.0703125 1.578125 0.0117188 C 1.410156 -0.046875 1.277344 -0.132812 1.179688 -0.253906 C 1.082031 -0.375 1.015625 -0.523438 0.980469 -0.699219 C 0.945312 -0.878906 0.925781 -1.082031 0.925781 -1.316406 L 0.925781 -3.148438 Z "/>
</g>
<g id="glyph-0-23">
<path d="M 1.367188 -1.648438 C 1.398438 -1.347656 1.515625 -1.117188 1.714844 -0.949219 C 1.914062 -0.78125 2.160156 -0.699219 2.441406 -0.699219 C 2.691406 -0.699219 2.902344 -0.75 3.070312 -0.855469 C 3.238281 -0.957031 3.390625 -1.085938 3.515625 -1.242188 L 4.234375 -0.699219 C 4 -0.410156 3.738281 -0.207031 3.449219 -0.0820312 C 3.160156 0.0390625 2.859375 0.101562 2.542969 0.101562 C 2.242188 0.101562 1.957031 0.0507812 1.691406 -0.0507812 C 1.425781 -0.148438 1.195312 -0.292969 1 -0.476562 C 0.804688 -0.660156 0.652344 -0.878906 0.539062 -1.136719 C 0.425781 -1.394531 0.367188 -1.683594 0.367188 -2 C 0.367188 -2.316406 0.421875 -2.605469 0.539062 -2.863281 C 0.652344 -3.121094 0.804688 -3.339844 1 -3.523438 C 1.195312 -3.707031 1.425781 -3.851562 1.691406 -3.949219 C 1.957031 -4.050781 2.242188 -4.101562 2.542969 -4.101562 C 2.820312 -4.101562 3.074219 -4.050781 3.304688 -3.953125 C 3.535156 -3.855469 3.730469 -3.714844 3.894531 -3.53125 C 4.058594 -3.347656 4.1875 -3.125 4.277344 -2.855469 C 4.371094 -2.585938 4.417969 -2.273438 4.417969 -1.925781 L 4.417969 -1.648438 Z M 3.417969 -2.398438 C 3.410156 -2.695312 3.320312 -2.925781 3.140625 -3.097656 C 2.964844 -3.265625 2.714844 -3.351562 2.398438 -3.351562 C 2.097656 -3.351562 1.863281 -3.265625 1.6875 -3.089844 C 1.511719 -2.917969 1.40625 -2.6875 1.367188 -2.398438 Z "/>
</g>
</g>
<image id="source-11" x="0" y="0" width="0" height="0"/>
<mask id="mask-0">
<use xlink:href="#source-11"/>
</mask>
</defs>
<g fill="rgb(13.333333%, 82.745098%, 93.333333%)" fill-opacity="1">
<use xlink:href="#glyph-0-0" x="30" y="28.333008"/>
<use xlink:href="#glyph-0-1" x="36" y="28.333008"/>
<use xlink:href="#glyph-0-2" x="41" y="28.333008"/>
<use xlink:href="#glyph-0-3" x="49" y="28.333008"/>
<use xlink:href="#glyph-0-4" x="54" y="28.333008"/>
<use xlink:href="#glyph-0-5" x="60" y="28.333008"/>
<use xlink:href="#glyph-0-6" x="62" y="28.333008"/>
<use xlink:href="#glyph-0-7" x="64" y="28.333008"/>
<use xlink:href="#glyph-0-8" x="71" y="28.333008"/>
<use xlink:href="#glyph-0-9" x="77" y="28.333008"/>
<use xlink:href="#glyph-0-10" x="82" y="28.333008"/>
<use xlink:href="#glyph-0-10" x="87" y="28.333008"/>
<use xlink:href="#glyph-0-11" x="92" y="28.333008"/>
<use xlink:href="#glyph-0-6" x="94" y="28.333008"/>
<use xlink:href="#glyph-0-12" x="96" y="28.333008"/>
<use xlink:href="#glyph-0-13" x="100" y="28.333008"/>
<use xlink:href="#glyph-0-13" x="104" y="28.333008"/>
<use xlink:href="#glyph-0-14" x="108" y="28.333008"/>
<use xlink:href="#glyph-0-15" x="113" y="28.333008"/>
<use xlink:href="#glyph-0-12" x="116" y="28.333008"/>
<use xlink:href="#glyph-0-13" x="120" y="28.333008"/>
<use xlink:href="#glyph-0-16" x="124" y="28.333008"/>
<use xlink:href="#glyph-0-6" x="128" y="28.333008"/>
<use xlink:href="#glyph-0-17" x="130" y="28.333008"/>
<use xlink:href="#glyph-0-18" x="134" y="28.333008"/>
<use xlink:href="#glyph-0-6" x="138" y="28.333008"/>
<use xlink:href="#glyph-0-13" x="140" y="28.333008"/>
<use xlink:href="#glyph-0-19" x="144" y="28.333008"/>
<use xlink:href="#glyph-0-20" x="149" y="28.333008"/>
<use xlink:href="#glyph-0-21" x="156" y="28.333008"/>
<use xlink:href="#glyph-0-14" x="161" y="28.333008"/>
<use xlink:href="#glyph-0-22" x="166" y="28.333008"/>
<use xlink:href="#glyph-0-23" x="169" y="28.333008"/>
</g>
</svg>
