<?xml version="1.0" encoding="UTF-8"?>
<svg xmlns="http://www.w3.org/2000/svg" xmlns:xlink="http://www.w3.org/1999/xlink" width="854" height="480" viewBox="0 0 854 480">
<defs>
<g>
<g id="glyph-0-0">
<path d="M 2.59375 -2.496094 C 2.5 -2.625 2.382812 -2.71875 2.246094 -2.785156 C 2.105469 -2.847656 1.960938 -2.878906 1.808594 -2.878906 C 1.632812 -2.878906 1.472656 -2.84375 1.328125 -2.773438 C 1.179688 -2.703125 1.054688 -2.605469 0.945312 -2.488281 C 0.839844 -2.367188 0.757812 -2.226562 0.699219 -2.070312 C 0.640625 -1.910156 0.609375 -1.746094 0.609375 -1.574219 C 0.609375 -1.390625 0.636719 -1.21875 0.699219 -1.058594 C 0.757812 -0.902344 0.839844 -0.765625 0.945312 -0.648438 C 1.050781 -0.53125 1.175781 -0.4375 1.320312 -0.367188 C 1.46875 -0.300781 1.632812 -0.265625 1.808594 -0.265625 C 2 -0.265625 2.171875 -0.304688 2.324219 -0.378906 C 2.476562 -0.457031 2.605469 -0.5625 2.71875 -0.707031 L 3 -0.472656 C 2.859375 -0.28125 2.6875 -0.140625 2.488281 -0.0546875 C 2.289062 0.0351562 2.0625 0.078125 1.808594 0.078125 C 1.582031 0.078125 1.375 0.0390625 1.179688 -0.0429688 C 0.984375 -0.125 0.8125 -0.242188 0.667969 -0.390625 C 0.523438 -0.535156 0.414062 -0.710938 0.332031 -0.910156 C 0.25 -1.113281 0.207031 -1.332031 0.207031 -1.574219 C 0.207031 -1.804688 0.25 -2.019531 0.328125 -2.222656 C 0.40625 -2.421875 0.515625 -2.597656 0.65625 -2.746094 C 0.800781 -2.894531 0.96875 -3.011719 1.164062 -3.097656 C 1.359375 -3.183594 1.574219 -3.226562 1.808594 -3.226562 C 2.023438 -3.226562 2.226562 -3.1875 2.425781 -3.109375 C 2.621094 -3.035156 2.785156 -2.90625 2.921875 -2.734375 Z "/>
</g>
<g id="glyph-0-1">
<path d="M 0.222656 -0.425781 L 1.410156 -1.582031 C 1.484375 -1.652344 1.546875 -1.71875 1.605469 -1.78125 C 1.660156 -1.839844 1.707031 -1.898438 1.746094 -1.957031 C 1.78125 -2.015625 1.808594 -2.074219 1.828125 -2.136719 C 1.84375 -2.199219 1.851562 -2.269531 1.851562 -2.347656 C 1.851562 -2.429688 1.839844 -2.503906 1.808594 -2.570312 C 1.777344 -2.632812 1.738281 -2.691406 1.6875 -2.734375 C 1.636719 -2.78125 1.574219 -2.816406 1.503906 -2.84375 C 1.433594 -2.867188 1.359375 -2.878906 1.28125 -2.878906 C 1.121094 -2.878906 0.988281 -2.835938 0.882812 -2.742188 C 0.78125 -2.648438 0.714844 -2.527344 0.683594 -2.378906 L 0.28125 -2.414062 C 0.300781 -2.539062 0.339844 -2.652344 0.398438 -2.753906 C 0.457031 -2.851562 0.527344 -2.933594 0.617188 -3 C 0.703125 -3.066406 0.800781 -3.113281 0.910156 -3.148438 C 1.019531 -3.183594 1.140625 -3.199219 1.265625 -3.199219 C 1.398438 -3.199219 1.519531 -3.179688 1.636719 -3.144531 C 1.75 -3.105469 1.851562 -3.054688 1.941406 -2.980469 C 2.027344 -2.910156 2.097656 -2.820312 2.148438 -2.714844 C 2.199219 -2.609375 2.226562 -2.484375 2.226562 -2.347656 C 2.226562 -2.222656 2.210938 -2.109375 2.175781 -2.007812 C 2.140625 -1.90625 2.09375 -1.816406 2.039062 -1.730469 C 1.980469 -1.644531 1.914062 -1.566406 1.84375 -1.492188 C 1.769531 -1.414062 1.691406 -1.339844 1.613281 -1.265625 L 0.644531 -0.355469 L 0.644531 -0.347656 L 2.25 -0.347656 L 2.25 0 L 0.222656 0 Z "/>
</g>
<g id="glyph-0-2">
<path d="M 0.328125 -3.359375 L 0.675781 -3.359375 L 0.675781 -1.792969 L 0.683594 -1.792969 C 0.707031 -1.832031 0.742188 -1.875 0.78125 -1.914062 C 0.824219 -1.953125 0.875 -1.988281 0.929688 -2.023438 C 0.988281 -2.054688 1.054688 -2.082031 1.125 -2.101562 C 1.195312 -2.121094 1.269531 -2.132812 1.351562 -2.132812 C 1.488281 -2.132812 1.605469 -2.113281 1.703125 -2.070312 C 1.804688 -2.03125 1.886719 -1.972656 1.949219 -1.898438 C 2.015625 -1.824219 2.0625 -1.734375 2.09375 -1.628906 C 2.125 -1.523438 2.140625 -1.410156 2.140625 -1.285156 L 2.140625 0 L 1.796875 0 L 1.796875 -1.25 C 1.796875 -1.425781 1.757812 -1.5625 1.679688 -1.664062 C 1.601562 -1.761719 1.484375 -1.8125 1.320312 -1.8125 C 1.207031 -1.8125 1.109375 -1.792969 1.027344 -1.753906 C 0.945312 -1.714844 0.878906 -1.664062 0.828125 -1.589844 C 0.777344 -1.519531 0.738281 -1.433594 0.714844 -1.335938 C 0.6875 -1.238281 0.675781 -1.132812 0.675781 -1.011719 L 0.675781 0 L 0.328125 0 Z "/>
</g>
<g id="glyph-0-3">
<path d="M 0.359375 -2.078125 L 0.707031 -2.078125 L 0.707031 0 L 0.359375 0 Z M 0.28125 -2.894531 C 0.28125 -2.960938 0.304688 -3.019531 0.351562 -3.070312 C 0.402344 -3.121094 0.460938 -3.148438 0.535156 -3.148438 C 0.605469 -3.148438 0.664062 -3.121094 0.714844 -3.070312 C 0.761719 -3.019531 0.785156 -2.960938 0.785156 -2.894531 C 0.785156 -2.820312 0.761719 -2.757812 0.714844 -2.710938 C 0.667969 -2.664062 0.605469 -2.640625 0.535156 -2.640625 C 0.460938 -2.640625 0.398438 -2.664062 0.351562 -2.710938 C 0.304688 -2.757812 0.28125 -2.820312 0.28125 -2.894531 Z "/>
</g>
<g id="glyph-0-4">
<path d="M 0.328125 -1.585938 C 0.328125 -1.679688 0.324219 -1.769531 0.320312 -1.851562 C 0.3125 -1.9375 0.3125 -2.011719 0.3125 -2.078125 L 0.640625 -2.078125 C 0.640625 -2.023438 0.640625 -1.96875 0.644531 -1.910156 C 0.648438 -1.855469 0.648438 -1.796875 0.648438 -1.738281 L 0.65625 -1.738281 C 0.679688 -1.789062 0.714844 -1.835938 0.757812 -1.882812 C 0.800781 -1.929688 0.851562 -1.972656 0.910156 -2.011719 C 0.96875 -2.046875 1.035156 -2.078125 1.109375 -2.101562 C 1.183594 -2.121094 1.265625 -2.132812 1.351562 -2.132812 C 1.488281 -2.132812 1.605469 -2.113281 1.703125 -2.070312 C 1.804688 -2.03125 1.886719 -1.972656 1.949219 -1.898438 C 2.015625 -1.824219 2.0625 -1.734375 2.09375 -1.628906 C 2.125 -1.523438 2.140625 -1.410156 2.140625 -1.285156 L 2.140625 0 L 1.796875 0 L 1.796875 -1.25 C 1.796875 -1.425781 1.757812 -1.5625 1.679688 -1.664062 C 1.601562 -1.761719 1.484375 -1.8125 1.320312 -1.8125 C 1.207031 -1.8125 1.109375 -1.792969 1.027344 -1.753906 C 0.945312 -1.714844 0.878906 -1.664062 0.828125 -1.589844 C 0.777344 -1.519531 0.738281 -1.433594 0.714844 -1.335938 C 0.6875 -1.238281 0.675781 -1.132812 0.675781 -1.011719 L 0.675781 0 L 0.328125 0 Z "/>
</g>
<g id="glyph-0-5">
<path d="M 1.464844 -1.785156 L 0.851562 -1.785156 L 0.851562 -0.746094 C 0.851562 -0.679688 0.855469 -0.617188 0.859375 -0.558594 C 0.859375 -0.5 0.871094 -0.449219 0.894531 -0.40625 C 0.914062 -0.363281 0.945312 -0.328125 0.988281 -0.304688 C 1.027344 -0.28125 1.085938 -0.265625 1.164062 -0.265625 C 1.214844 -0.265625 1.265625 -0.273438 1.320312 -0.285156 C 1.375 -0.296875 1.421875 -0.3125 1.472656 -0.335938 L 1.484375 -0.0234375 C 1.425781 0.00390625 1.359375 0.0234375 1.285156 0.0351562 C 1.214844 0.046875 1.144531 0.0546875 1.078125 0.0546875 C 0.953125 0.0546875 0.855469 0.0351562 0.78125 0.00390625 C 0.707031 -0.0273438 0.648438 -0.0742188 0.609375 -0.132812 C 0.566406 -0.191406 0.539062 -0.265625 0.527344 -0.351562 C 0.511719 -0.441406 0.507812 -0.539062 0.507812 -0.644531 L 0.507812 -1.785156 L 0.0546875 -1.785156 L 0.0546875 -2.078125 L 0.507812 -2.078125 L 0.507812 -2.671875 L 0.851562 -2.671875 L 0.851562 -2.078125 L 1.464844 -2.078125 Z "/>
</g>
</g>
</defs>
<g fill="rgb(58.039216%, 63.921569%, 72.156863%)" fill-opacity="1">
<use xlink:href="#glyph-0-0" x="30" y="24.444336"/>
<use xlink:href="#glyph-0-1" x="33" y="24.444336"/>
<use xlink:href="#glyph-0-2" x="35" y="24.444336"/>
<use xlink:href="#glyph-0-3" x="37" y="24.444336"/>
<use xlink:href="#glyph-0-4" x="38" y="24.444336"/>
<use xlink:href="#glyph-0-5" x="40" y="24.444336"/>
</g>
</svg>
