<?xml version="1.0" encoding="UTF-8"?>
<svg xmlns="http://www.w3.org/2000/svg" xmlns:xlink="http://www.w3.org/1999/xlink" width="854" height="480" viewBox="0 0 854 480">
<defs>
<g>
<g id="glyph-0-0">
<path d="M 0.0585938 -1.890625 L 0.0585938 -2.398438 L 0.554688 -2.398438 L 0.554688 -3.09375 L 1.15625 -3.09375 L 1.15625 -2.398438 L 1.816406 -2.398438 L 1.816406 -1.890625 L 1.15625 -1.890625 L 1.15625 -0.839844 C 1.15625 -0.71875 1.175781 -0.625 1.222656 -0.554688 C 1.265625 -0.484375 1.355469 -0.449219 1.488281 -0.449219 C 1.542969 -0.449219 1.601562 -0.457031 1.664062 -0.46875 C 1.726562 -0.480469 1.777344 -0.5 1.816406 -0.523438 L 1.816406 -0.0195312 C 1.753906 0.0117188 1.675781 0.03125 1.582031 0.0429688 C 1.492188 0.0546875 1.410156 0.0585938 1.339844 0.0585938 C 1.179688 0.0585938 1.050781 0.0429688 0.949219 0.0078125 C 0.847656 -0.0273438 0.765625 -0.0820312 0.707031 -0.152344 C 0.648438 -0.222656 0.609375 -0.3125 0.585938 -0.421875 C 0.566406 -0.527344 0.554688 -0.648438 0.554688 -0.789062 L 0.554688 -1.890625 Z "/>
</g>
<g id="glyph-0-1">
<path d="M 0.339844 -2.398438 L 0.941406 -2.398438 L 0.941406 -2.019531 L 0.949219 -2.019531 C 1.015625 -2.160156 1.113281 -2.269531 1.234375 -2.34375 C 1.359375 -2.421875 1.5 -2.460938 1.660156 -2.460938 C 1.695312 -2.460938 1.734375 -2.457031 1.765625 -2.449219 C 1.800781 -2.441406 1.839844 -2.433594 1.875 -2.425781 L 1.875 -1.84375 C 1.824219 -1.859375 1.777344 -1.871094 1.726562 -1.878906 C 1.679688 -1.886719 1.632812 -1.890625 1.585938 -1.890625 C 1.445312 -1.890625 1.332031 -1.863281 1.246094 -1.8125 C 1.160156 -1.761719 1.097656 -1.703125 1.050781 -1.636719 C 1.007812 -1.570312 0.976562 -1.5 0.960938 -1.433594 C 0.945312 -1.367188 0.941406 -1.316406 0.941406 -1.285156 L 0.941406 0 L 0.339844 0 Z "/>
</g>
<g id="glyph-0-2">
<path d="M 0.820312 -0.988281 C 0.839844 -0.808594 0.910156 -0.671875 1.03125 -0.570312 C 1.152344 -0.46875 1.296875 -0.421875 1.464844 -0.421875 C 1.613281 -0.421875 1.742188 -0.449219 1.84375 -0.511719 C 1.945312 -0.574219 2.035156 -0.652344 2.109375 -0.746094 L 2.539062 -0.421875 C 2.398438 -0.246094 2.242188 -0.125 2.070312 -0.0507812 C 1.898438 0.0234375 1.714844 0.0585938 1.523438 0.0585938 C 1.34375 0.0585938 1.175781 0.03125 1.015625 -0.03125 C 0.855469 -0.0898438 0.714844 -0.175781 0.601562 -0.285156 C 0.484375 -0.394531 0.390625 -0.527344 0.324219 -0.683594 C 0.253906 -0.835938 0.21875 -1.011719 0.21875 -1.199219 C 0.21875 -1.390625 0.253906 -1.5625 0.324219 -1.71875 C 0.390625 -1.871094 0.484375 -2.003906 0.601562 -2.113281 C 0.71875 -2.222656 0.855469 -2.308594 1.015625 -2.371094 C 1.175781 -2.429688 1.34375 -2.460938 1.523438 -2.460938 C 1.691406 -2.460938 1.84375 -2.429688 1.984375 -2.371094 C 2.121094 -2.3125 2.238281 -2.230469 2.335938 -2.121094 C 2.433594 -2.011719 2.511719 -1.875 2.566406 -1.710938 C 2.621094 -1.550781 2.648438 -1.363281 2.648438 -1.15625 L 2.648438 -0.988281 Z M 2.050781 -1.441406 C 2.046875 -1.617188 1.992188 -1.753906 1.886719 -1.859375 C 1.777344 -1.960938 1.628906 -2.011719 1.441406 -2.011719 C 1.261719 -2.011719 1.117188 -1.957031 1.011719 -1.855469 C 0.90625 -1.75 0.84375 -1.613281 0.820312 -1.441406 Z "/>
</g>
<g id="glyph-0-3">
<path d="M 0.539062 -0.691406 L 1.148438 -0.691406 L 0.726562 0.628906 L 0.191406 0.628906 Z "/>
</g>
</g>
</defs>
<g fill="rgb(63.921569%, 90.196078%, 20.784314%)" fill-opacity="1">
<use xlink:href="#glyph-0-0" x="30" y="25"/>
<use xlink:href="#glyph-0-1" x="32" y="25"/>
<use xlink:href="#glyph-0-2" x="34" y="25"/>
<use xlink:href="#glyph-0-2" x="37" y="25"/>
<use xlink:href="#glyph-0-3" x="40" y="25"/>
</g>
</svg>
