<?xml version="1.0" encoding="UTF-8"?>
<svg xmlns="http://www.w3.org/2000/svg" xmlns:xlink="http://www.w3.org/1999/xlink" width="854" height="480" viewBox="0 0 854 480">
<defs>
<g>
<g id="glyph-0-0">
<path d="M 0.351562 -5.898438 L 4.359375 -5.898438 L 4.359375 -4.984375 L 2 0 L 0.824219 0 L 3.234375 -4.949219 L 0.351562 -4.949219 Z "/>
</g>
<g id="glyph-0-1">
<path d="M 1.292969 0 L 2.707031 -2.183594 L 2.691406 -2.199219 C 2.628906 -2.167969 2.546875 -2.140625 2.445312 -2.125 C 2.34375 -2.109375 2.242188 -2.101562 2.140625 -2.101562 C 1.878906 -2.101562 1.640625 -2.148438 1.425781 -2.25 C 1.207031 -2.351562 1.019531 -2.484375 0.863281 -2.660156 C 0.703125 -2.832031 0.582031 -3.03125 0.496094 -3.257812 C 0.410156 -3.484375 0.367188 -3.726562 0.367188 -3.984375 C 0.367188 -4.289062 0.417969 -4.566406 0.523438 -4.816406 C 0.628906 -5.066406 0.777344 -5.277344 0.960938 -5.453125 C 1.148438 -5.628906 1.371094 -5.761719 1.628906 -5.859375 C 1.886719 -5.953125 2.167969 -6 2.464844 -6 C 2.773438 -6 3.054688 -5.953125 3.3125 -5.863281 C 3.570312 -5.769531 3.792969 -5.636719 3.980469 -5.464844 C 4.164062 -5.292969 4.308594 -5.082031 4.414062 -4.832031 C 4.515625 -4.582031 4.566406 -4.300781 4.566406 -3.992188 C 4.566406 -3.679688 4.515625 -3.398438 4.414062 -3.144531 C 4.308594 -2.890625 4.175781 -2.636719 4.015625 -2.375 L 2.507812 0 Z M 3.515625 -3.976562 C 3.515625 -4.125 3.488281 -4.265625 3.433594 -4.394531 C 3.378906 -4.527344 3.300781 -4.640625 3.203125 -4.738281 C 3.105469 -4.835938 2.992188 -4.910156 2.863281 -4.964844 C 2.730469 -5.019531 2.589844 -5.050781 2.441406 -5.050781 C 2.292969 -5.050781 2.152344 -5.023438 2.019531 -4.964844 C 1.890625 -4.910156 1.777344 -4.835938 1.679688 -4.738281 C 1.582031 -4.640625 1.503906 -4.527344 1.449219 -4.394531 C 1.394531 -4.265625 1.367188 -4.125 1.367188 -3.976562 C 1.367188 -3.824219 1.394531 -3.683594 1.449219 -3.554688 C 1.503906 -3.421875 1.582031 -3.308594 1.679688 -3.210938 C 1.777344 -3.113281 1.890625 -3.039062 2.019531 -2.984375 C 2.152344 -2.929688 2.292969 -2.898438 2.441406 -2.898438 C 2.589844 -2.898438 2.730469 -2.925781 2.863281 -2.984375 C 2.992188 -3.039062 3.105469 -3.113281 3.203125 -3.210938 C 3.300781 -3.308594 3.378906 -3.421875 3.433594 -3.554688 C 3.488281 -3.683594 3.515625 -3.824219 3.515625 -3.976562 Z "/>
</g>
<g id="glyph-0-2">
<path d="M 0.566406 -0.582031 C 0.566406 -0.761719 0.632812 -0.914062 0.761719 -1.042969 C 0.894531 -1.167969 1.050781 -1.234375 1.234375 -1.234375 C 1.410156 -1.234375 1.566406 -1.171875 1.699219 -1.050781 C 1.832031 -0.929688 1.898438 -0.777344 1.898438 -0.601562 C 1.898438 -0.421875 1.835938 -0.269531 1.703125 -0.140625 C 1.574219 -0.0117188 1.417969 0.0507812 1.234375 0.0507812 C 1.144531 0.0507812 1.058594 0.0351562 0.980469 0 C 0.898438 -0.0351562 0.828125 -0.078125 0.765625 -0.132812 C 0.707031 -0.1875 0.65625 -0.253906 0.621094 -0.332031 C 0.585938 -0.410156 0.566406 -0.496094 0.566406 -0.582031 Z "/>
</g>
<g id="glyph-0-3">
<path d="M 0.332031 -2.949219 C 0.332031 -3.417969 0.371094 -3.816406 0.445312 -4.144531 C 0.519531 -4.476562 0.621094 -4.753906 0.742188 -4.980469 C 0.863281 -5.203125 1 -5.382812 1.152344 -5.519531 C 1.304688 -5.65625 1.460938 -5.757812 1.621094 -5.828125 C 1.777344 -5.898438 1.933594 -5.945312 2.078125 -5.964844 C 2.226562 -5.988281 2.355469 -6 2.464844 -6 C 2.578125 -6 2.707031 -5.988281 2.855469 -5.964844 C 3 -5.945312 3.152344 -5.898438 3.3125 -5.828125 C 3.472656 -5.757812 3.625 -5.65625 3.777344 -5.519531 C 3.929688 -5.382812 4.070312 -5.203125 4.191406 -4.980469 C 4.3125 -4.753906 4.414062 -4.476562 4.488281 -4.144531 C 4.5625 -3.816406 4.601562 -3.417969 4.601562 -2.949219 C 4.601562 -2.484375 4.5625 -2.085938 4.488281 -1.753906 C 4.414062 -1.421875 4.3125 -1.144531 4.191406 -0.921875 C 4.070312 -0.695312 3.933594 -0.515625 3.777344 -0.378906 C 3.625 -0.242188 3.46875 -0.140625 3.3125 -0.0703125 C 3.152344 0 3 0.0429688 2.855469 0.0664062 C 2.707031 0.0898438 2.578125 0.101562 2.464844 0.101562 C 2.355469 0.101562 2.226562 0.0898438 2.078125 0.0664062 C 1.929688 0.0429688 1.777344 0 1.621094 -0.0703125 C 1.460938 -0.140625 1.308594 -0.242188 1.152344 -0.378906 C 1 -0.515625 0.863281 -0.695312 0.742188 -0.921875 C 0.621094 -1.144531 0.519531 -1.421875 0.445312 -1.753906 C 0.371094 -2.085938 0.332031 -2.484375 0.332031 -2.949219 Z M 1.332031 -2.949219 C 1.332031 -2.765625 1.347656 -2.554688 1.371094 -2.3125 C 1.394531 -2.070312 1.445312 -1.839844 1.523438 -1.625 C 1.601562 -1.410156 1.714844 -1.226562 1.867188 -1.074219 C 2.015625 -0.925781 2.214844 -0.851562 2.464844 -0.851562 C 2.714844 -0.851562 2.917969 -0.925781 3.066406 -1.074219 C 3.214844 -1.226562 3.332031 -1.410156 3.40625 -1.625 C 3.484375 -1.839844 3.539062 -2.070312 3.5625 -2.3125 C 3.585938 -2.554688 3.601562 -2.765625 3.601562 -2.949219 C 3.601562 -3.132812 3.585938 -3.34375 3.5625 -3.585938 C 3.539062 -3.828125 3.484375 -4.058594 3.40625 -4.273438 C 3.328125 -4.492188 3.214844 -4.675781 3.066406 -4.824219 C 2.917969 -4.972656 2.714844 -5.050781 2.464844 -5.050781 C 2.214844 -5.050781 2.015625 -4.976562 1.867188 -4.824219 C 1.71875 -4.675781 1.601562 -4.492188 1.523438 -4.273438 C 1.445312 -4.058594 1.394531 -3.828125 1.371094 -3.585938 C 1.347656 -3.34375 1.332031 -3.132812 1.332031 -2.949219 Z "/>
</g>
<g id="glyph-0-4">
<path d="M 4.207031 -1.449219 C 4.207031 -1.667969 4.25 -1.867188 4.328125 -2.054688 C 4.410156 -2.242188 4.519531 -2.402344 4.664062 -2.546875 C 4.804688 -2.6875 4.96875 -2.796875 5.152344 -2.878906 C 5.339844 -2.960938 5.542969 -3 5.757812 -3 C 5.976562 -3 6.175781 -2.960938 6.363281 -2.878906 C 6.546875 -2.796875 6.710938 -2.6875 6.855469 -2.546875 C 6.996094 -2.40625 7.105469 -2.238281 7.1875 -2.054688 C 7.269531 -1.867188 7.308594 -1.667969 7.308594 -1.449219 C 7.308594 -1.234375 7.269531 -1.03125 7.1875 -0.847656 C 7.105469 -0.660156 6.996094 -0.496094 6.855469 -0.355469 C 6.710938 -0.214844 6.546875 -0.101562 6.363281 -0.0195312 C 6.175781 0.0585938 5.976562 0.101562 5.757812 0.101562 C 5.542969 0.101562 5.339844 0.0585938 5.152344 -0.0195312 C 4.96875 -0.101562 4.804688 -0.210938 4.664062 -0.355469 C 4.519531 -0.496094 4.410156 -0.660156 4.328125 -0.847656 C 4.25 -1.03125 4.207031 -1.234375 4.207031 -1.449219 Z M 6.507812 -1.449219 C 6.507812 -1.660156 6.4375 -1.839844 6.292969 -1.984375 C 6.148438 -2.128906 5.96875 -2.199219 5.757812 -2.199219 C 5.546875 -2.199219 5.371094 -2.128906 5.226562 -1.984375 C 5.082031 -1.839844 5.007812 -1.660156 5.007812 -1.449219 C 5.007812 -1.238281 5.082031 -1.0625 5.226562 -0.917969 C 5.371094 -0.773438 5.546875 -0.699219 5.757812 -0.699219 C 5.96875 -0.699219 6.148438 -0.773438 6.292969 -0.917969 C 6.4375 -1.0625 6.507812 -1.238281 6.507812 -1.449219 Z M 0.25 -4.449219 C 0.25 -4.667969 0.289062 -4.867188 0.371094 -5.054688 C 0.453125 -5.242188 0.5625 -5.402344 0.703125 -5.546875 C 0.84375 -5.6875 1.007812 -5.796875 1.195312 -5.878906 C 1.382812 -5.960938 1.582031 -6 1.800781 -6 C 2.015625 -6 2.21875 -5.960938 2.402344 -5.878906 C 2.589844 -5.796875 2.753906 -5.6875 2.894531 -5.546875 C 3.035156 -5.40625 3.148438 -5.238281 3.230469 -5.054688 C 3.308594 -4.867188 3.351562 -4.667969 3.351562 -4.449219 C 3.351562 -4.234375 3.308594 -4.03125 3.230469 -3.84375 C 3.148438 -3.660156 3.039062 -3.496094 2.894531 -3.355469 C 2.753906 -3.210938 2.589844 -3.101562 2.402344 -3.019531 C 2.21875 -2.941406 2.015625 -2.898438 1.800781 -2.898438 C 1.582031 -2.898438 1.382812 -2.941406 1.195312 -3.019531 C 1.007812 -3.101562 0.847656 -3.210938 0.703125 -3.355469 C 0.5625 -3.496094 0.453125 -3.660156 0.371094 -3.84375 C 0.289062 -4.03125 0.25 -4.234375 0.25 -4.449219 Z M 2.550781 -4.449219 C 2.550781 -4.660156 2.476562 -4.839844 2.332031 -4.984375 C 2.1875 -5.128906 2.011719 -5.199219 1.800781 -5.199219 C 1.589844 -5.199219 1.410156 -5.128906 1.265625 -4.984375 C 1.121094 -4.839844 1.050781 -4.660156 1.050781 -4.449219 C 1.050781 -4.238281 1.121094 -4.0625 1.265625 -3.917969 C 1.410156 -3.773438 1.589844 -3.699219 1.800781 -3.699219 C 2.011719 -3.699219 2.1875 -3.773438 2.332031 -3.917969 C 2.476562 -4.0625 2.550781 -4.238281 2.550781 -4.449219 Z M 5.175781 -6.167969 L 5.867188 -5.851562 L 2.398438 0.265625 L 1.707031 -0.0507812 Z "/>
</g>
</g>
</defs>
<g fill="rgb(20.392157%, 82.745098%, 60%)" fill-opacity="1">
<use xlink:href="#glyph-0-0" x="30" y="28.333008"/>
<use xlink:href="#glyph-0-1" x="35" y="28.333008"/>
<use xlink:href="#glyph-0-2" x="40" y="28.333008"/>
<use xlink:href="#glyph-0-3" x="42" y="28.333008"/>
<use xlink:href="#glyph-0-4" x="47" y="28.333008"/>
</g>
</svg>
