<?xml version="1.0" encoding="UTF-8"?>
<svg xmlns="http://www.w3.org/2000/svg" xmlns:xlink="http://www.w3.org/1999/xlink" width="854" height="480" viewBox="0 0 854 480">
<defs>
<g>
<g id="glyph-0-0">
<path d="M 0.320312 -1.492188 L 1.332031 -1.492188 L 1.332031 -2.507812 L 1.625 -2.507812 L 1.625 -1.492188 L 2.640625 -1.492188 L 2.640625 -1.199219 L 1.625 -1.199219 L 1.625 -0.1875 L 1.332031 -0.1875 L 1.332031 -1.199219 L 0.320312 -1.199219 Z "/>
</g>
<g id="glyph-0-1">
<path d="M 0.167969 -1.574219 C 0.167969 -1.75 0.183594 -1.9375 0.214844 -2.128906 C 0.242188 -2.320312 0.296875 -2.496094 0.378906 -2.65625 C 0.457031 -2.8125 0.566406 -2.945312 0.703125 -3.046875 C 0.839844 -3.148438 1.019531 -3.199219 1.234375 -3.199219 C 1.453125 -3.199219 1.628906 -3.148438 1.765625 -3.046875 C 1.902344 -2.945312 2.011719 -2.8125 2.09375 -2.65625 C 2.171875 -2.496094 2.226562 -2.320312 2.257812 -2.128906 C 2.289062 -1.9375 2.300781 -1.75 2.300781 -1.574219 C 2.300781 -1.394531 2.289062 -1.210938 2.257812 -1.019531 C 2.226562 -0.824219 2.171875 -0.648438 2.09375 -0.492188 C 2.011719 -0.332031 1.90625 -0.203125 1.765625 -0.101562 C 1.628906 0 1.453125 0.0546875 1.234375 0.0546875 C 1.019531 0.0546875 0.84375 0.00390625 0.703125 -0.101562 C 0.566406 -0.203125 0.457031 -0.332031 0.378906 -0.492188 C 0.296875 -0.648438 0.242188 -0.824219 0.214844 -1.019531 C 0.183594 -1.210938 0.167969 -1.394531 0.167969 -1.574219 Z M 0.542969 -1.574219 C 0.542969 -1.496094 0.546875 -1.410156 0.550781 -1.316406 C 0.558594 -1.222656 0.566406 -1.125 0.585938 -1.027344 C 0.601562 -0.933594 0.625 -0.839844 0.65625 -0.746094 C 0.6875 -0.65625 0.726562 -0.574219 0.78125 -0.503906 C 0.832031 -0.433594 0.894531 -0.375 0.96875 -0.332031 C 1.042969 -0.289062 1.132812 -0.265625 1.234375 -0.265625 C 1.339844 -0.265625 1.429688 -0.289062 1.503906 -0.332031 C 1.578125 -0.375 1.640625 -0.429688 1.691406 -0.503906 C 1.742188 -0.574219 1.785156 -0.65625 1.816406 -0.746094 C 1.847656 -0.839844 1.871094 -0.933594 1.886719 -1.027344 C 1.902344 -1.125 1.914062 -1.222656 1.921875 -1.316406 C 1.925781 -1.410156 1.929688 -1.496094 1.929688 -1.574219 C 1.929688 -1.652344 1.925781 -1.734375 1.921875 -1.832031 C 1.914062 -1.925781 1.902344 -2.019531 1.886719 -2.117188 C 1.871094 -2.214844 1.847656 -2.308594 1.816406 -2.398438 C 1.785156 -2.492188 1.742188 -2.574219 1.691406 -2.644531 C 1.640625 -2.714844 1.578125 -2.773438 1.503906 -2.816406 C 1.429688 -2.859375 1.339844 -2.878906 1.234375 -2.878906 C 1.132812 -2.878906 1.042969 -2.859375 0.96875 -2.816406 C 0.894531 -2.773438 0.832031 -2.714844 0.78125 -2.644531 C 0.730469 -2.574219 0.6875 -2.492188 0.65625 -2.398438 C 0.625 -2.308594 0.601562 -2.214844 0.585938 -2.117188 C 0.570312 -2.019531 0.558594 -1.925781 0.550781 -1.832031 C 0.546875 -1.738281 0.542969 -1.648438 0.542969 -1.574219 Z "/>
</g>
<g id="glyph-0-2">
<path d="M 0.3125 -2.078125 L 0.65625 -2.078125 L 0.65625 -1.777344 L 0.667969 -1.777344 C 0.761719 -1.890625 0.871094 -1.976562 0.996094 -2.039062 C 1.125 -2.101562 1.261719 -2.132812 1.414062 -2.132812 C 1.578125 -2.132812 1.726562 -2.105469 1.859375 -2.050781 C 1.996094 -1.996094 2.109375 -1.921875 2.203125 -1.820312 C 2.296875 -1.722656 2.375 -1.609375 2.425781 -1.476562 C 2.480469 -1.34375 2.507812 -1.195312 2.507812 -1.039062 C 2.507812 -0.882812 2.480469 -0.738281 2.425781 -0.605469 C 2.371094 -0.472656 2.300781 -0.355469 2.207031 -0.257812 C 2.113281 -0.160156 2.003906 -0.0820312 1.875 -0.0273438 C 1.746094 0.0273438 1.613281 0.0546875 1.464844 0.0546875 C 1.28125 0.0546875 1.117188 0.0117188 0.976562 -0.0703125 C 0.835938 -0.152344 0.730469 -0.25 0.667969 -0.367188 L 0.65625 -0.367188 L 0.65625 1.011719 L 0.3125 1.011719 Z M 0.65625 -1.039062 C 0.65625 -0.929688 0.675781 -0.828125 0.707031 -0.734375 C 0.742188 -0.640625 0.792969 -0.5625 0.859375 -0.492188 C 0.921875 -0.421875 1 -0.367188 1.089844 -0.328125 C 1.179688 -0.289062 1.28125 -0.265625 1.394531 -0.265625 C 1.507812 -0.265625 1.609375 -0.285156 1.699219 -0.328125 C 1.789062 -0.367188 1.867188 -0.421875 1.933594 -0.492188 C 2 -0.5625 2.046875 -0.640625 2.082031 -0.734375 C 2.117188 -0.828125 2.132812 -0.929688 2.132812 -1.039062 C 2.132812 -1.148438 2.117188 -1.25 2.082031 -1.34375 C 2.046875 -1.4375 2 -1.519531 1.933594 -1.589844 C 1.867188 -1.660156 1.789062 -1.714844 1.699219 -1.753906 C 1.609375 -1.792969 1.507812 -1.8125 1.394531 -1.8125 C 1.28125 -1.8125 1.179688 -1.792969 1.089844 -1.753906 C 1 -1.714844 0.921875 -1.660156 0.859375 -1.589844 C 0.792969 -1.519531 0.742188 -1.4375 0.707031 -1.34375 C 0.675781 -1.25 0.65625 -1.148438 0.65625 -1.039062 Z "/>
</g>
</g>
</defs>
<g fill="rgb(98.431373%, 44.313725%, 52.156863%)" fill-opacity="1">
<use xlink:href="#glyph-0-0" x="30" y="24.444336"/>
<use xlink:href="#glyph-0-1" x="33" y="24.444336"/>
<use xlink:href="#glyph-0-2" x="35" y="24.444336"/>
<use xlink:href="#glyph-0-2" x="38" y="24.444336"/>
</g>
</svg>
