<?xml version="1.0" encoding="UTF-8"?>
<svg xmlns="http://www.w3.org/2000/svg" xmlns:xlink="http://www.w3.org/1999/xlink" width="854" height="480" viewBox="0 0 854 480">
<defs>
<g>
<g id="glyph-0-0">
<path d="M 0.457031 -3.933594 L 1.523438 -3.933594 L 2.574219 -1.179688 L 3.632812 -3.933594 L 4.6875 -3.933594 L 4.6875 0 L 4.023438 0 L 4.023438 -3.265625 L 4.011719 -3.265625 L 2.816406 0 L 2.328125 0 L 1.132812 -3.265625 L 1.121094 -3.265625 L 1.121094 0 L 0.457031 0 Z "/>
</g>
<g id="glyph-0-1">
<path d="M 0.910156 -1.101562 C 0.933594 -0.902344 1.011719 -0.746094 1.144531 -0.632812 C 1.277344 -0.523438 1.4375 -0.464844 1.628906 -0.464844 C 1.792969 -0.464844 1.933594 -0.5 2.046875 -0.570312 C 2.160156 -0.636719 2.257812 -0.722656 2.34375 -0.828125 L 2.824219 -0.464844 C 2.667969 -0.273438 2.492188 -0.136719 2.300781 -0.0546875 C 2.109375 0.0273438 1.90625 0.0664062 1.695312 0.0664062 C 1.496094 0.0664062 1.304688 0.0351562 1.128906 -0.0351562 C 0.949219 -0.101562 0.796875 -0.195312 0.667969 -0.316406 C 0.539062 -0.4375 0.433594 -0.585938 0.359375 -0.757812 C 0.28125 -0.929688 0.246094 -1.121094 0.246094 -1.332031 C 0.246094 -1.542969 0.28125 -1.734375 0.359375 -1.910156 C 0.433594 -2.082031 0.535156 -2.226562 0.667969 -2.351562 C 0.796875 -2.472656 0.949219 -2.566406 1.128906 -2.632812 C 1.304688 -2.699219 1.496094 -2.734375 1.695312 -2.734375 C 1.878906 -2.734375 2.050781 -2.699219 2.203125 -2.636719 C 2.355469 -2.570312 2.488281 -2.476562 2.597656 -2.355469 C 2.707031 -2.234375 2.792969 -2.082031 2.851562 -1.902344 C 2.914062 -1.722656 2.945312 -1.515625 2.945312 -1.285156 L 2.945312 -1.101562 Z M 2.277344 -1.601562 C 2.273438 -1.796875 2.214844 -1.949219 2.09375 -2.0625 C 1.976562 -2.175781 1.8125 -2.234375 1.601562 -2.234375 C 1.402344 -2.234375 1.242188 -2.175781 1.125 -2.0625 C 1.007812 -1.945312 0.9375 -1.792969 0.910156 -1.601562 Z "/>
</g>
<g id="glyph-0-2">
<path d="M 2.042969 -0.367188 L 2.027344 -0.367188 C 1.929688 -0.214844 1.808594 -0.105469 1.660156 -0.0351562 C 1.511719 0.03125 1.351562 0.0664062 1.171875 0.0664062 C 1.050781 0.0664062 0.929688 0.0507812 0.8125 0.015625 C 0.695312 -0.015625 0.59375 -0.0664062 0.503906 -0.132812 C 0.414062 -0.199219 0.339844 -0.285156 0.285156 -0.382812 C 0.226562 -0.484375 0.199219 -0.601562 0.199219 -0.734375 C 0.199219 -0.878906 0.226562 -1 0.277344 -1.101562 C 0.328125 -1.203125 0.398438 -1.289062 0.484375 -1.359375 C 0.574219 -1.425781 0.675781 -1.480469 0.789062 -1.523438 C 0.902344 -1.5625 1.023438 -1.59375 1.148438 -1.613281 C 1.273438 -1.632812 1.394531 -1.648438 1.523438 -1.652344 C 1.648438 -1.660156 1.765625 -1.660156 1.878906 -1.660156 L 2.042969 -1.660156 L 2.042969 -1.734375 C 2.042969 -1.898438 1.988281 -2.023438 1.871094 -2.109375 C 1.757812 -2.191406 1.609375 -2.234375 1.433594 -2.234375 C 1.292969 -2.234375 1.160156 -2.207031 1.039062 -2.160156 C 0.917969 -2.109375 0.8125 -2.039062 0.722656 -1.957031 L 0.371094 -2.304688 C 0.519531 -2.457031 0.695312 -2.566406 0.890625 -2.632812 C 1.089844 -2.699219 1.292969 -2.734375 1.503906 -2.734375 C 1.695312 -2.734375 1.855469 -2.710938 1.984375 -2.667969 C 2.113281 -2.625 2.21875 -2.574219 2.304688 -2.503906 C 2.390625 -2.4375 2.457031 -2.363281 2.503906 -2.273438 C 2.550781 -2.1875 2.582031 -2.101562 2.601562 -2.011719 C 2.621094 -1.921875 2.636719 -1.835938 2.640625 -1.753906 C 2.644531 -1.667969 2.644531 -1.597656 2.644531 -1.535156 L 2.644531 0 L 2.042969 0 Z M 2.003906 -1.195312 L 1.867188 -1.195312 C 1.773438 -1.195312 1.671875 -1.191406 1.554688 -1.183594 C 1.441406 -1.175781 1.332031 -1.160156 1.230469 -1.128906 C 1.128906 -1.101562 1.042969 -1.0625 0.972656 -1.007812 C 0.902344 -0.953125 0.867188 -0.878906 0.867188 -0.785156 C 0.867188 -0.722656 0.878906 -0.667969 0.910156 -0.625 C 0.9375 -0.582031 0.972656 -0.546875 1.015625 -0.515625 C 1.0625 -0.488281 1.109375 -0.464844 1.167969 -0.453125 C 1.222656 -0.441406 1.277344 -0.433594 1.332031 -0.433594 C 1.5625 -0.433594 1.734375 -0.488281 1.839844 -0.597656 C 1.949219 -0.707031 2.003906 -0.855469 2.003906 -1.042969 Z "/>
</g>
<g id="glyph-0-3">
<path d="M 0.378906 -2.667969 L 1.011719 -2.667969 L 1.011719 -2.238281 L 1.023438 -2.238281 C 1.085938 -2.371094 1.179688 -2.488281 1.3125 -2.585938 C 1.441406 -2.683594 1.617188 -2.734375 1.839844 -2.734375 C 2.015625 -2.734375 2.167969 -2.703125 2.292969 -2.644531 C 2.417969 -2.585938 2.515625 -2.507812 2.59375 -2.410156 C 2.671875 -2.316406 2.726562 -2.203125 2.761719 -2.078125 C 2.792969 -1.953125 2.8125 -1.820312 2.8125 -1.683594 L 2.8125 0 L 2.144531 0 L 2.144531 -1.351562 C 2.144531 -1.425781 2.140625 -1.507812 2.132812 -1.597656 C 2.125 -1.6875 2.105469 -1.773438 2.074219 -1.851562 C 2.042969 -1.933594 1.996094 -2 1.929688 -2.054688 C 1.863281 -2.105469 1.769531 -2.132812 1.65625 -2.132812 C 1.542969 -2.132812 1.449219 -2.113281 1.375 -2.078125 C 1.300781 -2.039062 1.234375 -1.992188 1.1875 -1.929688 C 1.136719 -1.867188 1.101562 -1.792969 1.078125 -1.710938 C 1.054688 -1.628906 1.042969 -1.542969 1.042969 -1.457031 L 1.042969 0 L 0.378906 0 Z "/>
</g>
<g id="glyph-0-4">
<rect x="0" y="0" width="0" height="0" mask="url(#mask-0)"/>
</g>
<g id="glyph-0-5">
<path d="M 2.8125 0 L 2.179688 0 L 2.179688 -0.429688 L 2.167969 -0.429688 C 2.105469 -0.296875 2.007812 -0.179688 1.878906 -0.0820312 C 1.75 0.015625 1.570312 0.0664062 1.351562 0.0664062 C 1.171875 0.0664062 1.019531 0.0390625 0.898438 -0.0195312 C 0.773438 -0.078125 0.671875 -0.15625 0.59375 -0.253906 C 0.515625 -0.351562 0.460938 -0.464844 0.429688 -0.589844 C 0.394531 -0.714844 0.378906 -0.847656 0.378906 -0.984375 L 0.378906 -2.667969 L 1.042969 -2.667969 L 1.042969 -1.316406 C 1.042969 -1.242188 1.046875 -1.160156 1.054688 -1.070312 C 1.0625 -0.980469 1.082031 -0.894531 1.113281 -0.8125 C 1.144531 -0.734375 1.195312 -0.667969 1.257812 -0.613281 C 1.324219 -0.558594 1.414062 -0.535156 1.535156 -0.535156 C 1.644531 -0.535156 1.738281 -0.550781 1.8125 -0.589844 C 1.890625 -0.625 1.953125 -0.675781 2.003906 -0.738281 C 2.054688 -0.800781 2.089844 -0.875 2.109375 -0.957031 C 2.132812 -1.039062 2.144531 -1.121094 2.144531 -1.210938 L 2.144531 -2.667969 L 2.8125 -2.667969 Z "/>
</g>
<g id="glyph-0-6">
<path d="M 0.390625 -2.667969 L 1.054688 -2.667969 L 1.054688 0 L 0.390625 0 Z M 0.292969 -3.574219 C 0.292969 -3.679688 0.335938 -3.773438 0.414062 -3.851562 C 0.492188 -3.933594 0.59375 -3.972656 0.714844 -3.972656 C 0.839844 -3.972656 0.941406 -3.933594 1.023438 -3.859375 C 1.109375 -3.78125 1.148438 -3.6875 1.148438 -3.574219 C 1.148438 -3.457031 1.109375 -3.363281 1.023438 -3.285156 C 0.941406 -3.210938 0.839844 -3.171875 0.714844 -3.171875 C 0.59375 -3.171875 0.492188 -3.210938 0.414062 -3.292969 C 0.335938 -3.371094 0.292969 -3.464844 0.292969 -3.574219 Z "/>
</g>
<g id="glyph-0-7">
<path d="M 3.121094 1.265625 L 2.457031 1.265625 L 2.457031 -0.339844 L 2.4375 -0.339844 C 2.40625 -0.292969 2.363281 -0.25 2.3125 -0.203125 C 2.257812 -0.15625 2.195312 -0.113281 2.121094 -0.0703125 C 2.046875 -0.03125 1.964844 0 1.867188 0.0273438 C 1.769531 0.0546875 1.660156 0.0664062 1.535156 0.0664062 C 1.34375 0.0664062 1.171875 0.03125 1.011719 -0.0429688 C 0.851562 -0.113281 0.714844 -0.214844 0.601562 -0.339844 C 0.488281 -0.464844 0.402344 -0.613281 0.339844 -0.785156 C 0.277344 -0.953125 0.246094 -1.136719 0.246094 -1.332031 C 0.246094 -1.527344 0.273438 -1.714844 0.332031 -1.882812 C 0.390625 -2.054688 0.480469 -2.203125 0.59375 -2.328125 C 0.710938 -2.453125 0.847656 -2.554688 1.007812 -2.625 C 1.167969 -2.695312 1.355469 -2.734375 1.5625 -2.734375 C 1.75 -2.734375 1.925781 -2.695312 2.089844 -2.621094 C 2.253906 -2.546875 2.382812 -2.429688 2.476562 -2.265625 L 2.488281 -2.265625 L 2.488281 -2.667969 L 3.121094 -2.667969 Z M 0.910156 -1.332031 C 0.910156 -1.230469 0.929688 -1.128906 0.964844 -1.035156 C 1 -0.9375 1.050781 -0.851562 1.121094 -0.777344 C 1.1875 -0.703125 1.269531 -0.644531 1.367188 -0.601562 C 1.464844 -0.554688 1.570312 -0.535156 1.695312 -0.535156 C 1.816406 -0.535156 1.925781 -0.554688 2.023438 -0.601562 C 2.117188 -0.644531 2.199219 -0.703125 2.269531 -0.777344 C 2.339844 -0.851562 2.390625 -0.9375 2.425781 -1.035156 C 2.460938 -1.128906 2.476562 -1.230469 2.476562 -1.332031 C 2.476562 -1.4375 2.460938 -1.535156 2.425781 -1.632812 C 2.390625 -1.730469 2.339844 -1.816406 2.269531 -1.890625 C 2.199219 -1.964844 2.117188 -2.023438 2.023438 -2.066406 C 1.925781 -2.109375 1.816406 -2.132812 1.695312 -2.132812 C 1.574219 -2.132812 1.464844 -2.109375 1.367188 -2.066406 C 1.269531 -2.023438 1.1875 -1.964844 1.121094 -1.890625 C 1.050781 -1.816406 1 -1.730469 0.964844 -1.632812 C 0.929688 -1.535156 0.910156 -1.4375 0.910156 -1.332031 Z "/>
</g>
<g id="glyph-0-8">
<path d="M 1.800781 -1.929688 C 1.671875 -2.109375 1.496094 -2.199219 1.277344 -2.199219 C 1.1875 -2.199219 1.101562 -2.179688 1.015625 -2.132812 C 0.929688 -2.089844 0.890625 -2.015625 0.890625 -1.917969 C 0.890625 -1.835938 0.925781 -1.777344 0.996094 -1.738281 C 1.066406 -1.703125 1.152344 -1.671875 1.261719 -1.644531 C 1.367188 -1.617188 1.484375 -1.589844 1.609375 -1.5625 C 1.734375 -1.535156 1.847656 -1.492188 1.957031 -1.4375 C 2.0625 -1.378906 2.152344 -1.300781 2.222656 -1.199219 C 2.292969 -1.101562 2.328125 -0.964844 2.328125 -0.789062 C 2.328125 -0.628906 2.292969 -0.496094 2.226562 -0.386719 C 2.15625 -0.277344 2.066406 -0.1875 1.957031 -0.121094 C 1.847656 -0.0546875 1.726562 -0.0078125 1.589844 0.0234375 C 1.453125 0.0507812 1.316406 0.0664062 1.179688 0.0664062 C 0.972656 0.0664062 0.78125 0.0351562 0.605469 -0.0234375 C 0.429688 -0.0820312 0.277344 -0.1875 0.140625 -0.34375 L 0.582031 -0.761719 C 0.667969 -0.664062 0.761719 -0.585938 0.859375 -0.523438 C 0.957031 -0.464844 1.074219 -0.433594 1.214844 -0.433594 C 1.265625 -0.433594 1.316406 -0.4375 1.367188 -0.449219 C 1.417969 -0.460938 1.464844 -0.480469 1.511719 -0.503906 C 1.554688 -0.53125 1.589844 -0.5625 1.621094 -0.601562 C 1.648438 -0.640625 1.660156 -0.6875 1.660156 -0.738281 C 1.660156 -0.832031 1.625 -0.898438 1.554688 -0.945312 C 1.484375 -0.988281 1.394531 -1.023438 1.289062 -1.054688 C 1.179688 -1.082031 1.066406 -1.105469 0.941406 -1.128906 C 0.816406 -1.152344 0.703125 -1.195312 0.59375 -1.246094 C 0.488281 -1.300781 0.398438 -1.375 0.328125 -1.472656 C 0.257812 -1.570312 0.222656 -1.703125 0.222656 -1.871094 C 0.222656 -2.019531 0.253906 -2.148438 0.3125 -2.257812 C 0.375 -2.367188 0.457031 -2.457031 0.554688 -2.527344 C 0.65625 -2.597656 0.769531 -2.648438 0.898438 -2.683594 C 1.027344 -2.714844 1.160156 -2.734375 1.292969 -2.734375 C 1.472656 -2.734375 1.648438 -2.703125 1.820312 -2.640625 C 1.996094 -2.582031 2.136719 -2.476562 2.246094 -2.328125 Z "/>
</g>
<g id="glyph-0-9">
<path d="M 0.015625 -2.667969 L 0.738281 -2.667969 L 1.316406 -0.800781 L 1.328125 -0.800781 L 1.867188 -2.667969 L 2.589844 -2.667969 L 3.167969 -0.800781 L 3.179688 -0.800781 L 3.734375 -2.667969 L 4.40625 -2.667969 L 3.5 0 L 2.839844 0 L 2.207031 -1.820312 L 2.195312 -1.820312 L 1.632812 0 L 0.945312 0 Z "/>
</g>
<g id="glyph-0-10">
<path d="M 0.378906 -2.667969 L 1.042969 -2.667969 L 1.042969 -2.246094 L 1.054688 -2.246094 C 1.128906 -2.402344 1.234375 -2.519531 1.371094 -2.605469 C 1.507812 -2.691406 1.667969 -2.734375 1.84375 -2.734375 C 1.886719 -2.734375 1.925781 -2.730469 1.964844 -2.722656 C 2.003906 -2.714844 2.042969 -2.707031 2.082031 -2.695312 L 2.082031 -2.050781 C 2.027344 -2.066406 1.972656 -2.078125 1.917969 -2.085938 C 1.867188 -2.09375 1.8125 -2.101562 1.761719 -2.101562 C 1.605469 -2.101562 1.480469 -2.070312 1.386719 -2.015625 C 1.292969 -1.957031 1.21875 -1.890625 1.167969 -1.816406 C 1.117188 -1.742188 1.085938 -1.667969 1.070312 -1.59375 C 1.054688 -1.519531 1.042969 -1.464844 1.042969 -1.429688 L 1.042969 0 L 0.378906 0 Z "/>
</g>
<g id="glyph-0-11">
<path d="M 0.410156 0.265625 L -0.0507812 0.101562 L 1.683594 -4.210938 L 2.144531 -4.035156 Z "/>
</g>
<g id="glyph-0-12">
<path d="M 0.378906 -2.667969 L 1.011719 -2.667969 L 1.011719 -2.265625 L 1.023438 -2.265625 C 1.117188 -2.429688 1.25 -2.546875 1.410156 -2.621094 C 1.574219 -2.695312 1.75 -2.734375 1.9375 -2.734375 C 2.140625 -2.734375 2.324219 -2.699219 2.488281 -2.625 C 2.652344 -2.554688 2.789062 -2.453125 2.90625 -2.328125 C 3.019531 -2.203125 3.109375 -2.054688 3.167969 -1.882812 C 3.226562 -1.710938 3.253906 -1.53125 3.253906 -1.332031 C 3.253906 -1.136719 3.222656 -0.953125 3.160156 -0.785156 C 3.097656 -0.613281 3.011719 -0.464844 2.898438 -0.339844 C 2.785156 -0.214844 2.648438 -0.113281 2.488281 -0.0429688 C 2.328125 0.03125 2.15625 0.0664062 1.964844 0.0664062 C 1.839844 0.0664062 1.730469 0.0546875 1.632812 0.0273438 C 1.535156 0 1.453125 -0.03125 1.378906 -0.0703125 C 1.304688 -0.113281 1.242188 -0.15625 1.1875 -0.203125 C 1.136719 -0.25 1.09375 -0.292969 1.0625 -0.339844 L 1.042969 -0.339844 L 1.042969 1.265625 L 0.378906 1.265625 Z M 2.589844 -1.332031 C 2.589844 -1.4375 2.570312 -1.535156 2.535156 -1.632812 C 2.5 -1.730469 2.449219 -1.816406 2.378906 -1.890625 C 2.3125 -1.964844 2.230469 -2.023438 2.132812 -2.066406 C 2.035156 -2.109375 1.929688 -2.132812 1.804688 -2.132812 C 1.683594 -2.132812 1.574219 -2.109375 1.476562 -2.066406 C 1.382812 -2.023438 1.300781 -1.964844 1.230469 -1.890625 C 1.160156 -1.816406 1.109375 -1.730469 1.074219 -1.632812 C 1.039062 -1.535156 1.023438 -1.4375 1.023438 -1.332031 C 1.023438 -1.230469 1.039062 -1.128906 1.074219 -1.035156 C 1.109375 -0.9375 1.160156 -0.851562 1.230469 -0.777344 C 1.300781 -0.703125 1.382812 -0.644531 1.476562 -0.601562 C 1.574219 -0.554688 1.683594 -0.535156 1.804688 -0.535156 C 1.925781 -0.535156 2.035156 -0.554688 2.132812 -0.601562 C 2.230469 -0.644531 2.3125 -0.703125 2.378906 -0.777344 C 2.449219 -0.851562 2.5 -0.9375 2.535156 -1.035156 C 2.570312 -1.128906 2.589844 -1.230469 2.589844 -1.332031 Z "/>
</g>
<g id="glyph-0-13">
<path d="M 0.246094 -1.332031 C 0.246094 -1.542969 0.28125 -1.734375 0.359375 -1.910156 C 0.433594 -2.082031 0.535156 -2.226562 0.667969 -2.351562 C 0.796875 -2.472656 0.949219 -2.566406 1.128906 -2.632812 C 1.304688 -2.699219 1.496094 -2.734375 1.695312 -2.734375 C 1.894531 -2.734375 2.082031 -2.699219 2.261719 -2.632812 C 2.4375 -2.566406 2.59375 -2.472656 2.722656 -2.351562 C 2.851562 -2.226562 2.953125 -2.082031 3.03125 -1.910156 C 3.105469 -1.738281 3.144531 -1.542969 3.144531 -1.332031 C 3.144531 -1.121094 3.105469 -0.929688 3.03125 -0.757812 C 2.953125 -0.585938 2.851562 -0.4375 2.722656 -0.316406 C 2.59375 -0.195312 2.4375 -0.101562 2.261719 -0.0351562 C 2.082031 0.03125 1.894531 0.0664062 1.695312 0.0664062 C 1.496094 0.0664062 1.304688 0.0351562 1.128906 -0.0351562 C 0.949219 -0.101562 0.796875 -0.195312 0.667969 -0.316406 C 0.539062 -0.4375 0.433594 -0.585938 0.359375 -0.757812 C 0.28125 -0.929688 0.246094 -1.121094 0.246094 -1.332031 Z M 0.910156 -1.332031 C 0.910156 -1.230469 0.929688 -1.128906 0.964844 -1.035156 C 1 -0.9375 1.050781 -0.851562 1.121094 -0.777344 C 1.1875 -0.703125 1.269531 -0.644531 1.367188 -0.601562 C 1.464844 -0.554688 1.570312 -0.535156 1.695312 -0.535156 C 1.816406 -0.535156 1.925781 -0.554688 2.023438 -0.601562 C 2.117188 -0.644531 2.199219 -0.703125 2.269531 -0.777344 C 2.339844 -0.851562 2.390625 -0.9375 2.425781 -1.035156 C 2.460938 -1.128906 2.476562 -1.230469 2.476562 -1.332031 C 2.476562 -1.4375 2.460938 -1.535156 2.425781 -1.632812 C 2.390625 -1.730469 2.339844 -1.816406 2.269531 -1.890625 C 2.199219 -1.964844 2.117188 -2.023438 2.023438 -2.066406 C 1.925781 -2.109375 1.816406 -2.132812 1.695312 -2.132812 C 1.574219 -2.132812 1.464844 -2.109375 1.367188 -2.066406 C 1.269531 -2.023438 1.1875 -1.964844 1.121094 -1.890625 C 1.050781 -1.816406 1 -1.730469 0.964844 -1.632812 C 0.929688 -1.535156 0.910156 -1.4375 0.910156 -1.332031 Z "/>
</g>
<g id="glyph-0-14">
<path d="M 0.378906 -4.199219 L 1.042969 -4.199219 L 1.042969 -2.328125 L 1.0625 -2.328125 C 1.09375 -2.371094 1.136719 -2.417969 1.1875 -2.464844 C 1.242188 -2.511719 1.304688 -2.554688 1.378906 -2.59375 C 1.453125 -2.636719 1.535156 -2.667969 1.632812 -2.695312 C 1.730469 -2.71875 1.839844 -2.734375 1.964844 -2.734375 C 2.15625 -2.734375 2.328125 -2.699219 2.488281 -2.625 C 2.648438 -2.554688 2.785156 -2.453125 2.898438 -2.328125 C 3.011719 -2.203125 3.097656 -2.054688 3.160156 -1.882812 C 3.222656 -1.710938 3.253906 -1.53125 3.253906 -1.332031 C 3.253906 -1.136719 3.226562 -0.953125 3.167969 -0.785156 C 3.109375 -0.613281 3.019531 -0.464844 2.90625 -0.339844 C 2.789062 -0.214844 2.652344 -0.113281 2.488281 -0.0429688 C 2.324219 0.03125 2.144531 0.0664062 1.9375 0.0664062 C 1.75 0.0664062 1.574219 0.03125 1.410156 -0.0429688 C 1.246094 -0.117188 1.117188 -0.238281 1.023438 -0.398438 L 1.011719 -0.398438 L 1.011719 0 L 0.378906 0 Z M 2.589844 -1.332031 C 2.589844 -1.4375 2.570312 -1.535156 2.535156 -1.632812 C 2.5 -1.730469 2.449219 -1.816406 2.378906 -1.890625 C 2.3125 -1.964844 2.230469 -2.023438 2.132812 -2.066406 C 2.035156 -2.109375 1.929688 -2.132812 1.804688 -2.132812 C 1.683594 -2.132812 1.574219 -2.109375 1.476562 -2.066406 C 1.382812 -2.023438 1.300781 -1.964844 1.230469 -1.890625 C 1.160156 -1.816406 1.109375 -1.730469 1.074219 -1.632812 C 1.039062 -1.535156 1.023438 -1.4375 1.023438 -1.332031 C 1.023438 -1.230469 1.039062 -1.128906 1.074219 -1.035156 C 1.109375 -0.9375 1.160156 -0.851562 1.230469 -0.777344 C 1.300781 -0.703125 1.382812 -0.644531 1.476562 -0.601562 C 1.574219 -0.554688 1.683594 -0.535156 1.804688 -0.535156 C 1.925781 -0.535156 2.035156 -0.554688 2.132812 -0.601562 C 2.230469 -0.644531 2.3125 -0.703125 2.378906 -0.777344 C 2.449219 -0.851562 2.5 -0.9375 2.535156 -1.035156 C 2.570312 -1.128906 2.589844 -1.230469 2.589844 -1.332031 Z "/>
</g>
<g id="glyph-0-15">
<path d="M 0.390625 -4.199219 L 1.054688 -4.199219 L 1.054688 0 L 0.390625 0 Z "/>
</g>
<g id="glyph-0-16">
<path d="M 0.351562 -2.667969 L 0.984375 -2.667969 L 0.984375 -2.25 L 0.996094 -2.25 C 1.054688 -2.375 1.148438 -2.488281 1.28125 -2.585938 C 1.414062 -2.683594 1.589844 -2.734375 1.8125 -2.734375 C 2.230469 -2.734375 2.507812 -2.570312 2.644531 -2.238281 C 2.742188 -2.410156 2.859375 -2.535156 3.003906 -2.613281 C 3.148438 -2.691406 3.324219 -2.734375 3.523438 -2.734375 C 3.699219 -2.734375 3.851562 -2.703125 3.972656 -2.644531 C 4.09375 -2.585938 4.195312 -2.503906 4.269531 -2.398438 C 4.34375 -2.296875 4.398438 -2.175781 4.433594 -2.035156 C 4.46875 -1.898438 4.484375 -1.75 4.484375 -1.589844 L 4.484375 0 L 3.816406 0 L 3.816406 -1.511719 C 3.816406 -1.59375 3.808594 -1.671875 3.792969 -1.746094 C 3.777344 -1.824219 3.753906 -1.890625 3.714844 -1.945312 C 3.679688 -2.003906 3.628906 -2.050781 3.566406 -2.082031 C 3.503906 -2.117188 3.421875 -2.132812 3.324219 -2.132812 C 3.21875 -2.132812 3.128906 -2.113281 3.058594 -2.074219 C 2.984375 -2.035156 2.925781 -1.984375 2.878906 -1.917969 C 2.832031 -1.855469 2.800781 -1.78125 2.78125 -1.695312 C 2.761719 -1.613281 2.75 -1.53125 2.75 -1.445312 L 2.75 0 L 2.082031 0 L 2.082031 -1.589844 C 2.082031 -1.757812 2.046875 -1.886719 1.976562 -1.984375 C 1.90625 -2.082031 1.789062 -2.132812 1.628906 -2.132812 C 1.515625 -2.132812 1.421875 -2.113281 1.347656 -2.078125 C 1.269531 -2.039062 1.207031 -1.992188 1.160156 -1.929688 C 1.109375 -1.867188 1.070312 -1.792969 1.050781 -1.710938 C 1.027344 -1.628906 1.015625 -1.542969 1.015625 -1.457031 L 1.015625 0 L 0.351562 0 Z "/>
</g>
<g id="glyph-0-17">
<path d="M 0.378906 -0.390625 C 0.378906 -0.507812 0.421875 -0.609375 0.507812 -0.695312 C 0.59375 -0.78125 0.699219 -0.820312 0.820312 -0.820312 C 0.941406 -0.820312 1.042969 -0.78125 1.132812 -0.699219 C 1.222656 -0.617188 1.265625 -0.519531 1.265625 -0.398438 C 1.265625 -0.28125 1.222656 -0.179688 1.136719 -0.09375 C 1.050781 -0.0078125 0.945312 0.0351562 0.820312 0.0351562 C 0.761719 0.0351562 0.707031 0.0234375 0.652344 0 C 0.597656 -0.0234375 0.550781 -0.0507812 0.511719 -0.0898438 C 0.46875 -0.125 0.4375 -0.171875 0.414062 -0.222656 C 0.390625 -0.273438 0.378906 -0.328125 0.378906 -0.390625 Z M 0.378906 -2.273438 C 0.378906 -2.390625 0.421875 -2.492188 0.507812 -2.578125 C 0.59375 -2.664062 0.699219 -2.707031 0.820312 -2.707031 C 0.941406 -2.707031 1.042969 -2.664062 1.132812 -2.582031 C 1.222656 -2.5 1.265625 -2.402344 1.265625 -2.285156 C 1.265625 -2.164062 1.222656 -2.0625 1.136719 -1.976562 C 1.050781 -1.890625 0.945312 -1.851562 0.820312 -1.851562 C 0.761719 -1.851562 0.707031 -1.859375 0.652344 -1.882812 C 0.597656 -1.90625 0.550781 -1.933594 0.511719 -1.972656 C 0.46875 -2.007812 0.4375 -2.054688 0.414062 -2.105469 C 0.390625 -2.15625 0.378906 -2.214844 0.378906 -2.273438 Z "/>
</g>
<g id="glyph-0-18">
<path d="M 1.488281 -3.167969 L 0.75 -2.484375 L 0.359375 -2.945312 L 1.550781 -3.933594 L 2.15625 -3.933594 L 2.15625 0 L 1.488281 0 Z "/>
</g>
<g id="glyph-0-19">
<path d="M 0.378906 -0.390625 C 0.378906 -0.507812 0.421875 -0.609375 0.507812 -0.695312 C 0.59375 -0.78125 0.699219 -0.820312 0.820312 -0.820312 C 0.941406 -0.820312 1.042969 -0.78125 1.132812 -0.699219 C 1.222656 -0.617188 1.265625 -0.519531 1.265625 -0.398438 C 1.265625 -0.28125 1.222656 -0.179688 1.136719 -0.09375 C 1.050781 -0.0078125 0.945312 0.0351562 0.820312 0.0351562 C 0.761719 0.0351562 0.707031 0.0234375 0.652344 0 C 0.597656 -0.0234375 0.550781 -0.0507812 0.511719 -0.0898438 C 0.46875 -0.125 0.4375 -0.171875 0.414062 -0.222656 C 0.390625 -0.273438 0.378906 -0.328125 0.378906 -0.390625 Z "/>
</g>
<g id="glyph-0-20">
<path d="M 1.644531 -4 C 1.8125 -4 1.96875 -3.976562 2.113281 -3.929688 C 2.261719 -3.882812 2.386719 -3.816406 2.496094 -3.730469 C 2.605469 -3.644531 2.691406 -3.535156 2.753906 -3.410156 C 2.816406 -3.28125 2.851562 -3.132812 2.851562 -2.964844 C 2.851562 -2.753906 2.800781 -2.570312 2.703125 -2.410156 C 2.605469 -2.25 2.457031 -2.144531 2.253906 -2.082031 L 2.253906 -2.070312 C 2.347656 -2.054688 2.4375 -2.015625 2.523438 -1.957031 C 2.613281 -1.902344 2.6875 -1.832031 2.753906 -1.746094 C 2.820312 -1.664062 2.875 -1.570312 2.914062 -1.460938 C 2.953125 -1.355469 2.972656 -1.238281 2.972656 -1.117188 C 2.972656 -0.921875 2.9375 -0.75 2.867188 -0.601562 C 2.796875 -0.457031 2.703125 -0.332031 2.582031 -0.234375 C 2.464844 -0.132812 2.324219 -0.0585938 2.160156 -0.0078125 C 1.996094 0.0429688 1.824219 0.0664062 1.644531 0.0664062 C 1.460938 0.0664062 1.285156 0.0429688 1.125 -0.0078125 C 0.964844 -0.0585938 0.824219 -0.132812 0.707031 -0.234375 C 0.585938 -0.332031 0.492188 -0.457031 0.421875 -0.601562 C 0.351562 -0.75 0.316406 -0.921875 0.316406 -1.117188 C 0.316406 -1.238281 0.335938 -1.355469 0.375 -1.460938 C 0.414062 -1.570312 0.464844 -1.664062 0.535156 -1.746094 C 0.601562 -1.832031 0.675781 -1.902344 0.765625 -1.957031 C 0.851562 -2.015625 0.941406 -2.054688 1.035156 -2.070312 L 1.035156 -2.082031 C 0.832031 -2.140625 0.683594 -2.25 0.585938 -2.410156 C 0.488281 -2.570312 0.4375 -2.753906 0.4375 -2.964844 C 0.4375 -3.132812 0.46875 -3.28125 0.535156 -3.410156 C 0.597656 -3.535156 0.683594 -3.644531 0.792969 -3.730469 C 0.902344 -3.816406 1.027344 -3.882812 1.175781 -3.929688 C 1.320312 -3.976562 1.476562 -4 1.644531 -4 Z M 1.644531 -3.433594 C 1.472656 -3.433594 1.339844 -3.382812 1.246094 -3.277344 C 1.152344 -3.175781 1.105469 -3.046875 1.105469 -2.898438 C 1.105469 -2.742188 1.152344 -2.613281 1.25 -2.507812 C 1.347656 -2.402344 1.476562 -2.351562 1.644531 -2.351562 C 1.71875 -2.351562 1.789062 -2.363281 1.851562 -2.390625 C 1.917969 -2.417969 1.976562 -2.457031 2.023438 -2.507812 C 2.074219 -2.558594 2.113281 -2.617188 2.140625 -2.683594 C 2.167969 -2.75 2.183594 -2.824219 2.183594 -2.898438 C 2.183594 -3.046875 2.132812 -3.175781 2.03125 -3.277344 C 1.929688 -3.382812 1.800781 -3.433594 1.644531 -3.433594 Z M 1.644531 -1.816406 C 1.554688 -1.816406 1.46875 -1.800781 1.390625 -1.773438 C 1.308594 -1.742188 1.238281 -1.699219 1.179688 -1.644531 C 1.121094 -1.589844 1.070312 -1.523438 1.035156 -1.445312 C 1 -1.371094 0.984375 -1.289062 0.984375 -1.199219 C 0.984375 -1.011719 1.046875 -0.859375 1.167969 -0.742188 C 1.292969 -0.625 1.453125 -0.566406 1.644531 -0.566406 C 1.835938 -0.566406 1.996094 -0.625 2.121094 -0.742188 C 2.242188 -0.859375 2.304688 -1.011719 2.304688 -1.199219 C 2.304688 -1.289062 2.289062 -1.371094 2.253906 -1.445312 C 2.21875 -1.523438 2.171875 -1.589844 2.109375 -1.644531 C 2.050781 -1.699219 1.980469 -1.742188 1.898438 -1.773438 C 1.816406 -1.800781 1.734375 -1.816406 1.644531 -1.816406 Z "/>
</g>
<g id="glyph-0-21">
<path d="M 0.328125 -0.707031 L 1.855469 -2.183594 C 1.898438 -2.226562 1.945312 -2.273438 1.996094 -2.324219 C 2.042969 -2.375 2.085938 -2.429688 2.125 -2.484375 C 2.164062 -2.539062 2.195312 -2.597656 2.222656 -2.660156 C 2.25 -2.71875 2.261719 -2.785156 2.261719 -2.851562 C 2.261719 -2.933594 2.246094 -3.003906 2.214844 -3.066406 C 2.183594 -3.128906 2.140625 -3.183594 2.089844 -3.226562 C 2.039062 -3.273438 1.976562 -3.304688 1.910156 -3.332031 C 1.839844 -3.355469 1.765625 -3.367188 1.6875 -3.367188 C 1.523438 -3.367188 1.386719 -3.320312 1.277344 -3.222656 C 1.171875 -3.125 1.105469 -2.996094 1.082031 -2.832031 L 0.382812 -2.890625 C 0.398438 -3.070312 0.441406 -3.230469 0.515625 -3.371094 C 0.585938 -3.507812 0.679688 -3.625 0.792969 -3.714844 C 0.910156 -3.808594 1.042969 -3.878906 1.195312 -3.929688 C 1.347656 -3.976562 1.511719 -4 1.6875 -4 C 1.867188 -4 2.03125 -3.976562 2.1875 -3.929688 C 2.339844 -3.882812 2.472656 -3.816406 2.589844 -3.726562 C 2.703125 -3.636719 2.792969 -3.519531 2.859375 -3.378906 C 2.925781 -3.238281 2.960938 -3.074219 2.960938 -2.882812 C 2.960938 -2.636719 2.90625 -2.421875 2.792969 -2.242188 C 2.679688 -2.0625 2.535156 -1.890625 2.355469 -1.726562 L 1.140625 -0.601562 L 2.960938 -0.601562 L 2.960938 0 L 0.328125 0 Z "/>
</g>
<g id="glyph-0-22">
<path d="M 2.804688 -3.332031 L 1.222656 -3.332031 L 1.207031 -2.550781 C 1.257812 -2.570312 1.324219 -2.582031 1.402344 -2.589844 C 1.480469 -2.597656 1.558594 -2.601562 1.628906 -2.601562 C 1.820312 -2.601562 1.996094 -2.570312 2.160156 -2.507812 C 2.320312 -2.445312 2.457031 -2.359375 2.574219 -2.246094 C 2.6875 -2.128906 2.777344 -1.992188 2.839844 -1.832031 C 2.90625 -1.671875 2.9375 -1.496094 2.9375 -1.292969 C 2.9375 -1.082031 2.902344 -0.894531 2.832031 -0.726562 C 2.757812 -0.558594 2.660156 -0.414062 2.53125 -0.296875 C 2.402344 -0.179688 2.25 -0.0898438 2.078125 -0.0273438 C 1.902344 0.0351562 1.714844 0.0664062 1.515625 0.0664062 C 1.203125 0.0664062 0.933594 -0.0078125 0.714844 -0.15625 C 0.492188 -0.304688 0.335938 -0.53125 0.246094 -0.832031 L 0.945312 -1.023438 C 0.988281 -0.882812 1.066406 -0.769531 1.171875 -0.6875 C 1.28125 -0.605469 1.417969 -0.566406 1.589844 -0.566406 C 1.6875 -0.566406 1.78125 -0.582031 1.863281 -0.617188 C 1.945312 -0.648438 2.019531 -0.695312 2.082031 -0.757812 C 2.140625 -0.820312 2.1875 -0.890625 2.222656 -0.972656 C 2.253906 -1.054688 2.273438 -1.144531 2.273438 -1.238281 C 2.273438 -1.375 2.246094 -1.492188 2.195312 -1.589844 C 2.148438 -1.683594 2.078125 -1.765625 1.996094 -1.824219 C 1.910156 -1.886719 1.8125 -1.929688 1.699219 -1.957031 C 1.589844 -1.984375 1.472656 -2 1.351562 -2 C 1.207031 -2 1.0625 -1.984375 0.917969 -1.949219 C 0.777344 -1.917969 0.644531 -1.871094 0.527344 -1.8125 L 0.566406 -3.933594 L 2.804688 -3.933594 Z "/>
</g>
<g id="glyph-0-23">
<path d="M 1.5625 -1.082031 L 0.1875 -1.082031 L 0.1875 -1.648438 L 1.5625 -1.648438 Z "/>
</g>
<g id="glyph-0-24">
<path d="M 3.253906 -1.882812 L 3.253906 -1.484375 L 0.445312 -0.234375 L 0.445312 -0.84375 L 2.324219 -1.683594 L 0.445312 -2.523438 L 0.445312 -3.132812 Z "/>
</g>
<g id="glyph-0-25">
<path d="M 0.222656 -1.964844 C 0.222656 -2.277344 0.246094 -2.542969 0.296875 -2.765625 C 0.347656 -2.984375 0.414062 -3.167969 0.496094 -3.320312 C 0.578125 -3.46875 0.667969 -3.589844 0.769531 -3.679688 C 0.871094 -3.769531 0.976562 -3.839844 1.082031 -3.886719 C 1.1875 -3.933594 1.289062 -3.964844 1.386719 -3.976562 C 1.484375 -3.992188 1.570312 -4 1.644531 -4 C 1.71875 -4 1.804688 -3.992188 1.902344 -3.976562 C 2 -3.960938 2.101562 -3.933594 2.207031 -3.886719 C 2.3125 -3.839844 2.417969 -3.769531 2.519531 -3.679688 C 2.621094 -3.589844 2.714844 -3.46875 2.792969 -3.320312 C 2.875 -3.167969 2.941406 -2.984375 2.992188 -2.765625 C 3.042969 -2.542969 3.066406 -2.277344 3.066406 -1.964844 C 3.066406 -1.65625 3.042969 -1.390625 2.992188 -1.167969 C 2.941406 -0.949219 2.875 -0.765625 2.792969 -0.613281 C 2.710938 -0.464844 2.621094 -0.34375 2.519531 -0.253906 C 2.417969 -0.164062 2.3125 -0.09375 2.207031 -0.046875 C 2.101562 0 2 0.03125 1.902344 0.0429688 C 1.804688 0.0585938 1.71875 0.0664062 1.644531 0.0664062 C 1.570312 0.0664062 1.484375 0.0585938 1.386719 0.0429688 C 1.289062 0.0273438 1.1875 0 1.082031 -0.046875 C 0.976562 -0.09375 0.871094 -0.160156 0.769531 -0.253906 C 0.667969 -0.34375 0.574219 -0.464844 0.496094 -0.613281 C 0.414062 -0.765625 0.347656 -0.949219 0.296875 -1.167969 C 0.246094 -1.390625 0.222656 -1.65625 0.222656 -1.964844 Z M 0.890625 -1.964844 C 0.890625 -1.84375 0.898438 -1.703125 0.914062 -1.542969 C 0.929688 -1.382812 0.964844 -1.226562 1.015625 -1.082031 C 1.066406 -0.9375 1.144531 -0.816406 1.246094 -0.714844 C 1.34375 -0.617188 1.476562 -0.566406 1.644531 -0.566406 C 1.8125 -0.566406 1.945312 -0.617188 2.042969 -0.714844 C 2.144531 -0.816406 2.21875 -0.9375 2.273438 -1.082031 C 2.324219 -1.226562 2.359375 -1.378906 2.375 -1.542969 C 2.390625 -1.703125 2.398438 -1.84375 2.398438 -1.964844 C 2.398438 -2.089844 2.390625 -2.230469 2.375 -2.390625 C 2.359375 -2.550781 2.324219 -2.707031 2.273438 -2.851562 C 2.222656 -2.996094 2.144531 -3.117188 2.042969 -3.214844 C 1.945312 -3.316406 1.8125 -3.367188 1.644531 -3.367188 C 1.476562 -3.367188 1.34375 -3.316406 1.246094 -3.214844 C 1.144531 -3.117188 1.070312 -2.996094 1.015625 -2.851562 C 0.964844 -2.707031 0.929688 -2.554688 0.914062 -2.390625 C 0.898438 -2.230469 0.890625 -2.089844 0.890625 -1.964844 Z "/>
</g>
<g id="glyph-0-26">
<path d="M 0.234375 -3.933594 L 2.90625 -3.933594 L 2.90625 -3.324219 L 1.332031 0 L 0.550781 0 L 2.15625 -3.300781 L 0.234375 -3.300781 Z "/>
</g>
<g id="glyph-0-27">
<path d="M 1.550781 -3.777344 L 1.542969 -3.753906 C 1.320312 -3.445312 1.148438 -3.101562 1.023438 -2.730469 C 0.898438 -2.359375 0.832031 -1.980469 0.832031 -1.601562 C 0.832031 -1.214844 0.894531 -0.835938 1.023438 -0.464844 C 1.148438 -0.09375 1.320312 0.25 1.542969 0.5625 L 1.078125 0.867188 C 0.824219 0.515625 0.625 0.128906 0.480469 -0.289062 C 0.339844 -0.707031 0.265625 -1.144531 0.265625 -1.601562 C 0.265625 -2.050781 0.339844 -2.488281 0.480469 -2.910156 C 0.625 -3.328125 0.820312 -3.714844 1.078125 -4.066406 Z "/>
</g>
<g id="glyph-0-28">
<path d="M 1.566406 -1.964844 L 1.566406 -3.1875 L 2.132812 -3.1875 L 2.132812 -1.964844 L 3.355469 -1.964844 L 3.355469 -1.398438 L 2.132812 -1.398438 L 2.132812 -0.179688 L 1.566406 -0.179688 L 1.566406 -1.398438 L 0.34375 -1.398438 L 0.34375 -1.964844 Z "/>
</g>
<g id="glyph-0-29">
<path d="M 1.234375 -2.351562 L 1.40625 -2.351562 C 1.503906 -2.351562 1.59375 -2.355469 1.6875 -2.367188 C 1.777344 -2.378906 1.859375 -2.402344 1.929688 -2.4375 C 2.003906 -2.476562 2.0625 -2.53125 2.105469 -2.601562 C 2.148438 -2.671875 2.171875 -2.765625 2.171875 -2.882812 C 2.171875 -3.035156 2.121094 -3.160156 2.015625 -3.253906 C 1.914062 -3.351562 1.777344 -3.398438 1.609375 -3.398438 C 1.476562 -3.398438 1.359375 -3.363281 1.253906 -3.285156 C 1.148438 -3.210938 1.070312 -3.105469 1.023438 -2.964844 L 0.316406 -3.15625 C 0.359375 -3.300781 0.425781 -3.425781 0.503906 -3.535156 C 0.585938 -3.640625 0.683594 -3.730469 0.792969 -3.796875 C 0.90625 -3.867188 1.027344 -3.917969 1.160156 -3.949219 C 1.292969 -3.984375 1.433594 -4 1.578125 -4 C 1.75 -4 1.910156 -3.976562 2.0625 -3.933594 C 2.214844 -3.890625 2.347656 -3.824219 2.460938 -3.734375 C 2.574219 -3.648438 2.667969 -3.539062 2.734375 -3.410156 C 2.804688 -3.277344 2.839844 -3.125 2.839844 -2.949219 C 2.839844 -2.738281 2.78125 -2.550781 2.660156 -2.386719 C 2.542969 -2.222656 2.378906 -2.113281 2.167969 -2.0625 L 2.167969 -2.050781 C 2.417969 -2.011719 2.609375 -1.90625 2.738281 -1.726562 C 2.867188 -1.550781 2.933594 -1.339844 2.933594 -1.09375 C 2.933594 -0.90625 2.898438 -0.738281 2.824219 -0.59375 C 2.753906 -0.449219 2.65625 -0.328125 2.535156 -0.230469 C 2.410156 -0.132812 2.269531 -0.0585938 2.109375 -0.0078125 C 1.949219 0.0429688 1.78125 0.0664062 1.605469 0.0664062 C 1.441406 0.0664062 1.289062 0.0507812 1.144531 0.015625 C 1 -0.0195312 0.871094 -0.0742188 0.753906 -0.148438 C 0.636719 -0.222656 0.535156 -0.320312 0.449219 -0.4375 C 0.363281 -0.554688 0.300781 -0.691406 0.253906 -0.855469 L 0.964844 -1.042969 C 1.007812 -0.882812 1.078125 -0.753906 1.183594 -0.667969 C 1.289062 -0.578125 1.429688 -0.535156 1.605469 -0.535156 C 1.695312 -0.535156 1.777344 -0.546875 1.859375 -0.578125 C 1.9375 -0.609375 2.007812 -0.648438 2.070312 -0.703125 C 2.132812 -0.757812 2.179688 -0.820312 2.214844 -0.898438 C 2.25 -0.972656 2.265625 -1.058594 2.265625 -1.148438 C 2.265625 -1.277344 2.238281 -1.378906 2.1875 -1.457031 C 2.132812 -1.539062 2.0625 -1.597656 1.980469 -1.640625 C 1.898438 -1.683594 1.804688 -1.714844 1.699219 -1.726562 C 1.597656 -1.742188 1.496094 -1.75 1.394531 -1.75 L 1.234375 -1.75 Z "/>
</g>
<g id="glyph-0-30">
<path d="M 2.804688 -0.964844 C 2.804688 -1.109375 2.832031 -1.246094 2.886719 -1.371094 C 2.941406 -1.492188 3.015625 -1.601562 3.109375 -1.695312 C 3.203125 -1.792969 3.3125 -1.867188 3.4375 -1.917969 C 3.5625 -1.972656 3.695312 -2 3.839844 -2 C 3.984375 -2 4.117188 -1.972656 4.242188 -1.917969 C 4.367188 -1.867188 4.476562 -1.792969 4.570312 -1.695312 C 4.664062 -1.601562 4.738281 -1.492188 4.792969 -1.371094 C 4.847656 -1.246094 4.871094 -1.109375 4.871094 -0.964844 C 4.871094 -0.820312 4.84375 -0.6875 4.792969 -0.5625 C 4.738281 -0.4375 4.664062 -0.332031 4.570312 -0.234375 C 4.476562 -0.140625 4.367188 -0.0664062 4.242188 -0.015625 C 4.117188 0.0390625 3.984375 0.0664062 3.839844 0.0664062 C 3.695312 0.0664062 3.558594 0.0390625 3.4375 -0.015625 C 3.3125 -0.0664062 3.203125 -0.140625 3.109375 -0.234375 C 3.015625 -0.328125 2.941406 -0.441406 2.886719 -0.5625 C 2.832031 -0.6875 2.804688 -0.820312 2.804688 -0.964844 Z M 4.339844 -0.964844 C 4.339844 -1.105469 4.289062 -1.226562 4.195312 -1.320312 C 4.097656 -1.417969 3.980469 -1.464844 3.839844 -1.464844 C 3.699219 -1.464844 3.578125 -1.417969 3.484375 -1.320312 C 3.386719 -1.226562 3.339844 -1.109375 3.339844 -0.964844 C 3.339844 -0.824219 3.386719 -0.707031 3.484375 -0.609375 C 3.578125 -0.515625 3.699219 -0.464844 3.839844 -0.464844 C 3.980469 -0.464844 4.097656 -0.515625 4.195312 -0.609375 C 4.292969 -0.707031 4.339844 -0.824219 4.339844 -0.964844 Z M 0.167969 -2.964844 C 0.167969 -3.109375 0.195312 -3.246094 0.246094 -3.371094 C 0.300781 -3.492188 0.375 -3.601562 0.46875 -3.699219 C 0.5625 -3.792969 0.671875 -3.867188 0.796875 -3.917969 C 0.921875 -3.972656 1.054688 -4 1.199219 -4 C 1.34375 -4 1.480469 -3.972656 1.601562 -3.917969 C 1.726562 -3.867188 1.835938 -3.792969 1.929688 -3.699219 C 2.023438 -3.601562 2.097656 -3.492188 2.152344 -3.371094 C 2.207031 -3.246094 2.234375 -3.109375 2.234375 -2.964844 C 2.234375 -2.820312 2.207031 -2.6875 2.152344 -2.5625 C 2.097656 -2.4375 2.023438 -2.332031 1.929688 -2.234375 C 1.835938 -2.140625 1.726562 -2.066406 1.601562 -2.015625 C 1.476562 -1.960938 1.34375 -1.933594 1.199219 -1.933594 C 1.054688 -1.933594 0.921875 -1.960938 0.796875 -2.015625 C 0.671875 -2.066406 0.5625 -2.140625 0.46875 -2.234375 C 0.375 -2.328125 0.300781 -2.441406 0.246094 -2.5625 C 0.191406 -2.6875 0.167969 -2.824219 0.167969 -2.964844 Z M 1.699219 -2.964844 C 1.699219 -3.105469 1.652344 -3.226562 1.554688 -3.324219 C 1.460938 -3.417969 1.339844 -3.464844 1.199219 -3.464844 C 1.058594 -3.464844 0.941406 -3.417969 0.84375 -3.324219 C 0.746094 -3.226562 0.699219 -3.109375 0.699219 -2.964844 C 0.699219 -2.824219 0.75 -2.707031 0.84375 -2.609375 C 0.941406 -2.515625 1.058594 -2.464844 1.199219 -2.464844 C 1.339844 -2.464844 1.460938 -2.515625 1.554688 -2.609375 C 1.652344 -2.707031 1.699219 -2.824219 1.699219 -2.964844 Z M 3.449219 -4.109375 L 3.910156 -3.898438 L 1.601562 0.179688 L 1.140625 -0.0351562 Z "/>
</g>
<g id="glyph-0-31">
<path d="M 0.09375 0.578125 L 0.101562 0.554688 C 0.324219 0.246094 0.496094 -0.0976562 0.621094 -0.46875 C 0.746094 -0.839844 0.8125 -1.21875 0.8125 -1.601562 C 0.8125 -1.984375 0.75 -2.363281 0.621094 -2.734375 C 0.496094 -3.105469 0.320312 -3.445312 0.101562 -3.753906 L 0.566406 -4.066406 C 0.820312 -3.714844 1.019531 -3.328125 1.164062 -2.910156 C 1.304688 -2.492188 1.378906 -2.054688 1.378906 -1.601562 C 1.378906 -1.148438 1.304688 -0.710938 1.164062 -0.292969 C 1.019531 0.128906 0.820312 0.515625 0.566406 0.867188 Z "/>
</g>
</g>
<image id="source-264" x="0" y="0" width="0" height="0"/>
<mask id="mask-0">
<use xlink:href="#source-264"/>
</mask>
</defs>
<g fill="rgb(20.392157%, 82.745098%, 60%)" fill-opacity="1">
<use xlink:href="#glyph-0-0" x="30" y="25.555664"/>
<use xlink:href="#glyph-0-1" x="35" y="25.555664"/>
<use xlink:href="#glyph-0-2" x="38" y="25.555664"/>
<use xlink:href="#glyph-0-3" x="41" y="25.555664"/>
<use xlink:href="#glyph-0-4" x="44" y="25.555664"/>
<use xlink:href="#glyph-0-5" x="46" y="25.555664"/>
<use xlink:href="#glyph-0-3" x="49" y="25.555664"/>
<use xlink:href="#glyph-0-6" x="52" y="25.555664"/>
<use xlink:href="#glyph-0-7" x="53" y="25.555664"/>
<use xlink:href="#glyph-0-5" x="57" y="25.555664"/>
<use xlink:href="#glyph-0-1" x="60" y="25.555664"/>
<use xlink:href="#glyph-0-4" x="63" y="25.555664"/>
<use xlink:href="#glyph-0-2" x="65" y="25.555664"/>
<use xlink:href="#glyph-0-3" x="68" y="25.555664"/>
<use xlink:href="#glyph-0-8" x="71" y="25.555664"/>
<use xlink:href="#glyph-0-9" x="73" y="25.555664"/>
<use xlink:href="#glyph-0-1" x="77" y="25.555664"/>
<use xlink:href="#glyph-0-10" x="80" y="25.555664"/>
<use xlink:href="#glyph-0-8" x="82" y="25.555664"/>
<use xlink:href="#glyph-0-4" x="84" y="25.555664"/>
<use xlink:href="#glyph-0-11" x="86" y="25.555664"/>
<use xlink:href="#glyph-0-4" x="88" y="25.555664"/>
<use xlink:href="#glyph-0-12" x="90" y="25.555664"/>
<use xlink:href="#glyph-0-10" x="94" y="25.555664"/>
<use xlink:href="#glyph-0-13" x="96" y="25.555664"/>
<use xlink:href="#glyph-0-14" x="99" y="25.555664"/>
<use xlink:href="#glyph-0-15" x="103" y="25.555664"/>
<use xlink:href="#glyph-0-1" x="104" y="25.555664"/>
<use xlink:href="#glyph-0-16" x="107" y="25.555664"/>
<use xlink:href="#glyph-0-17" x="112" y="25.555664"/>
<use xlink:href="#glyph-0-4" x="114" y="25.555664"/>
<use xlink:href="#glyph-0-4" x="116" y="25.555664"/>
<use xlink:href="#glyph-0-18" x="118" y="25.555664"/>
<use xlink:href="#glyph-0-19" x="121" y="25.555664"/>
<use xlink:href="#glyph-0-20" x="123" y="25.555664"/>
<use xlink:href="#glyph-0-21" x="126" y="25.555664"/>
<use xlink:href="#glyph-0-22" x="129" y="25.555664"/>
<use xlink:href="#glyph-0-4" x="132" y="25.555664"/>
<use xlink:href="#glyph-0-4" x="134" y="25.555664"/>
<use xlink:href="#glyph-0-23" x="136" y="25.555664"/>
<use xlink:href="#glyph-0-24" x="138" y="25.555664"/>
<use xlink:href="#glyph-0-4" x="142" y="25.555664"/>
<use xlink:href="#glyph-0-4" x="144" y="25.555664"/>
<use xlink:href="#glyph-0-21" x="146" y="25.555664"/>
<use xlink:href="#glyph-0-19" x="149" y="25.555664"/>
<use xlink:href="#glyph-0-25" x="151" y="25.555664"/>
<use xlink:href="#glyph-0-26" x="154" y="25.555664"/>
<use xlink:href="#glyph-0-4" x="157" y="25.555664"/>
<use xlink:href="#glyph-0-4" x="159" y="25.555664"/>
<use xlink:href="#glyph-0-4" x="161" y="25.555664"/>
<use xlink:href="#glyph-0-27" x="163" y="25.555664"/>
<use xlink:href="#glyph-0-28" x="165" y="25.555664"/>
<use xlink:href="#glyph-0-18" x="169" y="25.555664"/>
<use xlink:href="#glyph-0-29" x="172" y="25.555664"/>
<use xlink:href="#glyph-0-30" x="175" y="25.555664"/>
<use xlink:href="#glyph-0-31" x="180" y="25.555664"/>
</g>
</svg>
